<svg width="8" height="8" viewBox="0 0 8 8" fill="none" xmlns="http://www.w3.org/2000/svg">
<path fill-rule="evenodd" clip-rule="evenodd" d="M0 4.16079C0 4.02818 0.0526785 3.901 0.146447 3.80723C0.240215 3.71347 0.367392 3.66079 0.5 3.66079H6.293L4.146 1.51479C4.05211 1.4209 3.99937 1.29356 3.99937 1.16079C3.99937 1.02801 4.05211 0.900675 4.146 0.806788C4.23989 0.712901 4.36722 0.660156 4.5 0.660156C4.63278 0.660156 4.76011 0.712901 4.854 0.806788L7.854 3.80679C7.90056 3.85323 7.93751 3.90841 7.96271 3.96915C7.98792 4.0299 8.00089 4.09502 8.00089 4.16079C8.00089 4.22656 7.98792 4.29168 7.96271 4.35242C7.93751 4.41317 7.90056 4.46834 7.854 4.51479L4.854 7.51479C4.76011 7.60868 4.63278 7.66142 4.5 7.66142C4.36722 7.66142 4.23989 7.60868 4.146 7.51479C4.05211 7.4209 3.99937 7.29356 3.99937 7.16079C3.99937 7.02801 4.05211 6.90067 4.146 6.80679L6.293 4.66079H0.5C0.367392 4.66079 0.240215 4.60811 0.146447 4.51434C0.0526785 4.42057 0 4.2934 0 4.16079Z" fill="#121212"/>
</svg>
