<svg width="12" height="11" viewBox="0 0 12 11" fill="none" xmlns="http://www.w3.org/2000/svg">
<path fill-rule="evenodd" clip-rule="evenodd" d="M11.5 5.59998C11.5 5.78938 11.4248 5.97103 11.2908 6.10496C11.1569 6.23889 10.9752 6.31413 10.7858 6.31413L2.51162 6.31413L5.57821 9.37929C5.71231 9.51339 5.78765 9.69527 5.78765 9.88492C5.78765 10.0746 5.71231 10.2564 5.57821 10.3905C5.44411 10.5246 5.26223 10.6 5.07259 10.6C4.88294 10.6 4.70106 10.5246 4.56696 10.3905L0.282022 6.1056C0.215516 6.03926 0.16275 5.96045 0.126748 5.87369C0.090745 5.78692 0.0722132 5.69391 0.0722132 5.59998C0.0722132 5.50604 0.090745 5.41303 0.126748 5.32626C0.16275 5.2395 0.215516 5.16069 0.282022 5.09435L4.56696 0.809411C4.70106 0.675311 4.88294 0.599976 5.07259 0.599976C5.26223 0.599976 5.44411 0.675311 5.57821 0.809411C5.71231 0.94351 5.78765 1.12539 5.78765 1.31503C5.78765 1.50468 5.71231 1.68656 5.57821 1.82066L2.51162 4.88582L10.7858 4.88582C10.9752 4.88582 11.1569 4.96106 11.2908 5.09499C11.4248 5.22892 11.5 5.41057 11.5 5.59998Z" fill="#121212"/>
</svg>
