<svg width="12" height="15" viewBox="0 0 12 15" fill="none" xmlns="http://www.w3.org/2000/svg">
<path d="M11.82 10.6093C11.0784 9.80574 10.1784 9.16448 9.17674 8.72589C8.17509 8.2873 7.09347 8.06087 6 8.06087C4.90653 8.06087 3.82491 8.2873 2.82326 8.72589C1.8216 9.16448 0.921624 9.80574 0.18 10.6093C0.0655 10.7359 0.00145029 10.9001 0 11.0708V13.84C0.00242698 14.022 0.0764363 14.1958 0.206007 14.3236C0.335578 14.4515 0.510284 14.5231 0.692308 14.5231H11.3077C11.4913 14.5231 11.6674 14.4502 11.7972 14.3203C11.9271 14.1905 12 14.0144 12 13.8308V11.0616C11.9963 10.8941 11.9324 10.7335 11.82 10.6093Z" fill="#121212"/>
<path d="M6.00019 7.13843C7.7845 7.13843 9.23096 5.69197 9.23096 3.90766C9.23096 2.12336 7.7845 0.676895 6.00019 0.676895C4.21589 0.676895 2.76942 2.12336 2.76942 3.90766C2.76942 5.69197 4.21589 7.13843 6.00019 7.13843Z" fill="#121212"/>
</svg>
