<svg width="32" height="33" viewBox="0 0 32 33" fill="none" xmlns="http://www.w3.org/2000/svg">
<g clip-path="url(#clip0_139_14682)">
<path d="M29.9131 11.0348V6.86085H27.8261V4.77391H25.7391V2.68691H21.5652V0.599976H10.4348V2.68691H6.26088V4.77391H4.17394V6.86085H2.08694V11.0348H0V22.1652H2.08694V26.3391H4.17394V28.426H6.26088V30.513H10.4348V32.6H21.5652V30.513H25.7391V28.426H27.8261V26.3391H29.9131V22.1652H32V11.0348H29.9131Z" fill="#FFD670"/>
<path d="M6.26089 4.77393H4.17395V6.86086H6.26089V4.77393Z" fill="black"/>
<path d="M25.7391 2.68691H21.5652V0.599976H10.4348V2.68691H6.26086V4.77391H10.4348V2.68691H21.5652V4.77391H25.7391V6.86085H27.8261V4.77391H25.7391V2.68691Z" fill="black"/>
<path d="M29.913 6.86084H27.826V11.0348H29.913V6.86084Z" fill="black"/>
<path d="M32 11.0348H29.9131V22.1652H32V11.0348Z" fill="black"/>
<path d="M29.913 22.1652H27.826V26.3391H29.913V22.1652Z" fill="black"/>
<path d="M2.08694 11.0348H0V22.1652H2.08694V26.3391H4.17394V28.426H6.26087V26.3391H4.17394V22.1652H2.08694V11.0348H4.17394V6.86084H2.08694V11.0348Z" fill="black"/>
<path d="M10.4348 30.513V32.6H21.5652V30.513H25.7391V28.426H21.5652V30.513H10.4348V28.426H6.26086V30.513H10.4348Z" fill="black"/>
<path d="M27.8261 26.3391H25.7391V28.4261H27.8261V26.3391Z" fill="black"/>
<path d="M12.8645 22.9541H14.9791V25.0687H12.8645V22.9541Z" fill="black"/>
<path d="M12.8645 8.1521H14.9791V10.2667H12.8645V8.1521Z" fill="black"/>
<path d="M10.75 12.3812H12.8646V14.4958H10.75V12.3812Z" fill="black"/>
<path d="M10.75 20.8395H12.8646V22.9541H10.75V20.8395Z" fill="black"/>
<path d="M10.75 10.2666H12.8646V12.3812H10.75V10.2666Z" fill="black"/>
<path d="M14.9791 8.1521H17.0937V10.2667H14.9791V8.1521Z" fill="black"/>
<path d="M12.8645 6.03748H14.9791V8.15206H12.8645V6.03748Z" fill="black"/>
<path d="M14.9791 14.4957H17.0937V16.6103H14.9791V14.4957Z" fill="black"/>
<path d="M10.75 16.6104H12.8646V18.7249H10.75V16.6104Z" fill="black"/>
<path d="M14.9791 22.9541H17.0937V25.0687H14.9791V22.9541Z" fill="black"/>
<path d="M12.8645 25.0687H14.9791V27.1833H12.8645V25.0687Z" fill="black"/>
<path d="M17.0938 6.03748H19.2083V8.15206H17.0938V6.03748Z" fill="black"/>
<path d="M17.0938 25.0687H19.2083V27.1833H17.0938V25.0687Z" fill="black"/>
<path d="M19.2083 16.6104H21.3228V18.7249H19.2083V16.6104Z" fill="black"/>
<path d="M17.0938 14.4957H19.2083V16.6103H17.0938V14.4957Z" fill="black"/>
<path d="M12.8645 14.4957H14.9791V16.6103H12.8645V14.4957Z" fill="black"/>
<path d="M10.75 14.4957H12.8646V16.6103H10.75V14.4957Z" fill="black"/>
<path d="M17.0938 22.9541H19.2083V25.0687H17.0938V22.9541Z" fill="black"/>
<path d="M10.75 18.725H12.8646V20.8396H10.75V18.725Z" fill="black"/>
<path d="M17.0938 8.1521H19.2083V10.2667H17.0938V8.1521Z" fill="black"/>
<path d="M19.2083 22.9541H21.3228V25.0687H19.2083V22.9541Z" fill="black"/>
<path d="M19.2083 12.3812H21.3228V14.4958H19.2083V12.3812Z" fill="black"/>
<path d="M19.2083 10.2666H21.3228V12.3812H19.2083V10.2666Z" fill="black"/>
<path d="M21.3229 18.725H23.4375V20.8396H21.3229V18.725Z" fill="black"/>
<path d="M21.3229 20.8395H23.4375V22.9541H21.3229V20.8395Z" fill="black"/>
</g>
<defs>
<clipPath id="clip0_139_14682">
<rect width="32" height="32" fill="white" transform="translate(0 0.599976)"/>
</clipPath>
</defs>
</svg>
