<svg width="18" height="14" viewBox="0 0 18 14" fill="none" xmlns="http://www.w3.org/2000/svg">
<path d="M16.3667 3.1H1.63332C0.91519 3.1 0.333321 2.51813 0.333321 1.8C0.333321 1.08187 0.91519 0.5 1.63332 0.5H16.3667C17.0848 0.5 17.6667 1.08187 17.6667 1.8C17.6667 2.51813 17.0848 3.1 16.3667 3.1Z" fill="black"/>
<path d="M1.63332 5.70001H16.3667C17.0848 5.70001 17.6667 6.28188 17.6667 7.00001C17.6667 7.71814 17.0848 8.30001 16.3667 8.30001H1.63332C0.91519 8.30001 0.333321 7.71814 0.333321 7.00001C0.333321 6.28188 0.91519 5.70001 1.63332 5.70001Z" fill="black"/>
<path d="M1.63332 10.9H16.3667C17.0848 10.9 17.6667 11.4819 17.6667 12.2C17.6667 12.9181 17.0848 13.5 16.3667 13.5H1.63332C0.91519 13.5 0.333321 12.9181 0.333321 12.2C0.333321 11.4819 0.91519 10.9 1.63332 10.9Z" fill="black"/>
</svg>
