<svg width="25" height="25" viewBox="0 0 25 25" fill="none" xmlns="http://www.w3.org/2000/svg">
<g clip-path="url(#clip0_334_5277)">
<path d="M11.9228 11.9172L11.255 9.42609C11.9617 9.25163 14.0095 8.40663 14.5445 9.91663C14.8072 11.5478 12.6261 11.7372 11.9228 11.9172Z" fill="#F9C861"/>
<path d="M16.0811 13.655C16.3289 15.49 13.7789 15.7145 12.9367 15.9361L12.2039 13.1911C13.0489 12.9695 15.6611 12.0383 16.0811 13.655Z" fill="#F9C861"/>
<path d="M12.835 2.59998C7.31216 2.59998 2.83496 7.07718 2.83496 12.6C2.83496 18.1228 7.31216 22.6 12.835 22.6C18.3578 22.6 22.835 18.1228 22.835 12.6C22.835 7.07718 18.3578 2.59998 12.835 2.59998ZM15.54 16.8466L16.075 18.9178L14.8278 19.24L14.2961 17.1628C13.9711 17.2483 13.6372 17.3311 13.2944 17.4111L13.8289 19.5L12.5822 19.8222L12.0472 17.7477C11.7544 17.8216 9.5267 18.3922 9.5267 18.3922L9.39056 16.8344C9.39056 16.8344 10.3184 16.6127 10.2978 16.601C10.6466 16.5066 10.6761 16.2288 10.6583 16.066L9.20443 10.4455C9.09223 10.206 8.85276 9.95218 8.34443 10.085C8.35329 10.0644 7.43723 10.3216 7.43723 10.3216L7.09443 8.98611C7.09443 8.98611 9.34329 8.40944 9.61223 8.33278L9.08336 6.28224L10.33 5.96004L10.8506 7.99284C11.1844 7.89838 11.5211 7.82784 11.8489 7.74504L11.3289 5.70004L12.5761 5.37784L13.105 7.42838C14.7511 7.15391 16.0955 7.43724 16.6805 8.76451C17.0677 9.81951 16.7516 10.6262 16.1283 11.1784C17.1416 11.2822 18.3622 12.1984 18.5394 13.315C18.8172 15.1678 17.4611 16.3794 15.54 16.8466Z" fill="#F9C861"/>
<path d="M13.2361 24.2598C13.0573 24.2598 12.9095 24.1181 12.9032 23.938C12.8968 23.754 13.0407 23.5998 13.2247 23.5933C13.4798 23.5844 13.7374 23.5666 13.9905 23.5402C14.1737 23.5205 14.3375 23.654 14.3566 23.8371C14.3757 24.0202 14.2427 24.1841 14.0597 24.2032C13.7914 24.2312 13.5183 24.2501 13.2479 24.2596C13.244 24.2597 13.24 24.2598 13.2361 24.2598V24.2598ZM11.6569 24.2062C11.6454 24.2062 11.6339 24.2056 11.6222 24.2044C11.3535 24.1766 11.0822 24.139 10.816 24.0926C10.6347 24.061 10.5132 23.8884 10.5449 23.707C10.5765 23.5257 10.7493 23.4044 10.9305 23.4359C11.1815 23.4796 11.4373 23.5151 11.6907 23.5413C11.8739 23.5602 12.0069 23.724 11.988 23.9071C11.9703 24.0786 11.8255 24.2062 11.6569 24.2062V24.2062ZM15.5817 23.9316C15.4322 23.9316 15.2963 23.8304 15.2585 23.6788C15.2139 23.5001 15.3227 23.3192 15.5014 23.2748C15.7489 23.2131 15.9972 23.142 16.2391 23.0633C16.4143 23.0063 16.6022 23.1022 16.6591 23.2772C16.7161 23.4523 16.6203 23.6404 16.4452 23.6973C16.1884 23.7808 15.9251 23.8563 15.6625 23.9216C15.6355 23.9284 15.6084 23.9316 15.5817 23.9316V23.9316ZM9.33907 23.7173C9.30507 23.7173 9.27047 23.7121 9.23627 23.701C8.9784 23.6175 8.72054 23.5238 8.4698 23.4225C8.29914 23.3536 8.21667 23.1593 8.2856 22.9886C8.35454 22.8178 8.549 22.7354 8.71954 22.8044C8.95567 22.8998 9.19867 22.988 9.44167 23.0668C9.6168 23.1235 9.7128 23.3114 9.65607 23.4866C9.6104 23.6276 9.47967 23.7173 9.33907 23.7173V23.7173ZM17.8077 23.1206C17.6844 23.1206 17.5659 23.052 17.5081 22.9337C17.4271 22.7684 17.4956 22.5687 17.661 22.4878C17.8899 22.3758 18.1177 22.2544 18.3378 22.127C18.4973 22.0345 18.7011 22.0892 18.7933 22.2484C18.8855 22.4078 18.8311 22.6117 18.6718 22.7039C18.4383 22.839 18.1967 22.9678 17.9539 23.0866C17.9068 23.1097 17.8569 23.1206 17.8077 23.1206V23.1206ZM7.17294 22.7534C7.11634 22.7534 7.05907 22.7389 7.00647 22.7086C6.77234 22.5733 6.54 22.428 6.3158 22.2766C6.1632 22.1736 6.123 21.9664 6.226 21.8138C6.32894 21.6613 6.53614 21.621 6.68874 21.724C6.90014 21.8668 7.11927 22.0038 7.34 22.1313C7.4994 22.2234 7.55394 22.4272 7.46187 22.5867C7.40014 22.6936 7.28807 22.7534 7.17294 22.7534V22.7534ZM19.8142 21.8636C19.7153 21.8636 19.6173 21.8198 19.5515 21.7358C19.4381 21.5908 19.4636 21.3813 19.6085 21.2678C19.8095 21.1106 20.0071 20.9444 20.1962 20.774C20.3331 20.6507 20.5437 20.6616 20.667 20.7984C20.7903 20.9352 20.7793 21.146 20.6426 21.2692C20.4421 21.4499 20.2325 21.6261 20.0195 21.7928C19.9585 21.8405 19.8861 21.8636 19.8142 21.8636V21.8636ZM5.25634 21.3602C5.17687 21.3602 5.09714 21.3319 5.03347 21.2746C4.83287 21.0941 4.63574 20.9039 4.4476 20.7094C4.3196 20.5771 4.32314 20.3661 4.4554 20.2381C4.58774 20.1102 4.79874 20.1137 4.92674 20.2459C5.1042 20.4294 5.29014 20.6087 5.4794 20.779C5.61627 20.9022 5.62734 21.113 5.5042 21.2498C5.4384 21.323 5.34754 21.3602 5.25634 21.3602ZM21.5174 20.2178C21.4417 20.2178 21.3657 20.1922 21.3033 20.1398C21.1623 20.0214 21.1439 19.8111 21.2623 19.6702C21.4266 19.4744 21.5859 19.271 21.7355 19.0653C21.8439 18.9165 22.0524 18.8835 22.2011 18.9918C22.35 19.1002 22.3829 19.3086 22.2746 19.4574C22.1159 19.6756 21.9471 19.8914 21.7729 20.0988C21.7069 20.1773 21.6125 20.2178 21.5174 20.2178V20.2178ZM3.67014 19.6014C3.56727 19.6014 3.46573 19.5539 3.40047 19.4643C3.24147 19.2462 3.088 19.0194 2.9444 18.7906C2.84654 18.6346 2.89367 18.4289 3.0496 18.331C3.20554 18.2331 3.4112 18.2802 3.50914 18.4362C3.6446 18.6521 3.78934 18.8659 3.93927 19.0717C4.04767 19.2204 4.01494 19.4289 3.8662 19.5374C3.80693 19.5806 3.7382 19.6014 3.67014 19.6014ZM22.8439 18.2544C22.7909 18.2544 22.7373 18.2418 22.6874 18.2152C22.5249 18.1286 22.4634 17.9268 22.5499 17.7642C22.6698 17.5391 22.7833 17.3068 22.8871 17.074C22.9621 16.9058 23.1591 16.8304 23.3273 16.9053C23.4955 16.9802 23.571 17.1773 23.496 17.3455C23.3859 17.5926 23.2655 17.8389 23.1383 18.0777C23.0783 18.1903 22.9631 18.2544 22.8439 18.2544V18.2544ZM2.483 17.553C2.35553 17.553 2.23387 17.4795 2.17847 17.3556C2.06814 17.1088 1.96534 16.8552 1.87294 16.602C1.8098 16.429 1.8988 16.2376 2.07174 16.1745C2.24454 16.1115 2.436 16.2004 2.49914 16.3733C2.58627 16.6119 2.68314 16.8509 2.78714 17.0836C2.8622 17.2516 2.78687 17.4488 2.6188 17.5238C2.57467 17.5437 2.52847 17.553 2.483 17.553V17.553ZM23.7327 16.0567C23.7024 16.0567 23.6715 16.0525 23.6409 16.0438C23.4639 15.9932 23.3615 15.8088 23.412 15.6317C23.4821 15.3865 23.5443 15.1359 23.597 14.8869C23.635 14.7068 23.812 14.5914 23.9921 14.6298C24.1722 14.6678 24.2873 14.8448 24.2492 15.0248C24.1933 15.2891 24.1273 15.5549 24.053 15.815C24.0112 15.9613 23.8777 16.0567 23.7327 16.0567ZM1.7492 15.3018C1.59513 15.3018 1.4568 15.1945 1.42347 15.0378C1.36727 14.7732 1.31973 14.5035 1.2822 14.236C1.25667 14.0537 1.38367 13.8851 1.566 13.8596C1.74814 13.8338 1.9168 13.961 1.9424 14.1434C1.97774 14.3956 2.02253 14.6498 2.07553 14.8991C2.1138 15.0792 1.99887 15.2562 1.8188 15.2945C1.79547 15.2994 1.77214 15.3018 1.7492 15.3018V15.3018ZM24.1416 13.7236C24.1339 13.7236 24.1262 13.7234 24.1183 13.7228C23.9347 13.7102 23.7961 13.551 23.8087 13.3674C23.8261 13.1138 23.835 12.8557 23.835 12.6L23.8349 12.5744C23.8349 12.3903 23.9841 12.241 24.1683 12.241C24.3524 12.241 24.5016 12.3903 24.5016 12.5744L24.5017 12.5975C24.5017 12.8709 24.4923 13.1445 24.4738 13.4132C24.4617 13.589 24.3153 13.7236 24.1416 13.7236V13.7236ZM1.50167 12.9462C1.3176 12.9462 1.16833 12.797 1.16833 12.6128V12.6026C1.16833 12.334 1.1774 12.0648 1.19533 11.8C1.2078 11.6164 1.36713 11.4778 1.5504 11.49C1.73407 11.5024 1.87287 11.6614 1.86047 11.845C1.84353 12.0949 1.835 12.3489 1.835 12.6V12.6128C1.835 12.797 1.6858 12.9462 1.50167 12.9462V12.9462ZM24.0555 11.3311C23.8921 11.3311 23.7494 11.2108 23.7259 11.0444C23.6903 10.7922 23.6451 10.538 23.5919 10.2888C23.5534 10.1088 23.6682 9.93164 23.8482 9.89317C24.0283 9.8547 24.2053 9.96944 24.2439 10.1495C24.3004 10.4139 24.3482 10.6836 24.3861 10.9511C24.4118 11.1334 24.2849 11.302 24.1027 11.3278C24.0867 11.33 24.071 11.3311 24.0555 11.3311V11.3311ZM1.74453 10.5902C1.7218 10.5902 1.69873 10.5879 1.67567 10.583C1.49547 10.5452 1.38013 10.3684 1.418 10.1883C1.4736 9.92377 1.53933 9.65777 1.6134 9.39784C1.6638 9.22077 1.84827 9.11817 2.02533 9.16864C2.2024 9.21904 2.305 9.4035 2.25453 9.58057C2.18473 9.82557 2.1228 10.0762 2.0704 10.3255C2.0374 10.4824 1.89887 10.5902 1.74453 10.5902V10.5902ZM23.4795 9.03384C23.3437 9.03384 23.216 8.9501 23.1666 8.8151C23.0791 8.5765 22.9819 8.33764 22.8777 8.10524C22.8024 7.93724 22.8775 7.73997 23.0455 7.6647C23.2135 7.58937 23.4108 7.6645 23.4861 7.8325C23.5967 8.07917 23.6997 8.33257 23.7925 8.58577C23.8559 8.75864 23.7671 8.9501 23.5942 9.01344C23.5563 9.02724 23.5176 9.03384 23.4795 9.03384V9.03384ZM2.473 8.3355C2.4278 8.3355 2.3818 8.32624 2.33787 8.3067C2.1696 8.2319 2.09387 8.03497 2.1686 7.8667C2.27834 7.61984 2.3984 7.3733 2.52554 7.13404C2.61187 6.9715 2.81374 6.90957 2.97627 6.99604C3.13887 7.08237 3.20067 7.28417 3.11427 7.44677C2.99447 7.67237 2.88127 7.90477 2.77787 8.13744C2.7226 8.26164 2.60074 8.3355 2.473 8.3355V8.3355ZM22.4367 6.90924C22.3259 6.90924 22.2175 6.85397 22.1542 6.75324C22.0189 6.5379 21.8739 6.32424 21.7235 6.1183C21.6149 5.96964 21.6474 5.7611 21.7961 5.6525C21.9447 5.54397 22.1532 5.57637 22.2618 5.72504C22.4214 5.94344 22.5751 6.17004 22.7187 6.39844C22.8167 6.5543 22.7697 6.76004 22.6138 6.85804C22.5587 6.89277 22.4974 6.90924 22.4367 6.90924V6.90924ZM3.6572 6.28244C3.58927 6.28244 3.5208 6.26177 3.4616 6.21877C3.3126 6.11064 3.27954 5.90217 3.38774 5.75324C3.54654 5.5345 3.71507 5.3185 3.88874 5.1113C4.00694 4.97017 4.21727 4.95164 4.35834 5.0699C4.49947 5.1881 4.518 5.39837 4.39974 5.5395C4.23594 5.73497 4.07694 5.9387 3.9272 6.14497C3.86194 6.23477 3.76027 6.28244 3.6572 6.28244V6.28244ZM20.9739 5.0465C20.8868 5.0465 20.7999 5.01257 20.7345 4.9451C20.5573 4.76224 20.3712 4.5831 20.1813 4.4127C20.0443 4.2897 20.0329 4.07897 20.1559 3.94197C20.2789 3.80497 20.4897 3.79357 20.6267 3.91657C20.828 4.09724 21.0253 4.28724 21.2133 4.48124C21.3414 4.61344 21.3381 4.82444 21.2059 4.95257C21.1411 5.0153 21.0575 5.0465 20.9739 5.0465V5.0465ZM5.2412 4.52037C5.1502 4.52037 5.05954 4.4833 4.99374 4.41044C4.87034 4.27384 4.88114 4.06304 5.01774 3.93964C5.21814 3.75864 5.4276 3.58224 5.64027 3.41537C5.78514 3.30184 5.9946 3.3271 6.10827 3.4719C6.22187 3.6167 6.1966 3.82624 6.05174 3.9399C5.85114 4.0973 5.65354 4.26364 5.46454 4.43437C5.4008 4.49197 5.32087 4.52037 5.2412 4.52037ZM19.1568 3.5259C19.0927 3.5259 19.028 3.5075 18.9709 3.46904C18.7595 3.32657 18.5402 3.18984 18.3193 3.0625C18.1597 2.97057 18.105 2.76677 18.1969 2.60724C18.2889 2.4477 18.4925 2.39277 18.6522 2.4849C18.8865 2.61997 19.119 2.76504 19.3433 2.91604C19.496 3.01884 19.5364 3.22604 19.4336 3.3787C19.3693 3.4743 19.264 3.5259 19.1568 3.5259V3.5259ZM7.15447 3.1245C7.03954 3.1245 6.92774 3.06497 6.86587 2.95844C6.77347 2.79917 6.8276 2.59524 6.9868 2.50284C7.2206 2.3671 7.46194 2.2381 7.70427 2.1193C7.86954 2.03817 8.06927 2.1065 8.15034 2.27184C8.2314 2.4371 8.16307 2.63684 7.9978 2.7179C7.7694 2.8299 7.54187 2.9515 7.32147 3.07944C7.26887 3.10997 7.21127 3.1245 7.15447 3.1245V3.1245ZM17.0635 2.41524C17.0221 2.41524 16.98 2.40744 16.9392 2.39104C16.7023 2.2957 16.4592 2.2077 16.2166 2.12944C16.0414 2.0729 15.9452 1.88504 16.0017 1.7099C16.0581 1.53477 16.2463 1.43844 16.4213 1.49504C16.6787 1.5781 16.9366 1.67144 17.188 1.77257C17.3588 1.84124 17.4415 2.03544 17.3728 2.20624C17.3205 2.33624 17.1955 2.41524 17.0635 2.41524V2.41524ZM9.3156 2.15724C9.17527 2.15724 9.04474 2.0679 8.9988 1.92724C8.94174 1.75224 9.03727 1.56404 9.21227 1.5069C9.46934 1.42297 9.73267 1.34717 9.9948 1.28164C10.1732 1.23677 10.3543 1.3455 10.399 1.52417C10.4437 1.70277 10.3351 1.88377 10.1565 1.92837C9.90947 1.99017 9.6614 2.06157 9.41913 2.14064C9.3848 2.1519 9.34994 2.15724 9.3156 2.15724V2.15724ZM14.7845 1.76704C14.7655 1.76704 14.7464 1.76544 14.7271 1.76204C14.4764 1.71857 14.2206 1.68337 13.9669 1.6575C13.7838 1.63877 13.6505 1.47517 13.6691 1.29204C13.6879 1.1089 13.8515 0.975436 14.0346 0.994303C14.3037 1.02177 14.575 1.0591 14.8411 1.10524C15.0225 1.1367 15.144 1.30924 15.1125 1.49057C15.0844 1.65277 14.9436 1.76704 14.7845 1.76704ZM11.6317 1.66317C11.4633 1.66317 11.3187 1.53597 11.3007 1.36477C11.2813 1.1817 11.4141 1.01764 11.5972 0.998303C11.8653 0.970036 12.1385 0.950769 12.409 0.941036C12.5922 0.934103 12.7475 1.07817 12.7541 1.26217C12.7607 1.44617 12.6169 1.60064 12.4329 1.60724C12.1777 1.61644 11.9201 1.63464 11.6671 1.6613C11.6553 1.66257 11.6434 1.66317 11.6317 1.66317V1.66317Z" fill="#F9C861"/>
</g>
<defs>
<clipPath id="clip0_334_5277">
<rect width="24" height="24" fill="white" transform="translate(0.834961 0.599976)"/>
</clipPath>
</defs>
</svg>
