<svg width="25" height="25" viewBox="0 0 25 25" fill="none" xmlns="http://www.w3.org/2000/svg">
<g clip-path="url(#clip0_334_5282)">
<path d="M12.835 2.59998C7.31209 2.59998 2.83496 7.07711 2.83496 12.6C2.83496 18.1228 7.31209 22.6 12.835 22.6C18.3578 22.6 22.835 18.1228 22.835 12.6C22.835 7.07711 18.3578 2.59998 12.835 2.59998ZM5.61276 13.8153C5.61276 13.8153 5.66903 13.5255 5.84063 12.8166C5.97003 12.2736 6.16696 11.3761 7.54549 11.3761H12.9302C12.9302 11.3761 12.874 11.6659 12.7024 12.3748C12.573 12.9178 12.376 13.8152 10.9975 13.8152H5.61276V13.8153ZM19.8596 12.8025C19.4179 15.1826 18.3178 17.0056 16.4695 17.8637C15.634 18.2463 14.849 18.463 12.9978 18.463H7.75096L8.18563 16.0238L12.7995 16.0266C15.5734 16.0294 16.3134 14.8281 16.6735 13.7731C16.8086 13.3764 17.1208 12.1554 17.1321 11.4352C17.1518 10.0286 16.4625 9.17891 14.1246 9.17891L9.37849 9.17331L9.81456 6.73698H15.0727C19.6978 6.73698 20.5136 9.25771 19.8596 12.8025Z" fill="#F9C861"/>
<path d="M13.2361 24.2595C13.0573 24.2595 12.9095 24.1178 12.9032 23.9377C12.8968 23.7537 13.0407 23.5995 13.2247 23.593C13.4798 23.5841 13.7374 23.5663 13.9905 23.5399C14.1737 23.5202 14.3375 23.6537 14.3566 23.8368C14.3757 24.0199 14.2427 24.1838 14.0597 24.2029C13.7914 24.2309 13.5183 24.2498 13.2479 24.2593C13.244 24.2594 13.24 24.2595 13.2361 24.2595ZM11.6569 24.2059C11.6454 24.2059 11.6339 24.2053 11.6222 24.2041C11.3535 24.1763 11.0822 24.1387 10.816 24.0923C10.6347 24.0607 10.5132 23.8881 10.5449 23.7067C10.5765 23.5254 10.7493 23.4041 10.9305 23.4356C11.1815 23.4793 11.4373 23.5148 11.6907 23.541C11.8739 23.5599 12.0069 23.7237 11.988 23.9068C11.9703 24.0783 11.8255 24.2059 11.6569 24.2059ZM15.5817 23.9313C15.4322 23.9313 15.2963 23.8301 15.2585 23.6785C15.2139 23.4998 15.3227 23.3189 15.5014 23.2745C15.7489 23.2128 15.9972 23.1417 16.2391 23.063C16.4143 23.006 16.6022 23.1019 16.6591 23.2769C16.7161 23.452 16.6203 23.6401 16.4452 23.697C16.1884 23.7805 15.9251 23.856 15.6625 23.9213C15.6355 23.9281 15.6084 23.9313 15.5817 23.9313ZM9.33907 23.717C9.30507 23.717 9.27047 23.7118 9.23627 23.7007C8.9784 23.6172 8.72054 23.5235 8.4698 23.4222C8.29914 23.3533 8.21667 23.159 8.2856 22.9883C8.35454 22.8175 8.549 22.7351 8.71954 22.8041C8.95567 22.8995 9.19867 22.9877 9.44167 23.0665C9.6168 23.1232 9.7128 23.3111 9.65607 23.4863C9.6104 23.6273 9.47967 23.717 9.33907 23.717ZM17.8077 23.1203C17.6844 23.1203 17.5659 23.0517 17.5081 22.9334C17.4271 22.7681 17.4956 22.5684 17.661 22.4875C17.8899 22.3755 18.1177 22.2541 18.3378 22.1267C18.4973 22.0342 18.7011 22.0889 18.7933 22.2481C18.8855 22.4075 18.8311 22.6114 18.6718 22.7036C18.4383 22.8387 18.1967 22.9675 17.9539 23.0863C17.9068 23.1094 17.8569 23.1203 17.8077 23.1203ZM7.17294 22.7531C7.11634 22.7531 7.05907 22.7386 7.00647 22.7083C6.77234 22.573 6.54 22.4277 6.3158 22.2763C6.1632 22.1733 6.123 21.9661 6.226 21.8135C6.32894 21.661 6.53614 21.6207 6.68874 21.7237C6.90014 21.8665 7.11927 22.0035 7.34 22.131C7.4994 22.2231 7.55394 22.4269 7.46187 22.5864C7.40014 22.6933 7.28807 22.7531 7.17294 22.7531ZM19.8142 21.8634C19.7153 21.8634 19.6173 21.8195 19.5515 21.7355C19.4381 21.5905 19.4636 21.3811 19.6085 21.2675C19.8095 21.1103 20.0071 20.9441 20.1962 20.7738C20.3331 20.6505 20.5437 20.6614 20.667 20.7982C20.7903 20.935 20.7793 21.1457 20.6426 21.269C20.4421 21.4497 20.2325 21.6259 20.0195 21.7926C19.9585 21.8403 19.8861 21.8634 19.8142 21.8634ZM5.25634 21.3599C5.17687 21.3599 5.09714 21.3317 5.03347 21.2744C4.83287 21.0939 4.63574 20.9037 4.4476 20.7092C4.3196 20.5769 4.32314 20.3659 4.4554 20.2379C4.58774 20.1099 4.79874 20.1135 4.92674 20.2457C5.1042 20.4291 5.29014 20.6085 5.4794 20.7788C5.61627 20.902 5.62734 21.1127 5.5042 21.2496C5.4384 21.3227 5.34754 21.3599 5.25634 21.3599ZM21.5174 20.2175C21.4417 20.2175 21.3657 20.1919 21.3033 20.1395C21.1623 20.0211 21.1439 19.8108 21.2623 19.6699C21.4266 19.4741 21.5859 19.2707 21.7355 19.065C21.8439 18.9162 22.0524 18.8832 22.2011 18.9915C22.35 19.0999 22.3829 19.3083 22.2746 19.4571C22.1159 19.6753 21.9471 19.8911 21.7729 20.0985C21.7069 20.1771 21.6125 20.2175 21.5174 20.2175ZM3.67014 19.6011C3.56727 19.6011 3.46573 19.5536 3.40047 19.464C3.24147 19.2459 3.088 19.0191 2.9444 18.7903C2.84654 18.6343 2.89367 18.4286 3.0496 18.3307C3.20554 18.2328 3.4112 18.2799 3.50914 18.4359C3.6446 18.6518 3.78934 18.8656 3.93927 19.0714C4.04767 19.2201 4.01494 19.4286 3.8662 19.5371C3.80694 19.5803 3.7382 19.6011 3.67014 19.6011ZM22.8439 18.2541C22.7909 18.2541 22.7373 18.2415 22.6874 18.2149C22.5249 18.1284 22.4634 17.9265 22.5499 17.764C22.6698 17.5389 22.7833 17.3066 22.8871 17.0737C22.9621 16.9055 23.1591 16.8301 23.3273 16.905C23.4955 16.9799 23.571 17.177 23.496 17.3452C23.3859 17.5923 23.2655 17.8386 23.1383 18.0774C23.0783 18.19 22.9631 18.2541 22.8439 18.2541ZM2.483 17.5527C2.35554 17.5527 2.23387 17.4792 2.17847 17.3553C2.06814 17.1085 1.96534 16.8549 1.87293 16.6017C1.8098 16.4287 1.8988 16.2373 2.07174 16.1742C2.24454 16.1112 2.436 16.2001 2.49914 16.373C2.58627 16.6116 2.68314 16.8506 2.78714 17.0833C2.8622 17.2513 2.78687 17.4485 2.6188 17.5235C2.57467 17.5435 2.52847 17.5527 2.483 17.5527ZM23.7327 16.0564C23.7024 16.0564 23.6715 16.0522 23.6409 16.0435C23.4639 15.9929 23.3615 15.8085 23.412 15.6314C23.4821 15.3862 23.5443 15.1356 23.597 14.8866C23.635 14.7065 23.812 14.5911 23.9921 14.6295C24.1722 14.6675 24.2873 14.8445 24.2492 15.0245C24.1933 15.2888 24.1273 15.5546 24.053 15.8147C24.0112 15.961 23.8777 16.0564 23.7327 16.0564ZM1.7492 15.3016C1.59514 15.3016 1.4568 15.1943 1.42347 15.0375C1.36727 14.773 1.31973 14.5033 1.2822 14.2357C1.25667 14.0535 1.38367 13.8849 1.566 13.8593C1.74814 13.8335 1.9168 13.9608 1.9424 14.1431C1.97773 14.3953 2.02253 14.6496 2.07553 14.8989C2.1138 15.0789 1.99887 15.2559 1.8188 15.2943C1.79547 15.2992 1.77214 15.3016 1.7492 15.3016ZM24.1416 13.7233C24.1339 13.7233 24.1262 13.7231 24.1183 13.7225C23.9347 13.7099 23.7961 13.5507 23.8087 13.3671C23.8261 13.1135 23.835 12.8554 23.835 12.5997L23.8349 12.5741C23.8349 12.39 23.9841 12.2407 24.1683 12.2407C24.3524 12.2407 24.5016 12.39 24.5016 12.5741L24.5017 12.5972C24.5017 12.8706 24.4923 13.1442 24.4738 13.4129C24.4617 13.5887 24.3153 13.7233 24.1416 13.7233ZM1.50167 12.9459C1.3176 12.9459 1.16833 12.7967 1.16833 12.6126V12.6023C1.16833 12.3337 1.1774 12.0646 1.19533 11.7998C1.2078 11.6162 1.36713 11.4776 1.5504 11.4897C1.73407 11.5022 1.87287 11.6611 1.86047 11.8448C1.84354 12.0946 1.835 12.3487 1.835 12.5997V12.6125C1.835 12.7967 1.6858 12.9459 1.50167 12.9459ZM24.0555 11.3309C23.8921 11.3309 23.7494 11.2106 23.7259 11.0441C23.6903 10.792 23.6451 10.5378 23.5919 10.2886C23.5534 10.1085 23.6682 9.93139 23.8482 9.89293C24.0283 9.85446 24.2053 9.96919 24.2439 10.1493C24.3004 10.4137 24.3482 10.6834 24.3861 10.9509C24.4118 11.1331 24.2849 11.3018 24.1027 11.3275C24.0867 11.3298 24.071 11.3309 24.0555 11.3309ZM1.74453 10.5899C1.7218 10.5899 1.69873 10.5876 1.67567 10.5827C1.49547 10.5449 1.38013 10.3681 1.418 10.188C1.4736 9.92346 1.53933 9.65746 1.6134 9.39753C1.6638 9.22046 1.84827 9.11786 2.02533 9.16833C2.2024 9.21873 2.305 9.40319 2.25453 9.58026C2.18473 9.82526 2.1228 10.0759 2.0704 10.3252C2.0374 10.4821 1.89887 10.5899 1.74453 10.5899ZM23.4795 9.03353C23.3437 9.03353 23.216 8.94979 23.1666 8.81479C23.0791 8.57619 22.9819 8.33733 22.8777 8.10493C22.8024 7.93693 22.8775 7.73966 23.0455 7.66439C23.2135 7.58906 23.4108 7.66419 23.4861 7.83219C23.5967 8.07886 23.6997 8.33226 23.7925 8.58546C23.8559 8.75833 23.7671 8.94979 23.5942 9.01313C23.5563 9.02699 23.5176 9.03353 23.4795 9.03353ZM2.473 8.33519C2.4278 8.33519 2.3818 8.32593 2.33787 8.30639C2.1696 8.23159 2.09387 8.03466 2.1686 7.86639C2.27833 7.61953 2.3984 7.37299 2.52553 7.13373C2.61187 6.97119 2.81374 6.90926 2.97627 6.99573C3.13887 7.08206 3.20067 7.28386 3.11427 7.44646C2.99447 7.67206 2.88127 7.90446 2.77787 8.13713C2.7226 8.26139 2.60074 8.33519 2.473 8.33519ZM22.4367 6.90899C22.3259 6.90899 22.2175 6.85373 22.1542 6.75299C22.0189 6.53766 21.8739 6.32399 21.7235 6.11806C21.6149 5.96939 21.6474 5.76086 21.7961 5.65226C21.9447 5.54373 22.1532 5.57613 22.2618 5.72479C22.4214 5.94319 22.5751 6.16979 22.7187 6.39819C22.8167 6.55406 22.7697 6.75979 22.6138 6.85779C22.5587 6.89246 22.4974 6.90899 22.4367 6.90899ZM3.6572 6.28219C3.58927 6.28219 3.5208 6.26153 3.4616 6.21853C3.3126 6.11039 3.27954 5.90193 3.38774 5.75299C3.54654 5.53426 3.71507 5.31826 3.88874 5.11106C4.00694 4.96993 4.21727 4.95139 4.35834 5.06966C4.49947 5.18786 4.518 5.39813 4.39974 5.53926C4.23594 5.73472 4.07694 5.93846 3.9272 6.14473C3.86194 6.23446 3.76027 6.28219 3.6572 6.28219ZM20.9739 5.04626C20.8868 5.04626 20.7999 5.01233 20.7345 4.94486C20.5573 4.76199 20.3712 4.58286 20.1813 4.41246C20.0443 4.28946 20.0329 4.07873 20.1559 3.94173C20.2789 3.80473 20.4897 3.79333 20.6267 3.91633C20.828 4.09699 21.0253 4.28699 21.2133 4.48099C21.3414 4.61319 21.3381 4.82419 21.2059 4.95233C21.1411 5.01499 21.0575 5.04626 20.9739 5.04626ZM5.2412 4.52006C5.1502 4.52006 5.05954 4.48299 4.99374 4.41013C4.87034 4.27353 4.88114 4.06273 5.01774 3.93933C5.21814 3.75833 5.4276 3.58193 5.64027 3.41506C5.78514 3.30153 5.9946 3.32679 6.10827 3.47159C6.22187 3.61639 6.1966 3.82593 6.05174 3.93959C5.85114 4.09699 5.65354 4.26333 5.46454 4.43406C5.4008 4.49166 5.32087 4.52006 5.2412 4.52006ZM19.1568 3.52559C19.0927 3.52559 19.028 3.50719 18.9709 3.46873C18.7595 3.32626 18.5402 3.18953 18.3193 3.06219C18.1597 2.97026 18.105 2.76646 18.1969 2.60693C18.2889 2.44739 18.4925 2.39246 18.6522 2.48459C18.8865 2.61966 19.119 2.76473 19.3433 2.91573C19.496 3.01853 19.5364 3.22573 19.4336 3.37839C19.3693 3.47399 19.264 3.52559 19.1568 3.52559ZM7.15447 3.12426C7.03954 3.12426 6.92773 3.06473 6.86587 2.95819C6.77347 2.79893 6.8276 2.59499 6.9868 2.50259C7.2206 2.36686 7.46194 2.23786 7.70427 2.11906C7.86954 2.03793 8.06927 2.10626 8.15034 2.27159C8.2314 2.43686 8.16307 2.63659 7.9978 2.71766C7.7694 2.82966 7.54187 2.95126 7.32147 3.07919C7.26887 3.10966 7.21127 3.12426 7.15447 3.12426ZM17.0635 2.41493C17.0221 2.41493 16.98 2.40713 16.9392 2.39073C16.7023 2.29539 16.4592 2.20739 16.2166 2.12913C16.0414 2.07259 15.9452 1.88473 16.0017 1.70959C16.0581 1.53446 16.2463 1.43813 16.4213 1.49473C16.6787 1.57779 16.9366 1.67113 17.188 1.77226C17.3588 1.84093 17.4415 2.03513 17.3728 2.20593C17.3205 2.33593 17.1955 2.41493 17.0635 2.41493ZM9.3156 2.15693C9.17527 2.15693 9.04474 2.06759 8.9988 1.92693C8.94174 1.75193 9.03727 1.56373 9.21227 1.50659C9.46934 1.42266 9.73267 1.34686 9.9948 1.28133C10.1732 1.23646 10.3543 1.34519 10.399 1.52386C10.4437 1.70246 10.3351 1.88346 10.1565 1.92806C9.90947 1.98986 9.6614 2.06126 9.41914 2.14033C9.3848 2.15159 9.34994 2.15693 9.3156 2.15693ZM14.7845 1.76679C14.7655 1.76679 14.7464 1.76519 14.7271 1.76179C14.4764 1.71833 14.2206 1.68313 13.9669 1.65726C13.7838 1.63853 13.6505 1.47493 13.6691 1.29179C13.6879 1.10866 13.8515 0.975192 14.0346 0.994059C14.3037 1.02153 14.575 1.05886 14.8411 1.10499C15.0225 1.13646 15.144 1.30899 15.1125 1.49033C15.0844 1.65246 14.9436 1.76679 14.7845 1.76679ZM11.6317 1.66293C11.4633 1.66293 11.3187 1.53573 11.3007 1.36453C11.2813 1.18146 11.4141 1.01739 11.5972 0.998059C11.8653 0.969792 12.1385 0.950525 12.409 0.940792C12.5922 0.933859 12.7475 1.07793 12.7541 1.26193C12.7607 1.44593 12.6169 1.60039 12.4329 1.60699C12.1777 1.61619 11.9201 1.63439 11.6671 1.66106C11.6553 1.66226 11.6434 1.66293 11.6317 1.66293Z" fill="#F9C861"/>
</g>
<defs>
<clipPath id="clip0_334_5282">
<rect width="24" height="24" fill="white" transform="translate(0.834961 0.599976)"/>
</clipPath>
</defs>
</svg>
