<svg width="14" height="15" viewBox="0 0 14 15" fill="none" xmlns="http://www.w3.org/2000/svg">
<path d="M6.925 0.675007C3.10079 0.675007 0 3.7758 0 7.60001C0 11.4242 3.10079 14.525 6.925 14.525C10.7492 14.525 13.85 11.4242 13.85 7.60001C13.85 3.7758 10.7492 0.675007 6.925 0.675007ZM9.65327 9.72852L9.21118 10.3314C9.20156 10.3445 9.18945 10.3556 9.17553 10.364C9.16161 10.3724 9.14616 10.378 9.13008 10.3805C9.11399 10.3829 9.09758 10.3822 9.08179 10.3782C9.06599 10.3743 9.05113 10.3673 9.03805 10.3576L6.48137 8.49346C6.46544 8.48202 6.45249 8.46692 6.44362 8.44944C6.43474 8.43195 6.43019 8.41259 6.43036 8.39298V4.13751C6.43036 4.06949 6.486 4.01385 6.55402 4.01385H7.29753C7.36554 4.01385 7.42119 4.06949 7.42119 4.13751V7.96326L9.62544 9.55694C9.68109 9.59558 9.69345 9.67287 9.65327 9.72852Z" fill="#121212"/>
</svg>
