<svg width="106" height="20" viewBox="0 0 106 20" fill="none" xmlns="http://www.w3.org/2000/svg">
<path d="M6.925 2.67501C3.10079 2.67501 0 5.7758 0 9.60001C0 13.4242 3.10079 16.525 6.925 16.525C10.7492 16.525 13.85 13.4242 13.85 9.60001C13.85 5.7758 10.7492 2.67501 6.925 2.67501ZM9.65326 11.7285L9.21118 12.3314C9.20156 12.3445 9.18945 12.3556 9.17553 12.364C9.16161 12.3724 9.14616 12.378 9.13008 12.3805C9.11399 12.3829 9.09758 12.3822 9.08179 12.3782C9.06599 12.3743 9.05113 12.3673 9.03805 12.3576L6.48137 10.4935C6.46544 10.482 6.45249 10.4669 6.44362 10.4494C6.43474 10.432 6.43019 10.4126 6.43036 10.393V6.13751C6.43036 6.06949 6.486 6.01385 6.55402 6.01385H7.29753C7.36554 6.01385 7.42119 6.06949 7.42119 6.13751V9.96326L9.62544 11.5569C9.68109 11.5956 9.69345 11.6729 9.65326 11.7285Z" fill="#121212"/>
<path d="M22.6023 17.844C22.369 17.844 22.1636 17.8253 21.9863 17.788C21.809 17.76 21.6503 17.718 21.5103 17.662V16.402C21.6596 16.4393 21.8183 16.472 21.9863 16.5C22.1543 16.528 22.3316 16.542 22.5183 16.542C22.7516 16.542 22.971 16.4953 23.1763 16.402C23.391 16.3087 23.559 16.1407 23.6803 15.898C23.8016 15.6553 23.8623 15.3147 23.8623 14.876V5.10401H25.3743V14.806C25.3743 15.506 25.2576 16.08 25.0243 16.528C24.8003 16.9853 24.4783 17.3167 24.0583 17.522C23.6476 17.7367 23.1623 17.844 22.6023 17.844ZM34.2088 15.1L33.1448 12.216H29.2808L28.2168 15.1H26.6488L30.4428 5.06201H32.0108L35.7908 15.1H34.2088ZM31.7168 8.08601C31.6888 7.98334 31.6375 7.82934 31.5628 7.62401C31.4975 7.40934 31.4322 7.19467 31.3668 6.98001C31.3015 6.75601 31.2502 6.57401 31.2128 6.43401C31.1662 6.62067 31.1102 6.82601 31.0448 7.05001C30.9888 7.26467 30.9328 7.46534 30.8768 7.65201C30.8208 7.82934 30.7742 7.97401 30.7368 8.08601L29.7288 10.9H32.7248L31.7168 8.08601ZM45.343 15.1H43.509L38.455 7.02201H38.399C38.4083 7.20867 38.4177 7.40934 38.427 7.62401C38.4457 7.83867 38.4597 8.06734 38.469 8.31001C38.4783 8.54334 38.4877 8.78601 38.497 9.03801C38.5063 9.28067 38.511 9.52801 38.511 9.78001V15.1H37.139V5.10401H38.959L43.999 13.14H44.041C44.0317 13 44.0223 12.8273 44.013 12.622C44.0037 12.4073 43.9943 12.1787 43.985 11.936C43.985 11.6933 43.9803 11.446 43.971 11.194C43.9617 10.942 43.9523 10.704 43.943 10.48V5.10401H45.343V15.1ZM57.6789 15.1H50.9588V13.952L53.5348 11.334C54.0388 10.8207 54.4589 10.3773 54.7949 10.004C55.1309 9.62134 55.3828 9.25734 55.5509 8.91201C55.7189 8.55734 55.8029 8.17467 55.8029 7.76401C55.8029 7.25067 55.6535 6.86801 55.3549 6.61601C55.0562 6.35467 54.6688 6.22401 54.1928 6.22401C53.7355 6.22401 53.3249 6.31267 52.9609 6.49001C52.5968 6.65801 52.2188 6.89601 51.8268 7.20401L51.0288 6.21001C51.2995 5.97667 51.5888 5.76667 51.8968 5.58001C52.2142 5.39334 52.5642 5.24401 52.9468 5.13201C53.3388 5.02001 53.7682 4.96401 54.2348 4.96401C54.8695 4.96401 55.4155 5.07601 55.8729 5.30001C56.3302 5.51467 56.6802 5.82267 56.9229 6.22401C57.1749 6.62534 57.3009 7.09667 57.3009 7.63801C57.3009 8.03934 57.2402 8.41734 57.1189 8.77201C56.9975 9.11734 56.8202 9.45801 56.5869 9.79401C56.3629 10.13 56.0875 10.4707 55.7609 10.816C55.4342 11.1613 55.0748 11.5253 54.6828 11.908L52.8208 13.714V13.784H57.6789V15.1ZM65.6766 9.37401C65.6766 9.94334 65.6346 10.5127 65.5506 11.082C65.4666 11.642 65.3266 12.174 65.1306 12.678C64.9346 13.1727 64.6546 13.616 64.2906 14.008C63.9359 14.3907 63.4832 14.694 62.9326 14.918C62.3912 15.1327 61.7332 15.24 60.9586 15.24C60.7719 15.24 60.5526 15.2307 60.3006 15.212C60.0486 15.1933 59.8386 15.1607 59.6706 15.114V13.868C59.8479 13.924 60.0439 13.966 60.2586 13.994C60.4826 14.022 60.6972 14.036 60.9026 14.036C61.5466 14.036 62.0739 13.9427 62.4846 13.756C62.9046 13.56 63.2359 13.2893 63.4786 12.944C63.7306 12.5987 63.9126 12.1973 64.0246 11.74C64.1366 11.2827 64.2019 10.7973 64.2206 10.284H64.1366C63.9966 10.4987 63.8239 10.6947 63.6186 10.872C63.4132 11.0493 63.1612 11.1893 62.8626 11.292C62.5732 11.3947 62.2232 11.446 61.8126 11.446C61.2432 11.446 60.7392 11.3247 60.3006 11.082C59.8712 10.8393 59.5399 10.494 59.3066 10.046C59.0732 9.58867 58.9566 9.03334 58.9566 8.38001C58.9566 7.67067 59.0872 7.06401 59.3486 6.56001C59.6192 6.04667 59.9972 5.65467 60.4826 5.38401C60.9772 5.11334 61.5512 4.97801 62.2046 4.97801C62.6899 4.97801 63.1426 5.06667 63.5626 5.24401C63.9826 5.42134 64.3512 5.69201 64.6686 6.05601C64.9859 6.42001 65.2332 6.87734 65.4106 7.42801C65.5879 7.97867 65.6766 8.62734 65.6766 9.37401ZM62.2186 6.19601C61.6866 6.19601 61.2526 6.37334 60.9166 6.72801C60.5806 7.08267 60.4126 7.62401 60.4126 8.35201C60.4126 8.94934 60.5526 9.42067 60.8326 9.76601C61.1219 10.1113 61.5652 10.284 62.1626 10.284C62.5732 10.284 62.9279 10.2 63.2266 10.032C63.5252 9.85467 63.7586 9.64001 63.9266 9.38801C64.0946 9.12667 64.1786 8.85601 64.1786 8.57601C64.1786 8.29601 64.1366 8.01601 64.0526 7.73601C63.9686 7.45601 63.8472 7.19934 63.6886 6.96601C63.5299 6.73267 63.3246 6.54601 63.0726 6.40601C62.8299 6.26601 62.5452 6.19601 62.2186 6.19601ZM69.1523 13.63C69.0683 13.9567 68.961 14.3113 68.8303 14.694C68.6996 15.0767 68.5596 15.4547 68.4103 15.828C68.261 16.2107 68.107 16.57 67.9483 16.906H66.8703C66.9636 16.542 67.0523 16.1547 67.1363 15.744C67.2296 15.3427 67.3136 14.946 67.3883 14.554C67.463 14.162 67.5236 13.8027 67.5703 13.476H69.0543L69.1523 13.63ZM81.1671 15.1H74.4471V13.952L77.0231 11.334C77.5271 10.8207 77.9471 10.3773 78.2831 10.004C78.6191 9.62134 78.8711 9.25734 79.0391 8.91201C79.2071 8.55734 79.2911 8.17467 79.2911 7.76401C79.2911 7.25067 79.1418 6.86801 78.8431 6.61601C78.5445 6.35467 78.1571 6.22401 77.6811 6.22401C77.2238 6.22401 76.8131 6.31267 76.4491 6.49001C76.0851 6.65801 75.7071 6.89601 75.3151 7.20401L74.5171 6.21001C74.7878 5.97667 75.0771 5.76667 75.3851 5.58001C75.7025 5.39334 76.0525 5.24401 76.4351 5.13201C76.8271 5.02001 77.2565 4.96401 77.7231 4.96401C78.3578 4.96401 78.9038 5.07601 79.3611 5.30001C79.8185 5.51467 80.1685 5.82267 80.4111 6.22401C80.6631 6.62534 80.7891 7.09667 80.7891 7.63801C80.7891 8.03934 80.7285 8.41734 80.6071 8.77201C80.4858 9.11734 80.3085 9.45801 80.0751 9.79401C79.8511 10.13 79.5758 10.4707 79.2491 10.816C78.9225 11.1613 78.5631 11.5253 78.1711 11.908L76.3091 13.714V13.784H81.1671V15.1ZM89.1928 10.088C89.1928 10.9 89.1275 11.6233 88.9969 12.258C88.8755 12.8927 88.6795 13.434 88.4089 13.882C88.1475 14.3207 87.7975 14.6567 87.3589 14.89C86.9295 15.1233 86.4115 15.24 85.8049 15.24C85.0395 15.24 84.4095 15.0347 83.9148 14.624C83.4202 14.2133 83.0515 13.6253 82.8088 12.86C82.5662 12.0853 82.4448 11.1613 82.4448 10.088C82.4448 9.00534 82.5522 8.08134 82.7668 7.31601C82.9908 6.55067 83.3502 5.96734 83.8449 5.56601C84.3395 5.15534 84.9929 4.95001 85.8049 4.95001C86.5702 4.95001 87.2002 5.15534 87.6949 5.56601C88.1989 5.96734 88.5722 6.55067 88.8148 7.31601C89.0668 8.08134 89.1928 9.00534 89.1928 10.088ZM83.9288 10.088C83.9288 10.956 83.9895 11.6793 84.1108 12.258C84.2322 12.8367 84.4282 13.2707 84.6989 13.56C84.9789 13.8493 85.3475 13.994 85.8049 13.994C86.2622 13.994 86.6262 13.854 86.8968 13.574C87.1768 13.2847 87.3775 12.8507 87.4989 12.272C87.6295 11.684 87.6949 10.956 87.6949 10.088C87.6949 9.22001 87.6295 8.50134 87.4989 7.93201C87.3775 7.35334 87.1768 6.91934 86.8968 6.63001C86.6262 6.34067 86.2622 6.19601 85.8049 6.19601C85.3475 6.19601 84.9789 6.34067 84.6989 6.63001C84.4282 6.91934 84.2322 7.35334 84.1108 7.93201C83.9895 8.50134 83.9288 9.22001 83.9288 10.088ZM97.1906 15.1H90.4706V13.952L93.0466 11.334C93.5506 10.8207 93.9706 10.3773 94.3066 10.004C94.6426 9.62134 94.8946 9.25734 95.0626 8.91201C95.2306 8.55734 95.3146 8.17467 95.3146 7.76401C95.3146 7.25067 95.1652 6.86801 94.8666 6.61601C94.5679 6.35467 94.1806 6.22401 93.7046 6.22401C93.2472 6.22401 92.8366 6.31267 92.4726 6.49001C92.1086 6.65801 91.7306 6.89601 91.3386 7.20401L90.5406 6.21001C90.8112 5.97667 91.1006 5.76667 91.4086 5.58001C91.7259 5.39334 92.0759 5.24401 92.4586 5.13201C92.8506 5.02001 93.2799 4.96401 93.7466 4.96401C94.3812 4.96401 94.9272 5.07601 95.3846 5.30001C95.8419 5.51467 96.1919 5.82267 96.4346 6.22401C96.6866 6.62534 96.8126 7.09667 96.8126 7.63801C96.8126 8.03934 96.7519 8.41734 96.6306 8.77201C96.5092 9.11734 96.3319 9.45801 96.0986 9.79401C95.8746 10.13 95.5992 10.4707 95.2726 10.816C94.9459 11.1613 94.5866 11.5253 94.1946 11.908L92.3326 13.714V13.784H97.1906V15.1ZM103.046 15.1H101.576V8.46401C101.576 8.23067 101.576 8.01601 101.576 7.82001C101.586 7.61467 101.595 7.41867 101.604 7.23201C101.614 7.03601 101.623 6.84934 101.632 6.67201C101.511 6.79334 101.385 6.91001 101.254 7.02201C101.124 7.13401 100.974 7.26467 100.806 7.41401L99.7143 8.29601L98.9583 7.34401L101.814 5.10401H103.046V15.1Z" fill="#121212"/>
</svg>
