<svg width="15" height="13" viewBox="0 0 15 13" fill="none" xmlns="http://www.w3.org/2000/svg">
<path fill-rule="evenodd" clip-rule="evenodd" d="M13.5299 1.18204C12.8342 0.475527 11.875 0.0864258 10.8288 0.0864258C8.99986 0.0864258 8.05422 1.03028 7.58298 1.82205C7.57711 1.83187 7.5713 1.84171 7.56557 1.85153C7.55985 1.84171 7.55403 1.83187 7.54816 1.82205C7.07692 1.03028 6.13128 0.0864258 4.30231 0.0864258C3.25616 0.0864258 2.29695 0.47553 1.60129 1.18207C0.871652 1.92314 0.485962 2.93757 0.485962 4.11569C0.485962 6.61739 2.70328 8.27608 4.6596 9.7395C5.6344 10.4687 6.5552 11.1574 7.1347 11.8795C7.23968 12.0103 7.39812 12.0864 7.56557 12.0864C7.73302 12.0864 7.89144 12.0104 7.99644 11.8796C8.2945 11.5081 8.70882 11.1132 9.30041 10.6367C9.53854 10.4448 9.57651 10.0957 9.38523 9.85681C9.19397 9.61801 8.84585 9.57985 8.60768 9.7717C8.19032 10.1079 7.84897 10.412 7.56582 10.7009C6.9406 10.0617 6.1492 9.46972 5.32097 8.85019C3.48774 7.47886 1.59215 6.06082 1.59215 4.11569C1.59215 2.39653 2.70661 1.19586 4.30231 1.19586C5.33989 1.19586 6.10602 1.58733 6.57938 2.35941C6.95521 2.97228 7.0137 3.61023 7.01408 3.61417C7.03626 3.90314 7.27649 4.1275 7.56545 4.1275C7.85447 4.1275 8.09463 3.90559 8.11681 3.61661C8.1174 3.61023 8.17581 2.97228 8.55163 2.35941C9.02506 1.58733 9.79125 1.19586 10.8288 1.19586C12.4245 1.19586 13.539 2.39653 13.539 4.11569C13.539 5.72542 12.2322 6.97347 10.8201 8.08237C10.5796 8.27122 10.5373 8.6199 10.7256 8.86111C10.9139 9.1023 11.2615 9.14475 11.502 8.95587C12.1738 8.42837 13.0252 7.71554 13.6515 6.87845C14.3201 5.98472 14.6452 5.081 14.6452 4.11569C14.6452 2.93757 14.2595 1.92313 13.5299 1.18204Z" fill="#121212"/>
</svg>
