<svg width="29" height="31" viewBox="0 0 29 31" fill="none" xmlns="http://www.w3.org/2000/svg">
<path fill-rule="evenodd" clip-rule="evenodd" d="M13.875 1.86035C14.9105 1.86035 15.75 2.69981 15.75 3.73535V11.2354C15.75 12.2709 14.9105 13.1104 13.875 13.1104C12.8395 13.1104 12 12.2709 12 11.2354V3.73535C12 2.69981 12.8395 1.86035 13.875 1.86035Z" fill="#5CC183"/>
<path fill-rule="evenodd" clip-rule="evenodd" d="M13.875 18.3604C14.9105 18.3604 15.75 19.1998 15.75 20.2354V27.7354C15.75 28.771 14.9105 29.6104 13.875 29.6104C12.8395 29.6104 12 28.771 12 27.7354V20.2354C12 19.1998 12.8395 18.3604 13.875 18.3604Z" fill="#5CC183"/>
<path fill-rule="evenodd" clip-rule="evenodd" d="M0 14.9854C0 13.9498 0.839466 13.1104 1.875 13.1104H9.375C10.4105 13.1104 11.25 13.9498 11.25 14.9854C11.25 16.021 10.4105 16.8604 9.375 16.8604H1.875C0.839466 16.8604 0 16.021 0 14.9854Z" fill="#5CC183"/>
<path fill-rule="evenodd" clip-rule="evenodd" d="M16.5 14.9854C16.5 13.9498 17.3394 13.1104 18.375 13.1104H25.875C26.9106 13.1104 27.75 13.9498 27.75 14.9854C27.75 16.021 26.9106 16.8604 25.875 16.8604H18.375C17.3394 16.8604 16.5 16.021 16.5 14.9854Z" fill="#5CC183"/>
</svg>
