<svg width="24" height="25" viewBox="0 0 24 25" fill="none" xmlns="http://www.w3.org/2000/svg">
<path fill-rule="evenodd" clip-rule="evenodd" d="M11.0198 19.4438H13.0589V17.4048H11.0198V19.4438ZM13.321 19.9678H10.7578C10.6132 19.9678 10.4957 19.8505 10.4957 19.7058L10.4958 17.1428C10.4958 16.9981 10.6131 16.8809 10.7577 16.8809H13.321C13.4655 16.8809 13.5829 16.9982 13.5829 17.1428L13.583 19.7057C13.583 19.8505 13.4655 19.9678 13.321 19.9678Z" fill="#FFC431"/>
<path fill-rule="evenodd" clip-rule="evenodd" d="M11.0149 15.4183H12.8209C12.8265 14.8069 12.8935 14.3734 13.0251 14.0977C13.173 13.788 13.5256 13.4036 14.1025 12.9224C15.1199 12.0778 15.7913 11.4047 16.0986 10.9216C16.3896 10.4595 16.5369 9.967 16.5369 9.4584C16.5369 8.50657 16.139 7.69166 15.3208 6.96702C14.501 6.24403 13.3777 5.8775 11.9815 5.8775C10.6371 5.87745 9.5842 6.22895 8.76326 6.95191C8.01559 7.61313 7.5952 8.38376 7.48495 9.30126L9.35287 9.53376C9.54003 8.83385 9.85329 8.29375 10.2861 7.92588C10.7735 7.51438 11.3805 7.30611 12.0906 7.30611C12.8287 7.30611 13.4284 7.50755 13.8749 7.90492C14.3301 8.31388 14.5605 8.81121 14.5605 9.38361C14.5605 9.80259 14.4278 10.1875 14.1669 10.5273C14.0698 10.6559 13.8192 10.9265 12.7849 11.7669C12.0639 12.356 11.5825 12.8809 11.3554 13.3268C11.1263 13.7734 11.0104 14.3588 11.0104 15.067C11.0105 15.1177 11.0121 15.2335 11.0149 15.4183ZM13.0841 15.9424H10.7578C10.6148 15.9424 10.4985 15.8281 10.4957 15.6853C10.4892 15.3389 10.4865 15.1424 10.4865 15.067C10.4866 14.2747 10.6218 13.6091 10.8887 13.0882C11.1529 12.5706 11.6649 12.0054 12.4541 11.3606C13.3673 10.6185 13.6626 10.3253 13.7499 10.2099C13.9432 9.95831 14.0365 9.68867 14.0365 9.38361C14.0365 8.96024 13.8695 8.60439 13.5256 8.29546C13.1741 7.98255 12.7047 7.83009 12.0906 7.83009C11.4995 7.83001 11.0197 7.9922 10.6245 8.32575C10.2354 8.65665 9.96027 9.17931 9.80853 9.87835C9.77963 10.0108 9.65461 10.0994 9.52032 10.0827L7.16893 9.78995C7.03201 9.77288 6.93148 9.65222 6.93968 9.51427C7.00902 8.35833 7.50623 7.36405 8.41665 6.55895C9.325 5.75892 10.5241 5.35352 11.9815 5.35352C13.5093 5.35342 14.7493 5.76428 15.6674 6.57435C16.5927 7.39306 17.0609 8.3633 17.0609 9.4584C17.061 10.0673 16.8862 10.6538 16.5413 11.2018C16.204 11.732 15.4966 12.4461 14.4377 13.3253C13.8018 13.8554 13.5758 14.1607 13.4978 14.3234C13.4208 14.4855 13.3313 14.8518 13.346 15.6758C13.3472 15.746 13.3204 15.8139 13.2707 15.8641C13.2217 15.9141 13.1544 15.9424 13.0841 15.9424Z" fill="#FFC431"/>
<path fill-rule="evenodd" clip-rule="evenodd" d="M12 2.77598C6.54992 2.77598 2.11616 7.20996 2.11616 12.66C2.11621 18.11 6.54988 22.544 12 22.544C17.4501 22.544 21.8843 18.1101 21.8843 12.66C21.8843 7.20994 17.45 2.77603 12 2.77598ZM12 23.0679C6.26119 23.0679 1.59216 18.3989 1.59216 12.66C1.59218 6.92092 6.26115 2.25195 12 2.25195C17.7393 2.25191 22.4083 6.92095 22.4083 12.66C22.4083 18.3989 17.7393 23.068 12 23.0679Z" fill="#FFC431"/>
<path fill-rule="evenodd" clip-rule="evenodd" d="M12 1.18417C5.67232 1.18417 0.523997 6.33229 0.523997 12.6602C0.524107 18.988 5.67221 24.1363 12 24.1363C18.3283 24.1361 23.4765 18.9881 23.4765 12.6602C23.4765 6.33228 18.3283 1.18417 12 1.18417ZM12 24.6602C8.79489 24.6602 5.78137 23.412 3.51509 21.1455C1.24832 18.8788 0 15.8655 0 12.6602C6.27147e-05 9.45484 1.24832 6.4414 3.51509 4.17489C5.78137 1.90838 8.79487 0.660156 12 0.660156C15.2056 0.660125 18.2191 1.9084 20.4854 4.17489C22.7522 6.44132 24.0005 9.45484 24.0005 12.6602C24.0006 15.8654 22.7522 18.8789 20.4854 21.1455C18.2191 23.4119 15.2056 24.6602 12 24.6602Z" fill="#FFC431"/>
<path fill-rule="evenodd" clip-rule="evenodd" d="M13.8748 7.90438C14.33 8.31334 14.5604 8.81067 14.5604 9.38306C14.5604 9.80204 14.4278 10.1869 14.1668 10.5268C14.0697 10.6553 13.8191 10.9259 12.7848 11.7664C12.0638 12.3554 11.5824 12.8804 11.3553 13.3262C11.1262 13.7729 11.0103 14.3582 11.0103 15.0664C11.0104 15.1172 11.012 15.233 11.0148 15.4178H12.8208C12.8264 14.8063 12.8934 14.3728 13.025 14.0972C13.1729 13.7875 13.5255 13.4031 14.1024 12.9219C15.1199 12.0772 15.7912 11.4042 16.0985 10.921C16.3895 10.459 16.5368 9.96645 16.5368 9.45785C16.5368 8.50603 16.1389 7.69112 15.3207 6.96648C14.5009 6.24349 13.3776 5.87695 11.9814 5.87695C10.637 5.87691 9.58411 6.22841 8.76318 6.95137C8.01551 7.61258 7.59512 8.38322 7.48486 9.30072L9.35279 9.53322C9.53995 8.83331 9.85321 8.29321 10.286 7.92534C10.7734 7.51384 11.3804 7.30556 12.0905 7.30556C12.8286 7.30556 13.4283 7.507 13.8748 7.90438Z" fill="#FFC431"/>
<path fill-rule="evenodd" clip-rule="evenodd" d="M13.0589 17.4043H11.0198V19.4433H13.0589V17.4043Z" fill="#FFC431"/>
<path fill-rule="evenodd" clip-rule="evenodd" d="M22.4082 12.6596C22.4083 18.3986 17.7392 23.0676 11.9999 23.0676C6.26113 23.0676 1.5921 18.3986 1.5921 12.6596C1.59211 6.92057 6.26108 2.25161 11.9999 2.25161C17.7392 2.25156 22.4082 6.92061 22.4082 12.6596ZM11.9999 1.18359C5.67225 1.18359 0.523926 6.33172 0.523926 12.6596C0.524036 18.9875 5.67214 24.1357 11.9999 24.1357C18.3282 24.1356 23.4764 18.9875 23.4764 12.6596C23.4765 6.3317 18.3282 1.18359 11.9999 1.18359Z" fill="#FFC431"/>
</svg>
