<svg width="26" height="26" viewBox="0 0 26 26" fill="none" xmlns="http://www.w3.org/2000/svg">
<path d="M11.0595 20.9159C13.2943 20.916 15.4653 20.1704 17.2285 18.7971L23.8803 25.4489C24.3772 25.9288 25.169 25.915 25.6489 25.4181C26.117 24.9334 26.117 24.1649 25.6489 23.6802L18.9971 17.0284C22.4048 12.6418 21.6113 6.32321 17.2246 2.9155C12.838 -0.492216 6.51944 0.301323 3.11173 4.68797C-0.295988 9.07462 0.49755 15.3932 4.8842 18.8009C6.65023 20.1728 8.82313 20.9171 11.0595 20.9159ZM5.7148 5.51472C8.66661 2.56286 13.4524 2.5628 16.4043 5.51461C19.3562 8.46643 19.3562 13.2523 16.4044 16.2041C13.4526 19.156 8.66677 19.156 5.71491 16.2042C5.71485 16.2042 5.71485 16.2042 5.7148 16.2041C2.76299 13.2738 2.74559 8.50543 5.6759 5.55362C5.68885 5.54062 5.7018 5.52767 5.7148 5.51472Z" fill="#121212"/>
</svg>
