<svg width="32" height="33" viewBox="0 0 32 33" fill="none" xmlns="http://www.w3.org/2000/svg">
<g clip-path="url(#clip0_139_14649)">
<path d="M32 11.0349H31.9998V11.0348H29.9129H23.652V8.94791H21.5651V6.16529H19.4781V2.68704H17.3912V0.600098H14.6086V2.68704H12.5217V6.16529H10.4347V8.94791H8.34775V11.0349H2.08694V11.0348H0V16.6H0.0001875H2.08694V18.687H4.17387V30.513V31.2086V32.5999H9.73906V31.2086V30.513V30.513H13.2173V28.4261V28.426H18.7825V28.4261V30.513H22.2607V30.513V32.5999H27.8259V31.2086V30.513V18.687H29.9129V16.6001H32V11.0349Z" fill="#FFD670"/>
<path d="M8.34775 11.0348H0V13.1218V16.6H2.08694V13.1218H8.34775V11.0348H10.4347V8.94788H8.34775V11.0348Z" fill="black"/>
<path d="M4.17385 16.5999H2.08691V18.6868H4.17385V16.5999Z" fill="black"/>
<path d="M14.6086 2.68701H12.5217V6.16526H14.6086V2.68701Z" fill="black"/>
<path d="M12.5216 6.16528H10.4347V8.94785H12.5216V6.16528Z" fill="black"/>
<path d="M19.4781 2.68701H17.3912V6.16526H19.4781V2.68701Z" fill="black"/>
<path d="M21.5651 6.16528H19.4781V8.94785H21.5651V6.16528Z" fill="black"/>
<path d="M13.2173 28.426H9.73907V30.513H13.2173V28.426Z" fill="black"/>
<path d="M4.17389 31.2086V32.5999H9.73908V30.513H6.26083V18.687H4.17389V30.513V31.2086Z" fill="black"/>
<path d="M29.9129 16.5999H27.8259V18.6868H29.9129V16.5999Z" fill="black"/>
<path d="M25.7389 30.513H22.2607V32.5999H27.8259V31.2086V30.513V18.687H25.7389V30.513Z" fill="black"/>
<path d="M23.652 11.0348V8.94788H21.5651V11.0348H23.652V13.1218H29.9129V16.6H31.9998V13.1218V11.0348H23.652Z" fill="black"/>
<path d="M22.2607 28.426H18.7825V30.513H22.2607V28.426Z" fill="black"/>
<path d="M17.3912 0.600098H14.6086V2.68704H17.3912V0.600098Z" fill="black"/>
<path d="M18.7825 26.339H13.2173V28.4259H18.7825V26.339Z" fill="black"/>
</g>
<defs>
<clipPath id="clip0_139_14649">
<rect width="32" height="32" fill="white" transform="translate(0 0.599976)"/>
</clipPath>
</defs>
</svg>
