<svg width="32" height="33" viewBox="0 0 32 33" fill="none" xmlns="http://www.w3.org/2000/svg">
<g clip-path="url(#clip0_139_14667)">
<path d="M6.95647 0.599976V6.86085H4.86953V13.1217H2.78259V21.4695H8.34778V32.6H12.5217V30.513H14.6087V29.8174V28.426H16.6956V26.3391H18.7826V24.2522H20.8695V22.1652H22.9565V20.0782H25.0435V15.2087H18.7826V13.1217H20.8695V11.0348H22.9565V8.94779H25.0435V6.86085H27.1304V4.77391H29.2173V0.599976H6.95647Z" fill="#FFD670"/>
<path d="M12.5217 30.513H10.4348V21.4695V19.3826H4.86953V13.1217H2.78259V21.4695H4.17391H4.86953H8.34778V30.513V32.6H10.4348H12.5217V30.513H14.6087V28.426H12.5217V30.513Z" fill="black"/>
<path d="M16.6956 26.3391H14.6086V28.4261H16.6956V26.3391Z" fill="black"/>
<path d="M18.7826 24.2522H16.6957V26.3391H18.7826V24.2522Z" fill="black"/>
<path d="M20.8695 22.1652H18.7826V24.2521H20.8695V22.1652Z" fill="black"/>
<path d="M22.9564 20.0782H20.8695V22.1652H22.9564V20.0782Z" fill="black"/>
<path d="M18.7826 13.1217H16.6956V15.2087H14.6086V17.2956H16.6956H18.7826H22.9565V20.0782H25.0435V17.2956V15.2087H22.9565H18.7826V13.1217H20.8695V11.0348H18.7826V13.1217Z" fill="black"/>
<path d="M22.9564 8.94775H20.8695V11.0347H22.9564V8.94775Z" fill="black"/>
<path d="M6.95644 6.86084H4.86951V13.1217H6.95644V6.86084Z" fill="black"/>
<path d="M25.0435 6.86084H22.9565V8.94778H25.0435V6.86084Z" fill="black"/>
<path d="M27.1304 4.77393H25.0435V6.86086H27.1304V4.77393Z" fill="black"/>
<path d="M27.1305 0.599976H9.04354H6.95654V6.86085H9.04354V2.68691H27.1305V4.77391H29.2174V2.68691V0.599976H27.1305Z" fill="black"/>
</g>
<defs>
<clipPath id="clip0_139_14667">
<rect width="32" height="32" fill="white" transform="translate(0 0.599976)"/>
</clipPath>
</defs>
</svg>
