<svg width="23" height="24" viewBox="0 0 23 24" fill="none" xmlns="http://www.w3.org/2000/svg">
<path fill-rule="evenodd" clip-rule="evenodd" d="M11.0629 0.532579C8.81028 0.668181 6.71114 1.42697 4.93478 2.74778C4.03379 3.41769 3.1212 4.34369 2.47861 5.24005C0.795821 7.58738 0.0754202 10.4328 0.440222 13.2914C0.71173 15.4188 1.57032 17.3859 2.96988 19.0869C3.29327 19.48 4.0364 20.2228 4.43489 20.5514C6.91638 22.5974 10.0344 23.4946 13.19 23.0705C15.5867 22.7485 17.8115 21.6675 19.5485 19.9811C20.4948 19.0624 21.2074 18.0896 21.7983 16.9097C22.2919 15.9241 22.6042 15.0097 22.8049 13.9619C23.1148 12.3443 23.0546 10.5305 22.6403 9.00252L22.5995 8.85224L21.5625 8.84622C20.5817 8.84051 20.526 8.84241 20.5374 8.88091C20.8355 9.8894 20.9341 10.396 20.9954 11.2336C21.0243 11.629 21.0119 12.3861 20.97 12.7827C20.7421 14.9429 19.8092 16.9055 18.2815 18.4389C15.6349 21.0952 11.6737 21.909 8.19589 20.5109C5.41316 19.3922 3.31336 16.9723 2.60344 14.0659C2.41125 13.2792 2.348 12.7294 2.348 11.8463C2.348 11.1389 2.37227 10.8317 2.47588 10.2281C2.58219 9.60879 2.82706 8.78033 3.07395 8.20486C4.73916 4.32325 8.74009 2.03948 12.9126 2.58885C13.4464 2.65913 13.8606 2.75397 14.6411 2.98467C14.6796 2.99605 14.6815 2.94044 14.6758 1.96069L14.6697 0.924656L14.531 0.883132C14.215 0.788592 13.4654 0.649707 12.9357 0.587583C12.4349 0.528833 11.5547 0.502985 11.0629 0.532579ZM18.4038 2.45919V3.54562L17.3229 3.55163L16.242 3.55764L16.2359 4.33796L16.2298 5.11828H17.3168H18.4038V6.20494V7.2916H19.1783H19.9529V6.20494V5.11828H21.0395H22.1262V4.33218V3.54608H21.0395H19.9529V2.45942V1.37275H19.1783H18.4038V2.45919ZM13.6293 7.9171C12.3701 8.04741 11.558 8.62707 11.3706 9.52934C11.2158 10.2744 11.5428 11.0053 12.2363 11.4643C12.3094 11.5127 12.3692 11.56 12.3692 11.5695C12.3692 11.5789 12.3127 11.6096 12.2437 11.6376C11.7915 11.8211 11.2943 12.317 11.0877 12.7906C11.003 12.9847 10.9364 13.3168 10.9362 13.5457C10.9357 14.1908 11.2081 14.7358 11.7283 15.1307C12.3043 15.5679 13.0796 15.7817 14.0917 15.7824C15.1332 15.783 15.9149 15.5595 16.5062 15.0919C16.8149 14.8478 17.0277 14.543 17.1579 14.1584C17.2246 13.961 17.2332 13.9047 17.2424 13.6035C17.2511 13.3189 17.2453 13.2375 17.2041 13.0648C17.0577 12.4511 16.6181 11.9181 16.028 11.6386C15.9613 11.607 15.9067 11.5758 15.9068 11.5692C15.9068 11.5627 15.9561 11.5262 16.0163 11.4881C16.1741 11.3884 16.4295 11.1404 16.5365 10.9827C16.758 10.6566 16.84 10.3805 16.8398 9.96202C16.8396 9.59852 16.8013 9.42137 16.6595 9.12968C16.2904 8.37043 15.424 7.93757 14.209 7.90541C14.0046 7.9 13.7438 7.90527 13.6293 7.9171ZM6.08581 8.76553L6.09189 9.54585L6.80286 9.55196L7.51383 9.55808V12.6328V15.7075H8.49646H9.4791V11.8463V7.98522H7.77942H6.07971L6.08581 8.76553ZM14.4319 9.22089C14.8734 9.29962 15.1214 9.52495 15.1927 9.91217C15.2264 10.0951 15.197 10.3327 15.1227 10.4776C14.9862 10.744 14.6729 10.9049 14.2305 10.936C13.6794 10.9748 13.2555 10.8073 13.0736 10.4789C13.0083 10.3609 13.005 10.342 13.005 10.0776C13.005 9.78399 13.0247 9.71595 13.1636 9.52798C13.3606 9.26163 13.9118 9.12816 14.4319 9.22089ZM14.6235 12.4113C14.8299 12.4666 15.0353 12.5748 15.1556 12.6917C15.4311 12.9595 15.4952 13.4415 15.3063 13.8251C15.1931 14.0552 14.9659 14.2195 14.6332 14.3119C14.4201 14.3711 13.784 14.3721 13.5715 14.3135C13.3275 14.2462 13.1853 14.1689 13.0424 14.0261C12.8505 13.8342 12.7992 13.6938 12.7992 13.3607C12.7992 13.1519 12.8084 13.0831 12.8509 12.9758C12.9725 12.6684 13.2783 12.4574 13.7157 12.3792C13.8945 12.3472 14.4584 12.3672 14.6235 12.4113Z" fill="#EB5757"/>
</svg>
