<svg width="47" height="14" viewBox="0 0 47 14" fill="none" xmlns="http://www.w3.org/2000/svg">
<path d="M1.31519 6.30824L42.6848 6.30825L38.3901 2.37729C38.1893 2.19317 38.0927 1.9558 38.1215 1.7174C38.1504 1.47899 38.3023 1.25908 38.5439 1.10605C38.7855 0.953012 39.097 0.879386 39.4099 0.901367C39.7227 0.923348 40.0113 1.03913 40.2121 1.22325L46.1277 6.63282C46.1675 6.67585 46.2031 6.72105 46.2342 6.76806C46.2342 6.81314 46.2342 6.84019 46.317 6.88527C46.3706 6.98864 46.3987 7.09868 46.3998 7.20984C46.3987 7.321 46.3706 7.43104 46.317 7.53441C46.317 7.57949 46.317 7.60654 46.2342 7.65162C46.2031 7.69863 46.1675 7.74383 46.1277 7.78686L40.2121 13.1964C40.1009 13.2982 39.9616 13.38 39.8041 13.4361C39.6467 13.4922 39.4749 13.5212 39.3011 13.521C39.0247 13.5214 38.7568 13.448 38.5439 13.3136C38.4241 13.2379 38.3251 13.145 38.2525 13.0401C38.1799 12.9352 38.1352 12.8204 38.1209 12.7023C38.1066 12.5842 38.1231 12.4652 38.1693 12.3519C38.2155 12.2387 38.2905 12.1335 38.3901 12.0424L42.6848 8.11143L1.31519 8.11143C1.0014 8.11143 0.700469 8.01644 0.478591 7.84736C0.256713 7.67827 0.132064 7.44895 0.132064 7.20983C0.132064 6.97072 0.256713 6.74139 0.478592 6.57231C0.70047 6.40323 1.0014 6.30824 1.31519 6.30824Z" fill="#D3D9DD"/>
</svg>
