<svg width="18" height="13" viewBox="0 0 18 13" fill="none" xmlns="http://www.w3.org/2000/svg">
<path d="M16.2306 5.30631L3.62934 5.30631L7.48622 1.5695C7.66656 1.39448 7.75333 1.16883 7.72743 0.942196C7.70152 0.715566 7.56507 0.506517 7.34809 0.36104C7.13111 0.215563 6.85138 0.145573 6.57042 0.166468C6.28947 0.187364 6.03031 0.297432 5.84997 0.472459L0.537466 5.61485C0.501724 5.65576 0.469763 5.69873 0.441841 5.74341C0.441841 5.78627 0.441841 5.81198 0.367466 5.85483C0.319307 5.9531 0.294091 6.05771 0.293091 6.16338C0.294091 6.26904 0.319307 6.37365 0.367466 6.47192C0.367466 6.51477 0.367466 6.54049 0.441841 6.58334C0.469763 6.62803 0.501724 6.671 0.537466 6.7119L5.84997 11.8543C5.94987 11.951 6.07496 12.0288 6.21637 12.0822C6.35777 12.1355 6.512 12.163 6.66809 12.1628C6.91635 12.1632 7.15694 12.0935 7.34809 11.9657C7.45568 11.8938 7.54461 11.8054 7.6098 11.7057C7.67498 11.606 7.71514 11.4969 7.72797 11.3846C7.74081 11.2723 7.72606 11.1591 7.68457 11.0515C7.64309 10.9438 7.57568 10.8439 7.48622 10.7573L3.62934 7.02044L16.2306 7.02044C16.5124 7.02044 16.7826 6.93014 16.9819 6.76941C17.1811 6.60868 17.2931 6.39068 17.2931 6.16337C17.2931 5.93607 17.1811 5.71807 16.9819 5.55734C16.7826 5.39661 16.5124 5.30631 16.2306 5.30631Z" fill="#061423"/>
</svg>
