<svg width="12" height="9" viewBox="0 0 12 9" fill="none" xmlns="http://www.w3.org/2000/svg">
<path d="M1.27447 4.95579L9.42822 4.95579L6.9326 7.44699C6.8159 7.56368 6.75976 7.71411 6.77652 7.8652C6.79328 8.01628 6.88158 8.15565 7.02198 8.25263C7.16237 8.34962 7.34338 8.39628 7.52517 8.38235C7.70697 8.36842 7.87466 8.29504 7.99135 8.17835L11.4288 4.75009C11.452 4.72282 11.4727 4.69417 11.4907 4.66438C11.4907 4.63581 11.4907 4.61867 11.5388 4.5901C11.57 4.52459 11.5863 4.45485 11.587 4.38441C11.5863 4.31396 11.57 4.24423 11.5388 4.17871C11.5388 4.15014 11.5388 4.133 11.4907 4.10443C11.4727 4.07464 11.452 4.04599 11.4288 4.01873L7.99135 0.590463C7.92671 0.525964 7.84576 0.474094 7.75427 0.438542C7.66277 0.40299 7.56298 0.38463 7.46197 0.384766C7.30134 0.384506 7.14566 0.431001 7.02197 0.516183C6.95236 0.564149 6.89481 0.62306 6.85263 0.689537C6.81046 0.756016 6.78447 0.828756 6.77617 0.903593C6.76787 0.97843 6.77741 1.05389 6.80425 1.12566C6.8311 1.19743 6.87471 1.26409 6.9326 1.32182L9.42822 3.81303L1.27447 3.81303C1.09214 3.81303 0.917269 3.87323 0.788338 3.98038C0.659407 4.08754 0.586975 4.23287 0.586975 4.38441C0.586975 4.53595 0.659407 4.68128 0.788338 4.78843C0.917269 4.89559 1.09214 4.95579 1.27447 4.95579Z" fill="#D3D9DD"/>
</svg>
