<svg width="13" height="15" viewBox="0 0 13 15" fill="none" xmlns="http://www.w3.org/2000/svg">
<path d="M12.4871 12.9527V3.25768C12.4871 2.49385 11.8659 1.87268 11.1021 1.87268H9.71708V0.487671H8.33209V1.87268H4.17712V0.487671H2.79213V1.87268H1.40715C0.643323 1.87268 0.0221558 2.49385 0.0221558 3.25768V12.9527C0.0221558 13.7166 0.643323 14.3377 1.40715 14.3377H11.1021C11.8659 14.3377 12.4871 13.7166 12.4871 12.9527ZM4.17712 11.5677H2.79213V10.1827H4.17712V11.5677ZM4.17712 8.79771H2.79213V7.41271H4.17712V8.79771ZM6.9471 11.5677H5.56211V10.1827H6.9471V11.5677ZM6.9471 8.79771H5.56211V7.41271H6.9471V8.79771ZM9.71708 11.5677H8.33209V10.1827H9.71708V11.5677ZM9.71708 8.79771H8.33209V7.41271H9.71708V8.79771ZM11.1021 5.3352H1.40715V3.95019H11.1021V5.3352Z" fill="#FFD600"/>
</svg>
