<svg width="23" height="24" viewBox="0 0 23 24" fill="none" xmlns="http://www.w3.org/2000/svg">
<path d="M3.61685 18.7885V23.0297L5.32303 22.006L10.686 18.7885H16.0049C17.2471 18.7885 18.2573 17.7783 18.2573 16.5361V7.52655C18.2573 6.28436 17.2471 5.27417 16.0049 5.27417H2.49066C1.24847 5.27417 0.238281 6.28436 0.238281 7.52655V16.5361C0.238281 17.7783 1.24847 18.7885 2.49066 18.7885H3.61685ZM2.49066 7.52655H16.0049V16.5361H10.062L5.86923 19.052V16.5361H2.49066V7.52655Z" fill="#071729"/>
<path d="M20.5089 0.769287H6.99457C5.75238 0.769287 4.74219 1.77948 4.74219 3.02167H18.2565C19.4987 3.02167 20.5089 4.03186 20.5089 5.27405V14.2836C21.751 14.2836 22.7612 13.2734 22.7612 12.0312V3.02167C22.7612 1.77948 21.751 0.769287 20.5089 0.769287Z" fill="#071729"/>
</svg>
