<svg width="21" height="21" viewBox="0 0 21 21" fill="none" xmlns="http://www.w3.org/2000/svg">
<path d="M2.64363 8.30786C2.47579 8.96126 2.39112 9.63325 2.39163 10.3079C2.39163 10.9979 2.47963 11.6679 2.64363 12.3079H5.49163C5.35681 10.9779 5.35681 9.63779 5.49163 8.30786H2.64363ZM3.46163 6.30786H5.80763C6.07363 5.09086 6.45763 4.00086 6.92863 3.09386C5.47681 3.79328 4.26885 4.9131 3.46163 6.30786ZM18.1396 8.30786H15.2916C15.4265 9.63779 15.4265 10.9779 15.2916 12.3079H18.1396C18.4763 10.9958 18.4763 9.61994 18.1396 8.30786ZM17.3216 6.30786C16.5144 4.9131 15.3065 3.79328 13.8546 3.09386C14.3266 4.00086 14.7096 5.09086 14.9756 6.30786H17.3216ZM7.50363 8.30786C7.42871 8.97189 7.39132 9.63962 7.39163 10.3079C7.39163 10.9929 7.42963 11.6629 7.50363 12.3079H13.2796C13.4302 10.9788 13.4302 9.63694 13.2796 8.30786H7.50363ZM7.86163 6.30786H12.9216C12.7396 5.55616 12.4771 4.82627 12.1386 4.13086C11.5106 2.87586 10.8386 2.30786 10.3916 2.30786C9.94363 2.30786 9.27263 2.87586 8.64463 4.13086C8.32963 4.76286 8.06463 5.49786 7.86163 6.30786ZM3.46163 14.3079C4.26885 15.7026 5.47681 16.8224 6.92863 17.5219C6.45663 16.6149 6.07363 15.5249 5.80763 14.3079H3.46163ZM17.3216 14.3079H14.9756C14.7096 15.5249 14.3256 16.6149 13.8546 17.5219C15.3065 16.8224 16.5144 15.7026 17.3216 14.3079ZM7.86163 14.3079C8.06463 15.1179 8.32963 15.8529 8.64463 16.4849C9.27263 17.7399 9.94463 18.3079 10.3916 18.3079C10.8396 18.3079 11.5106 17.7399 12.1386 16.4849C12.4536 15.8529 12.7186 15.1179 12.9216 14.3079H7.86163ZM10.3916 20.3079C4.86863 20.3079 0.391632 15.8309 0.391632 10.3079C0.391632 4.78486 4.86863 0.307861 10.3916 0.307861C15.9146 0.307861 20.3916 4.78486 20.3916 10.3079C20.3916 15.8309 15.9146 20.3079 10.3916 20.3079Z" fill="#D3D9DD"/>
</svg>
