<svg width="20" height="21" viewBox="0 0 20 21" fill="none" xmlns="http://www.w3.org/2000/svg">
<path d="M9.99731 7.12448C8.16111 7.12448 6.66262 8.62299 6.66262 10.4592C6.66262 12.2955 8.16111 13.794 9.99731 13.794C11.8335 13.794 13.332 12.2955 13.332 10.4592C13.332 8.62299 11.8335 7.12448 9.99731 7.12448ZM19.9989 10.4592C19.9989 9.07829 20.0114 7.70987 19.9338 6.33144C19.8563 4.73036 19.4911 3.3094 18.3203 2.13861C17.147 0.965314 15.7286 0.602569 14.1275 0.525017C12.7466 0.447464 11.3782 0.459973 9.99981 0.459973C8.61891 0.459973 7.25051 0.447464 5.8721 0.525017C4.27105 0.602569 2.85012 0.967816 1.67935 2.13861C0.506076 3.3119 0.143338 4.73036 0.0657868 6.33144C-0.0117642 7.71237 0.000744099 9.0808 0.000744099 10.4592C0.000744099 11.8377 -0.0117642 13.2086 0.0657868 14.587C0.143338 16.1881 0.508578 17.6091 1.67935 18.7799C2.85262 19.9531 4.27105 20.3159 5.8721 20.3934C7.25301 20.471 8.62141 20.4585 9.99981 20.4585C11.3807 20.4585 12.7491 20.471 14.1275 20.3934C15.7286 20.3159 17.1495 19.9506 18.3203 18.7799C19.4936 17.6066 19.8563 16.1881 19.9338 14.587C20.0139 13.2086 19.9989 11.8402 19.9989 10.4592ZM9.99731 15.5902C7.15795 15.5902 4.86644 13.2986 4.86644 10.4592C4.86644 7.61981 7.15795 5.32826 9.99731 5.32826C12.8367 5.32826 15.1282 7.61981 15.1282 10.4592C15.1282 13.2986 12.8367 15.5902 9.99731 15.5902ZM15.3383 6.31643C14.6754 6.31643 14.14 5.78107 14.14 5.11812C14.14 4.45517 14.6754 3.91981 15.3383 3.91981C16.0013 3.91981 16.5366 4.45517 16.5366 5.11812C16.5368 5.27554 16.5059 5.43145 16.4458 5.57693C16.3856 5.7224 16.2974 5.85458 16.1861 5.96589C16.0748 6.07721 15.9426 6.16547 15.7971 6.22562C15.6516 6.28577 15.4957 6.31663 15.3383 6.31643Z" fill="#D3D9DD"/>
</svg>
