<svg width="18" height="17" viewBox="0 0 18 17" fill="none" xmlns="http://www.w3.org/2000/svg">
<path d="M9.19098 1.71399C5.28523 1.71399 2.10764 4.70466 2.10764 8.38066C2.10764 12.0567 5.28523 15.0473 9.19098 15.0473C13.0967 15.0473 16.2743 12.0567 16.2743 8.38066C16.2743 4.70466 13.0967 1.71399 9.19098 1.71399ZM9.19098 13.714C6.06652 13.714 3.52431 11.3213 3.52431 8.38066C3.52431 5.43999 6.06652 3.04732 9.19098 3.04732C12.3154 3.04732 14.8576 5.43999 14.8576 8.38066C14.8576 11.3213 12.3154 13.714 9.19098 13.714Z" fill="#FFD600"/>
<path d="M9.89931 5.04724H8.48264V8.65657L10.8152 10.8519L11.8168 9.90924L9.89931 8.10457V5.04724Z" fill="#FFD600"/>
</svg>
