<svg width="19" height="19" viewBox="0 0 19 19" fill="none" xmlns="http://www.w3.org/2000/svg">
<path d="M8.12567 16.2497C9.92844 16.2494 11.6793 15.6459 13.0994 14.5354L17.5642 19L19.0004 17.5639L14.5355 13.0993C15.6466 11.6792 16.2505 9.92802 16.251 8.12487C16.251 3.64502 12.6058 0 8.12567 0C3.64558 0 0.000366211 3.64502 0.000366211 8.12487C0.000366211 12.6047 3.64558 16.2497 8.12567 16.2497ZM8.12567 2.03122C11.4865 2.03122 14.2196 4.76422 14.2196 8.12487C14.2196 11.4855 11.4865 14.2185 8.12567 14.2185C4.76484 14.2185 2.03169 11.4855 2.03169 8.12487C2.03169 4.76422 4.76484 2.03122 8.12567 2.03122Z" fill="#FFD600"/>
</svg>
