<svg width="20" height="23" viewBox="0 0 20 23" fill="none" xmlns="http://www.w3.org/2000/svg">
<path d="M19.2154 18.3616C18.7136 17.1267 17.9857 16.0049 17.0717 15.0588C16.1607 14.11 15.0814 13.3536 13.8936 12.8312C13.8829 12.8256 13.8723 12.8229 13.8617 12.8173C15.5185 11.5736 16.5957 9.54778 16.5957 7.2621C16.5957 3.47567 13.6436 0.407837 10 0.407837C6.35641 0.407837 3.4043 3.47567 3.4043 7.2621C3.4043 9.54778 4.48142 11.5736 6.13832 12.8202C6.12768 12.8256 6.11704 12.8285 6.10641 12.8339C4.91493 13.3563 3.84579 14.1054 2.92824 15.0616C2.01524 16.0084 1.28731 17.13 0.784634 18.3643C0.290818 19.5728 0.0244868 20.8685 6.65204e-05 22.1812C-0.000643438 22.2107 0.00433566 22.2401 0.0147099 22.2675C0.0250841 22.2949 0.040644 22.32 0.0604722 22.3411C0.0803003 22.3623 0.103996 22.379 0.130162 22.3905C0.15633 22.402 0.184437 22.4078 0.212835 22.4078H1.80856C1.92558 22.4078 2.01867 22.3111 2.02133 22.1923C2.07452 20.0586 2.89899 18.0603 4.35642 16.5457C5.86439 14.9787 7.86703 14.1164 10 14.1164C12.133 14.1164 14.1356 14.9787 15.6435 16.5457C17.101 18.0603 17.9255 20.0586 17.9787 22.1923C17.9813 22.3139 18.0744 22.4078 18.1914 22.4078H19.7871C19.8156 22.4078 19.8437 22.402 19.8699 22.3905C19.896 22.379 19.9197 22.3623 19.9395 22.3411C19.9594 22.32 19.9749 22.2949 19.9853 22.2675C19.9957 22.2401 20.0007 22.2107 19.9999 22.1812C19.9734 20.86 19.71 19.575 19.2154 18.3616ZM10 12.0158C8.77929 12.0158 7.63033 11.5211 6.76598 10.6229C5.90162 9.72466 5.42557 8.5307 5.42557 7.2621C5.42557 5.99351 5.90162 4.79954 6.76598 3.9013C7.63033 3.00306 8.77929 2.50834 10 2.50834C11.2208 2.50834 12.3697 3.00306 13.234 3.9013C14.0983 4.79954 14.5745 5.99351 14.5745 7.2621C14.5745 8.5307 14.0983 9.72466 13.234 10.6229C12.3697 11.5211 11.2208 12.0158 10 12.0158Z" fill="white"/>
</svg>
