<svg width="24" height="25" viewBox="0 0 24 25" fill="none" xmlns="http://www.w3.org/2000/svg">
<path d="M21.8673 4.27502L17.3962 3.09155V5.05356L21.3809 6.10806C21.8872 6.24271 22.1888 6.76332 22.0551 7.26781L18.1747 21.9369C18.04 22.4404 17.5194 22.7448 17.013 22.6111L13.9529 21.8013C13.8363 21.8127 13.7234 21.8364 13.603 21.8364H6.87964C7.03326 21.9084 7.19257 21.9729 7.36232 22.0175L16.5294 24.4441C18.0486 24.8472 19.6057 23.9406 20.0077 22.4215L23.8891 7.75428C24.2902 6.23607 23.3855 4.67709 21.8673 4.27502Z" fill="#42566A"/>
<path d="M13.6032 0.0253906H3.17201C1.60165 0.0253906 0.327148 1.29989 0.327148 2.87025V18.0429C0.327148 19.6132 1.60165 20.8877 3.17201 20.8877H13.6032C15.1735 20.8877 16.448 19.6132 16.448 18.0429V2.87025C16.448 1.29989 15.1735 0.0253906 13.6032 0.0253906ZM14.5515 18.0429C14.5515 18.5654 14.1257 18.9911 13.6032 18.9911H3.17201C2.64951 18.9911 2.22372 18.5654 2.22372 18.0429V2.87025C2.22372 2.34775 2.64951 1.92197 3.17201 1.92197H13.6032C14.1257 1.92197 14.5515 2.34775 14.5515 2.87025V18.0429ZM12.5496 10.8491C12.5496 12.1625 11.6706 12.997 10.415 12.9999C9.76546 12.9999 9.10829 12.5608 8.73562 12.1967C8.73562 12.1967 9.08459 13.8116 9.72089 15.033C9.80339 15.1914 7.00878 15.1951 7.0837 15.0349C7.70293 13.7111 8.05 12.1967 8.05 12.1967C7.67638 12.5437 6.95947 13.0046 6.35921 13.0056C5.10652 13.0065 4.22177 12.1739 4.21987 10.8624C4.21797 8.66429 8.36578 5.78245 8.36578 5.78245H8.38854C8.38854 5.78245 12.5458 8.65291 12.5496 10.8491ZM12.6018 2.99922C12.5857 2.95939 12.5714 2.92715 12.5525 2.90439C12.5335 2.88163 12.4946 2.87025 12.4358 2.87025H11.8963C11.8384 2.87025 11.7995 2.88163 11.7806 2.9025C11.7607 2.92241 11.7436 2.9537 11.7294 2.99353L10.9044 5.60417C10.8882 5.65348 10.8873 5.68288 10.8987 5.69615C10.91 5.70943 10.9328 5.71512 10.9641 5.71512H11.4382C11.48 5.71512 11.5103 5.70469 11.534 5.68857C11.5558 5.6715 11.5748 5.6421 11.589 5.59563L11.7426 5.07313H12.5942L12.7355 5.58236C12.7497 5.62693 12.7639 5.66201 12.781 5.68193C12.7971 5.70374 12.8313 5.71512 12.8796 5.71512H13.4107C13.442 5.71512 13.4609 5.70469 13.4666 5.68857C13.4723 5.67244 13.4723 5.64779 13.4619 5.6127L12.6018 2.99922ZM11.8877 4.55631L12.0157 4.07837L12.157 3.55871H12.177L12.3154 4.08217L12.4434 4.55631H11.8877ZM5.29333 15.198C5.24402 15.198 5.21083 15.2094 5.19471 15.2302C5.17764 15.2511 5.16342 15.2862 5.14919 15.3308L5.0079 15.84H4.15539L4.00176 15.3175C3.98754 15.271 3.96952 15.2416 3.94676 15.2245C3.924 15.2084 3.89366 15.198 3.85193 15.198H3.37779C3.3465 15.198 3.32374 15.2046 3.31331 15.2179C3.30288 15.2312 3.30288 15.2606 3.319 15.3099L4.14401 17.9205C4.15823 17.9604 4.1753 17.9907 4.19521 18.0116C4.21418 18.0315 4.25306 18.0429 4.30996 18.0429H4.84858C4.90833 18.0429 4.94721 18.0315 4.96617 18.0087C4.98514 17.9869 4.99936 17.9537 5.01548 17.9139L5.87463 15.3004C5.88506 15.2653 5.88506 15.2407 5.87937 15.2245C5.87368 15.2084 5.85567 15.198 5.82437 15.198H5.29333ZM4.73005 16.8309L4.5916 17.3544H4.57168L4.43039 16.8347L4.30237 16.3568H4.85807L4.73005 16.8309Z" fill="#42566A"/>
<path d="M20.1386 6.90923C20.1348 6.86656 20.1272 6.83242 20.1168 6.80587C20.1035 6.77837 20.0684 6.7575 20.0115 6.74328L19.4909 6.60293C19.4369 6.58776 19.3961 6.58776 19.3724 6.60293C19.3468 6.61905 19.3221 6.64371 19.2994 6.67785L17.8219 8.98219C17.7925 9.02676 17.785 9.05331 17.7925 9.07038C17.7992 9.08555 17.8181 9.09693 17.8494 9.10546L18.3075 9.22969C18.3473 9.24012 18.3795 9.23917 18.4061 9.22779C18.4317 9.21831 18.4582 9.1946 18.4838 9.15383L18.7683 8.68917L19.5905 8.91106L19.5952 9.44021C19.5952 9.48668 19.6019 9.52461 19.6123 9.54831C19.6237 9.57392 19.6521 9.59288 19.7005 9.60616L20.2126 9.74461C20.2429 9.75314 20.2638 9.74935 20.2733 9.73323C20.2827 9.71901 20.2884 9.6953 20.2884 9.65926L20.1386 6.90923ZM19.0433 8.22735L19.2918 7.79778L19.5639 7.33406L19.5829 7.33975L19.5801 7.88028L19.5791 8.37244L19.0433 8.22735Z" fill="#42566A"/>
</svg>
