<svg width="23" height="20" viewBox="0 0 23 20" fill="none" xmlns="http://www.w3.org/2000/svg">
<path d="M9.37231 8.99683H13.2142V19.2417H9.37231V8.99683Z" fill="#42566A"/>
<path d="M1.65088 18.6014C1.65088 18.9551 1.93752 19.2417 2.29118 19.2417H8.09661V8.99683H1.65088V18.6014Z" fill="#42566A"/>
<path d="M20.9424 8.99683H14.4966V19.2417H20.3021C20.6557 19.2417 20.9424 18.9551 20.9424 18.6014V8.99683Z" fill="#42566A"/>
<path d="M21.5817 3.87395H17.9665C18.1966 3.48643 18.3375 3.04005 18.3375 2.55765C18.3375 1.46913 17.9917 0.713098 17.3107 0.310904C15.9777 -0.476974 13.909 0.489157 12.4683 1.2827L12.413 1.31272H10.1752L10.1197 1.2827C8.67853 0.489157 6.61004 -0.476974 5.2774 0.310904C4.59657 0.713098 4.25074 1.46913 4.25074 2.55765C4.25074 3.04005 4.39164 3.48643 4.62175 3.87395H1.00652C0.652848 3.87395 0.366211 4.16059 0.366211 4.51426V7.07549C0.366211 7.42916 0.652848 7.7158 1.00652 7.7158H8.09258V3.87395H6.84765C6.12964 3.87395 5.53352 3.28833 5.53135 2.57032C5.52952 1.95953 5.66342 1.57018 5.92904 1.41343C6.24169 1.22718 7.11244 1.11646 9.37319 2.33788V7.7158H10.6538V5.79487C10.6538 5.44104 10.9403 5.15456 11.2941 5.15456C11.6479 5.15456 11.9344 5.44104 11.9344 5.79487V7.7158H13.215V2.33788C15.4758 1.11646 16.3459 1.22718 16.6592 1.41343C16.9248 1.57018 17.0587 1.95953 17.0569 2.57032C17.0547 3.28833 16.4586 3.87395 15.7406 3.87395H14.4956V7.7158H21.5817C21.9354 7.7158 22.222 7.42916 22.222 7.07549V4.51426C22.222 4.16059 21.9354 3.87395 21.5817 3.87395Z" fill="#42566A"/>
</svg>
