<svg width="24" height="25" viewBox="0 0 24 25" fill="none" xmlns="http://www.w3.org/2000/svg">
<path d="M23.6003 12.5408C23.6003 19.048 18.3252 24.323 11.818 24.323C5.31085 24.323 0.0357666 19.048 0.0357666 12.5408C0.0357666 6.03363 5.31085 0.758545 11.818 0.758545C18.3252 0.758545 23.6003 6.03363 23.6003 12.5408Z" fill="#42566A"/>
<path d="M20.4063 2.32226C22.4913 4.40721 22.4913 7.78756 20.4063 9.87251C18.3214 11.9575 14.941 11.9575 12.8561 9.87251C10.7711 7.78756 10.7711 4.40721 12.8561 2.32226C14.941 0.237307 18.3214 0.237307 20.4063 2.32226Z" fill="#13212F"/>
<path d="M18.5377 15.0722C18.5377 19.7775 15.0248 23.6621 10.4786 24.2469C5.04201 23.6315 0.727407 19.3169 0.112061 13.8803C0.696893 9.33415 4.58149 5.82129 9.28675 5.82129C14.3959 5.82129 18.5377 9.96307 18.5377 15.0722Z" fill="#13212F"/>
<path d="M20.4293 4.87557C20.4293 6.50387 19.1093 7.82389 17.481 7.82389C15.8526 7.82389 14.5326 6.50387 14.5326 4.87557C14.5326 3.24727 15.8527 1.92725 17.481 1.92725C19.1093 1.92725 20.4293 3.24727 20.4293 4.87557ZM15.8682 12.955C15.8682 15.7765 13.5809 18.0637 10.7595 18.0637C7.93799 18.0637 5.65076 15.7765 5.65076 12.955C5.65076 10.1335 7.93799 7.84631 10.7595 7.84631C13.5809 7.84631 15.8682 10.1335 15.8682 12.955Z" fill="#42566A"/>
<path d="M19.5968 3.75131C19.4411 3.90692 19.1048 3.82283 18.8455 3.56348C18.5862 3.30414 18.5021 2.96779 18.6577 2.81223C18.8132 2.65666 19.1496 2.74075 19.4089 3.00005C19.6683 3.25935 19.7524 3.5957 19.5968 3.75131ZM12.7988 9.37982C12.5292 9.64943 12.6749 10.2322 13.1243 10.6816C13.5736 11.1309 14.1564 11.2766 14.426 11.007C14.6956 10.7374 14.5499 10.1546 14.1006 9.70526C13.6513 9.25592 13.0684 9.11021 12.7988 9.37982Z" fill="#13212F"/>
<path d="M12.8306 11.1256V14.8075C12.8306 14.9346 12.7275 15.0376 12.6004 15.0376H12.1402C12.0131 15.0376 11.9101 14.9346 11.9101 14.8075V11.1256C11.9101 10.9985 12.0131 10.8954 12.1402 10.8954H12.6004C12.7275 10.8954 12.8306 10.9985 12.8306 11.1256ZM11.2197 10.8724H8.91848C8.7914 10.8724 8.68835 10.9755 8.68835 11.1026V11.5628C8.68835 11.6899 8.7914 11.7929 8.91848 11.7929H10.4833L9.60884 13.5879V14.8075C9.60884 14.9346 9.71189 15.0376 9.83896 15.0376H10.2992C10.4263 15.0376 10.5293 14.9346 10.5293 14.8075V13.6339L11.4498 11.7929V11.1026C11.4498 10.9755 11.3468 10.8724 11.2197 10.8724Z" fill="#13212F"/>
<path d="M17.696 3.2248L18.076 3.99475C18.0847 4.01237 18.1015 4.02457 18.121 4.02742L18.9707 4.15091C19.0197 4.15804 19.0392 4.21819 19.0038 4.25276L18.3889 4.85209C18.3749 4.8658 18.3685 4.88559 18.3718 4.90492L18.5169 5.75118C18.5253 5.79996 18.4741 5.83715 18.4303 5.81414L17.6703 5.4146C17.6529 5.40544 17.6321 5.40544 17.6147 5.4146L16.8547 5.81414C16.8109 5.83715 16.7597 5.79996 16.768 5.75118L16.9132 4.90492C16.9165 4.88555 16.9101 4.8658 16.896 4.85209L16.2812 4.25276C16.2457 4.21819 16.2653 4.15804 16.3142 4.15091L17.164 4.02742C17.1834 4.02462 17.2002 4.01237 17.2089 3.99475L17.5889 3.2248C17.6109 3.18044 17.6741 3.18044 17.696 3.2248Z" fill="#13212F"/>
</svg>
