<svg width="32" height="32" viewBox="0 0 32 32" fill="none" xmlns="http://www.w3.org/2000/svg">
<path d="M9.85122 19.8375C8.61279 19.8386 7.48831 18.8879 7.4393 18.8426C7.29227 18.7068 7.23775 18.4802 7.37513 18.2988C7.51389 18.1627 7.75067 18.1172 7.94534 18.253C7.94534 18.253 9.3625 19.43 10.3952 18.9305C10.6306 18.8397 10.9517 18.4315 10.9379 17.9783C10.9213 17.4345 10.4761 16.8911 9.60632 16.484C7.09087 15.2173 3.86585 12.5463 3.19502 9.28386C2.64013 6.7011 3.89725 5.74823 4.45918 5.43047C5.44429 4.93105 6.68685 5.06587 7.51864 5.79024C9.13322 7.1937 8.15149 9.36998 8.10661 9.46066C8.01686 9.64202 7.78146 9.73288 7.58818 9.64242C7.34864 9.59731 7.24648 9.3708 7.33485 9.14412C7.33485 9.14412 8.13847 7.37589 6.9636 6.33459C6.37824 5.88192 5.4691 5.74679 4.81328 6.10995C3.92206 6.56397 3.62309 7.69726 3.95299 9.14721C4.5693 12.1831 7.5969 14.6277 9.96808 15.8491C11.4191 16.5729 11.7311 17.4338 11.749 18.0229C11.7724 18.7933 11.2678 19.4283 10.7983 19.6553C10.4691 19.7916 10.137 19.8372 9.85122 19.8375Z" fill="#42566A"/>
<path d="M21.0619 19.5982C22.3002 19.597 23.3666 18.6444 23.4129 18.5991C23.5516 18.463 23.5923 18.2364 23.4439 18.0552C23.2969 17.9194 23.0574 17.8743 22.8711 18.0104C22.8711 18.0104 21.5258 19.1899 20.4628 18.6923C20.222 18.6019 19.8762 18.1944 19.8624 17.7412C19.8458 17.1974 20.2579 16.6532 21.1028 16.2446C23.5407 14.9735 26.6026 12.2971 27.0748 9.03377C27.4725 6.45031 26.1576 5.49983 25.5765 5.18313C24.5612 4.68555 23.3271 4.82261 22.5395 5.5484C21.0106 6.95461 22.1245 9.12885 22.1749 9.21944C22.2757 9.40062 22.5166 9.49104 22.7043 9.40024C22.8921 9.30943 22.9804 9.08277 22.8797 8.90159C22.8797 8.90159 21.9686 7.13502 23.0799 6.09172C23.6363 5.59273 24.5384 5.50128 25.2162 5.86321C26.1348 6.31556 26.5027 7.44817 26.2611 8.89855C25.7806 11.8899 22.9512 14.3849 20.6534 15.5653C19.2467 16.2916 18.9872 17.1529 19.0051 17.742C19.0286 18.5124 19.5717 19.1463 20.0549 19.3725C20.4414 19.5534 20.7285 19.5985 21.0619 19.5982Z" fill="#42566A"/>
<path d="M9.5611 27.3578C9.41985 27.4949 9.38961 28.133 9.38961 28.133L15.8241 28.1136L15.1739 5.25959L7.91699 5.28149C7.91829 5.32706 7.91958 5.37263 7.92088 5.41819C8.09069 11.3873 10.0259 16.4852 12.6091 18.847C12.9058 19.074 14.1896 19.9815 14.2782 21.3939C14.2963 22.0318 13.2765 21.8982 13.2933 22.4905C13.3115 23.1284 14.2778 23.08 14.3024 23.9457C14.3167 24.4469 14.3265 24.7915 14.3563 25.8395C14.3783 26.6141 10.3602 26.5351 9.5611 27.3578Z" fill="#42566A"/>
<path d="M21.6386 27.2356C21.7876 27.3719 21.8542 28.0096 21.8542 28.0096L15.468 28.0289L14.8179 5.17493L22.0749 5.15301C22.0762 5.19857 22.0775 5.24414 22.0788 5.28971C22.2486 11.2588 20.6037 16.3675 18.1553 18.7446C17.8715 18.9733 16.6396 19.8884 16.6314 21.301C16.6495 21.939 17.6616 21.7992 17.6785 22.3916C17.6966 23.0295 16.7277 22.9868 16.7523 23.8526C16.7666 24.3538 16.7764 24.6984 16.8062 25.7464C16.8295 26.5666 20.8425 26.4633 21.6386 27.2356Z" fill="#42566A"/>
</svg>
