<svg width="27" height="26" viewBox="0 0 27 26" fill="none" xmlns="http://www.w3.org/2000/svg">
<path d="M9.28205 17.6917C8.41037 16.8924 7.05498 16.9554 6.26035 17.8322C5.71059 18.4388 3.54328 22.534 1.89795 25.9389C5.11628 23.9773 8.87202 21.3376 9.42178 20.731C10.2164 19.8543 10.1537 18.4909 9.28205 17.6917Z" fill="#42566A"/>
<path d="M18.9372 7.13738C18.3563 6.60466 17.4523 6.64671 16.9228 7.23108C16.3932 7.81536 16.435 8.72464 17.0159 9.25731C17.5968 9.79003 18.5008 9.74799 19.0303 9.16362C19.5599 8.57934 19.5181 7.67005 18.9372 7.13738Z" fill="#42566A"/>
<path d="M8.79198 11.4169C8.13508 13.1024 8.03432 14.2765 7.94878 14.5253L12.6322 18.8198C12.7246 18.7778 13.9333 18.5074 15.5981 17.6577L8.79198 11.4169Z" fill="#42566A"/>
<path d="M25.0847 0.354837C24.1292 0.592781 18.2193 -0.358629 12.441 5.79413C11.001 7.32743 10.0619 8.77402 9.41289 10.0469L16.8986 16.9109C18.149 16.1255 19.532 15.0467 20.867 13.5203C26.4127 7.17927 24.9396 1.31886 25.0847 0.354837ZM14.6623 12.9195L13.6084 11.9531L14.5691 10.8932L15.6229 11.8594L14.6623 12.9195ZM20.0854 10.129C19.0244 11.2998 17.2206 11.3837 16.0567 10.3163C14.8927 9.2491 14.8092 7.43469 15.8704 6.26395C16.9314 5.09312 18.7352 5.00922 19.8991 6.07656C21.0632 7.1438 21.1466 8.95822 20.0854 10.129ZM21.3867 5.49966L20.3329 4.5334L21.2935 3.47334L22.3474 4.4397L21.3867 5.49966Z" fill="#42566A"/>
<path d="M12.3604 20.5148L11.8119 20.0117L11.1525 23.3039L16.7275 20.1683L17.0651 18.483C14.9359 19.7165 14.0815 19.7824 12.3604 20.5148Z" fill="#42566A"/>
<path d="M7.80824 10.0797L6.24132 10.5522L3.65174 16.4253L6.84999 15.4611L6.29068 14.9482C6.97129 12.8532 6.77687 12.3502 7.80824 10.0797Z" fill="#42566A"/>
</svg>
