<svg width="23" height="22" viewBox="0 0 23 22" fill="none" xmlns="http://www.w3.org/2000/svg">
<path d="M11.0749 0.667428C11.4501 -0.0437188 12.4686 -0.0437186 12.8438 0.667428L15.5979 5.88739C15.7426 6.16163 16.0063 6.35324 16.3118 6.40611L22.1273 7.41234C22.9196 7.54943 23.2344 8.51806 22.674 9.09466L18.5606 13.327C18.3444 13.5494 18.2437 13.8594 18.2878 14.1663L19.128 20.0082C19.2424 20.804 18.4184 21.4027 17.6969 21.0479L12.4006 18.4437C12.1223 18.3068 11.7963 18.3068 11.5181 18.4437L6.22176 21.0479C5.50021 21.4027 4.67624 20.804 4.7907 20.0082L5.63081 14.1663C5.67495 13.8594 5.57421 13.5494 5.3581 13.327L1.24469 9.09466C0.68429 8.51806 0.999018 7.54943 1.7913 7.41234L7.60684 6.40611C7.91238 6.35324 8.1761 6.16163 8.3208 5.88739L11.0749 0.667428Z" fill="#42566A"/>
</svg>
