<svg width="21" height="30" viewBox="0 0 21 30" fill="none" xmlns="http://www.w3.org/2000/svg">
<path d="M1.5979 9.38464V24.8661L10.0009 29.1919L18.404 24.8661V9.38464H1.5979Z" fill="#42566A"/>
<path d="M9.9791 26.1152C14.3163 26.1152 17.8324 22.5992 17.8324 18.2619C17.8324 13.9247 14.3163 10.4087 9.9791 10.4087C5.64187 10.4087 2.12585 13.9247 2.12585 18.2619C2.12585 22.5992 5.64187 26.1152 9.9791 26.1152Z" fill="#13212F"/>
<path d="M18.2157 12.1576C18.248 12.1972 18.2802 12.25 18.3033 12.3161C18.3309 12.3822 18.3217 12.4438 18.2756 12.4967C18.0406 12.8622 17.8101 13.2277 17.5889 13.5976C17.3677 13.9675 17.1511 14.3462 16.9391 14.7338C16.575 15.4119 16.2293 16.0945 15.9113 16.7815C15.5887 17.4641 15.2707 18.1599 14.9573 18.8645L14.4596 19.9698C14.4181 20.0579 14.3766 20.1504 14.3305 20.2429C14.289 20.3354 14.2476 20.4278 14.2015 20.5159C14.16 20.604 14.1185 20.6965 14.0724 20.7889C14.031 20.8814 13.9849 20.9739 13.9342 21.062C13.8328 21.2381 13.7406 21.4231 13.6623 21.608C13.5839 21.793 13.4917 21.978 13.3903 22.1541C13.2982 22.3259 13.1876 22.502 13.0585 22.687C12.9986 22.775 12.9341 22.8631 12.8695 22.9556C12.8004 23.0437 12.7359 23.1318 12.6668 23.2242C12.6391 23.2507 12.593 23.2595 12.5285 23.2595C12.4778 23.2991 12.4133 23.3255 12.3395 23.3387C12.2658 23.3519 12.1828 23.3563 12.0999 23.3563C12.0169 23.3563 11.934 23.3475 11.851 23.3299C11.7727 23.3123 11.6989 23.2991 11.6436 23.2815C11.533 23.2507 11.4178 23.2066 11.2934 23.1538C11.1689 23.1009 11.0721 23.0393 10.9938 22.9644C10.9431 22.916 10.9016 22.8719 10.8647 22.8367C10.8325 22.8015 10.8002 22.753 10.7772 22.6958L10.7403 22.6209C10.6988 22.524 10.662 22.4271 10.6389 22.3303C10.6113 22.2334 10.5882 22.1365 10.5606 22.0396C10.5329 21.9515 10.5145 21.8591 10.5053 21.7622C10.4914 21.6653 10.4776 21.5728 10.4592 21.4847C10.39 21.0884 10.344 20.6921 10.3117 20.3001C10.284 19.9082 10.2564 19.5163 10.2426 19.1287C10.2333 18.7544 10.2333 18.3845 10.2426 18.0102C10.2011 18.1159 10.1596 18.2171 10.1227 18.3184C10.0859 18.4197 10.0444 18.5166 10.0029 18.6179C9.8923 18.8777 9.78169 19.1375 9.67108 19.4018C9.56047 19.666 9.44525 19.9258 9.33003 20.1856C9.2102 20.4455 9.09499 20.7009 8.97516 20.9563C8.85533 21.2117 8.7309 21.4627 8.59263 21.7137L8.38985 22.0793C8.32072 22.2246 8.25619 22.3523 8.18706 22.4536C8.10871 22.5769 8.03497 22.6958 7.95663 22.8191C7.87828 22.9424 7.80915 23.0613 7.74001 23.1846C7.71236 23.2242 7.6801 23.2551 7.63862 23.2683C7.53723 23.3343 7.39436 23.3607 7.21462 23.3475C7.03027 23.3343 6.88279 23.3079 6.76296 23.2683C6.65235 23.2286 6.53713 23.1802 6.42191 23.1229C6.30209 23.0657 6.2053 22.9952 6.13156 22.9028C6.03017 22.8059 5.95643 22.7046 5.91495 22.5989L5.87808 22.5152C5.8366 22.4007 5.79973 22.2906 5.77669 22.1805C5.74904 22.0704 5.72138 21.9603 5.68912 21.8459C5.66147 21.7314 5.64304 21.6213 5.63382 21.52C5.61999 21.4143 5.60617 21.3042 5.58773 21.1941C5.52782 20.7317 5.48173 20.2781 5.45408 19.8333C5.42643 19.3885 5.39877 18.9394 5.38495 18.4858C5.3619 18.0454 5.35729 17.6138 5.36651 17.1911C5.37573 16.7639 5.38956 16.3411 5.40338 15.9096C5.40338 15.8039 5.40338 15.6982 5.40799 15.5925C5.4126 15.4868 5.41721 15.3811 5.42643 15.2754C5.43564 15.1609 5.44025 15.0552 5.44025 14.954C5.44025 14.8527 5.44947 14.747 5.4679 14.6325C5.47712 14.5268 5.48634 14.4255 5.50017 14.3242C5.51399 14.2229 5.52782 14.1216 5.54625 14.016L5.58312 13.7121L5.61999 13.5536C5.62921 13.4875 5.67069 13.4214 5.74904 13.3466C5.84121 13.2673 5.95643 13.2233 6.0993 13.2233C6.24217 13.2233 6.37122 13.2453 6.50026 13.2849C6.59244 13.3113 6.68461 13.3378 6.76757 13.3774C6.85053 13.4126 6.93348 13.4611 7.00722 13.5183C7.12705 13.5932 7.21462 13.6725 7.27453 13.7605C7.30218 13.8002 7.32523 13.8442 7.35288 13.8882C7.38053 13.9323 7.39436 13.9807 7.40358 14.0292C7.40358 14.06 7.40358 14.0908 7.40819 14.1128C7.41279 14.1393 7.41279 14.1657 7.41279 14.1965L7.44045 14.5972L7.44045 15.205C7.44966 15.3899 7.44966 15.5705 7.44045 15.7466C7.43123 15.9228 7.42201 16.0989 7.41279 16.2883C7.41279 16.4644 7.41279 16.645 7.40819 16.8212C7.40358 16.9973 7.40358 17.1779 7.40358 17.354C7.39436 17.7107 7.39436 18.0586 7.39897 18.4065C7.40358 18.75 7.41279 19.1023 7.43123 19.459C7.44966 19.6924 7.46349 19.9258 7.47732 20.1504C7.49114 20.375 7.50958 20.6084 7.53262 20.8418L7.61097 21.5684C7.6294 21.6257 7.63862 21.6785 7.64323 21.7314C7.64784 21.7842 7.65245 21.8414 7.66167 21.9075C7.68932 21.8503 7.71236 21.7974 7.74001 21.7446C7.76767 21.6917 7.7861 21.6345 7.80454 21.5684C7.85523 21.4319 7.91515 21.2822 7.98428 21.1192C8.2055 20.5776 8.42672 20.0359 8.65255 19.4986C8.87838 18.9614 9.09499 18.4153 9.30699 17.8648C9.51899 17.3232 9.72178 16.7771 9.91534 16.2266L10.2195 15.4119C10.2472 15.3459 10.2702 15.2798 10.2979 15.2138C10.3255 15.1433 10.3532 15.0773 10.3854 15.0156L10.5007 14.7954C10.5191 14.747 10.5421 14.7073 10.579 14.6721L10.6942 14.5972C10.7357 14.5664 10.8002 14.5576 10.8832 14.5708C10.9615 14.5532 11.0399 14.5532 11.1321 14.5664C11.2196 14.5796 11.3026 14.5972 11.3809 14.6193C11.5745 14.6589 11.7496 14.725 11.9017 14.813C11.9432 14.8395 11.9893 14.8659 12.04 14.9055C12.0907 14.9407 12.1275 14.9804 12.1552 15.02C12.2335 15.0993 12.275 15.1829 12.2842 15.2622C12.2935 15.293 12.2981 15.3371 12.2981 15.3943C12.3073 15.4604 12.3119 15.522 12.3165 15.5749C12.3211 15.6321 12.3211 15.6894 12.3211 15.7466C12.3211 15.8347 12.3211 15.9228 12.3257 16.0065C12.3303 16.0901 12.3303 16.1782 12.3303 16.2663C12.3303 16.4292 12.3257 16.5878 12.3165 16.7419C12.3073 16.896 12.3027 17.0546 12.3027 17.2175C12.2935 17.3716 12.2888 17.5258 12.2842 17.6799C12.2796 17.834 12.2796 17.9881 12.2796 18.1423C12.2796 18.4505 12.2796 18.7544 12.2796 19.0539C12.2796 19.3533 12.2888 19.6572 12.3073 19.9654C12.3257 20.168 12.3395 20.3662 12.358 20.5644C12.3764 20.7625 12.3902 20.9651 12.4087 21.1633L12.4732 21.6125L12.7036 20.9915C12.7451 20.8858 12.7866 20.7801 12.8327 20.6744C12.8742 20.5688 12.9156 20.4587 12.9617 20.3486C13.2567 19.6219 13.5563 18.8997 13.8558 18.1863C14.1554 17.4729 14.4688 16.7595 14.7914 16.0373C14.9527 15.6894 15.114 15.3459 15.2799 15.0068C15.4458 14.6677 15.621 14.3286 15.8053 13.9851C15.9851 13.646 16.1694 13.3069 16.3584 12.9723C16.5473 12.6376 16.7547 12.3073 16.9759 11.9814C17.0681 11.8449 17.2018 11.7788 17.3769 11.7876C17.552 11.7965 17.6995 11.8185 17.8286 11.8625C17.9069 11.8933 17.9806 11.9374 18.059 11.9858C18.1143 12.0343 18.1696 12.0915 18.2157 12.1576Z" fill="#42566A"/>
<path d="M1.63236 8.24257L0.433594 3.39029L7.32649 4.60336L10.3234 0.660889L13.3203 4.60336L20.5795 2.93539L18.415 8.24257H1.63236Z" fill="#42566A"/>
</svg>
