# WaveFront *.obj file (generated by Cinema 4D)

mtllib ./latarnia_nowoczesna.mtl

v 13.733281 421.483141 25.471642
v 13.733281 4.684089 25.928818
v 13.733281 4.684089 -2.465718
v -13.732968 421.483141 25.471642
v -13.732968 4.684089 25.928818
v -13.732968 4.684089 -2.465718
v 37.658122 4.684089 50.662259
v 37.658122 4.684089 -27.199157
v -37.657806 4.684089 50.662259
v -37.657806 4.684089 -27.199157
v 37.658122 0.536725 50.662259
v 37.658122 0.536725 -27.199157
v -37.657806 0.536725 50.662259
v -37.657806 0.536725 -27.199157
v -13.732968 417.620379 -2.020402
v 13.733281 417.620379 -2.020402
v -13.732968 432.552391 -58.663414
v -13.732968 443.562943 -58.651523
v 13.733281 443.562943 -58.651523
v 13.733281 432.552391 -58.663414
# 20 vertices

vn 0.000000 -0.966965 -0.254908
vn 0.000000 1.000000 0.000000
vn 0.000000 0.000000 1.000000
vn 0.000000 0.000000 -1.000000
vn -1.000000 0.000000 0.000000
vn 1.000000 0.000000 0.000000
vn 0.000000 0.001097 0.999999
vn 0.000000 0.001078 -0.999999
vn 0.000000 0.001080 -0.999999
vn 0.000000 0.967238 0.253871
# 10 normals

vt 0.682212 0.380585 0.000000
vt 0.740832 0.380585 0.000000
vt 0.740832 0.255565 0.000000
vt 0.682212 0.255565 0.000000
vt 0.851806 0.198922 0.000000
vt 0.851806 0.032748 0.000000
vt 0.800745 0.085534 0.000000
vt 0.800745 0.146135 0.000000
vt 0.691064 0.032747 0.000000
vt 0.691064 0.198922 0.000000
vt 0.742125 0.146135 0.000000
vt 0.742125 0.085534 0.000000
vt 0.851806 0.023896 0.000000
vt 0.691064 0.023896 0.000000
vt 0.691064 0.207773 0.000000
vt 0.851806 0.207774 0.000000
vt 0.860657 0.198922 0.000000
vt 0.860657 0.032748 0.000000
vt 0.682212 0.032747 0.000000
vt 0.682212 0.198922 0.000000
vt 0.528009 0.913443 0.000000
vt 0.528009 0.023896 0.000000
vt 0.469390 0.023896 0.000000
vt 0.469390 0.913443 0.000000
vt 0.575802 0.023896 0.000000
vt 0.575801 0.905203 0.000000
vt 0.634421 0.905203 0.000000
vt 0.634421 0.023896 0.000000
vt 0.682213 0.404084 0.000000
vt 0.740832 0.404084 0.000000
vt 0.421598 0.031788 0.000000
vt 0.361513 0.023896 0.000000
vt 0.246643 0.906004 0.000000
vt 0.305890 0.905471 0.000000
vt 0.421598 0.952809 0.000000
vt 0.418513 0.976104 0.000000
vt 0.198851 0.968212 0.000000
vt 0.083143 0.094529 0.000000
vt 0.023896 0.093996 0.000000
vt 0.138766 0.976104 0.000000
vt 0.198851 0.047191 0.000000
vt 0.195766 0.023896 0.000000
vt 0.682212 0.589704 0.000000
vt 0.740832 0.589704 0.000000
# 44 texture coordinates

o latarnia_nowoczesna
usemtl Material.003
f 17/1/1 20/2/1 16/3/1 15/4/1
f 10/5/2 9/6/2 5/7/2 6/8/2
f 7/9/2 8/10/2 3/11/2 2/12/2
f 9/6/2 7/9/2 2/12/2 5/7/2
f 8/10/2 10/5/2 6/8/2 3/11/2
f 13/13/3 11/14/3 7/9/3 9/6/3
f 12/15/4 14/16/4 10/5/4 8/10/4
f 14/17/5 13/18/5 9/6/5 10/5/5
f 11/19/6 12/20/6 8/10/6 7/9/6
f 2/21/7 1/22/7 4/23/7 5/24/7
f 6/25/8 15/26/8 16/27/8 3/28/8
f 17/1/9 18/29/9 19/30/9 20/2/9
f 18/36/5 17/35/5 15/34/5 6/31/5 5/32/5 4/33/5
f 3/37/6 16/38/6 20/41/6 19/42/6 1/39/6 2/40/6
f 19/30/10 18/29/10 4/43/10 1/44/10

