# WaveFront *.obj file (generated by Cinema 4D)

mtllib ./rzezba.mtl

v 0.842669 164.391405 -16.196119
v -3.045185 147.020584 -8.957243
v 23.904713 154.735514 -26.980789
v 20.016858 137.364693 -19.741912
v -12.056622 158.122490 -38.167314
v -15.944477 140.751669 -30.928437
v 11.005421 148.466599 -48.951983
v 7.117567 131.095778 -41.713106
v 4.625763 25.299975 141.216983
v -102.911292 25.299981 89.429870
v -129.470737 25.299991 -26.934729
v -55.052768 25.299993 -120.251883
v 64.304347 25.299990 -120.251878
v 138.722281 25.299982 -26.934730
v 112.162850 25.299972 89.429857
v 4.625778 25.299988 54.896289
v -35.423046 25.299986 35.609795
v -45.314285 25.299991 -7.726564
v -17.599636 25.299989 -42.479631
v 26.851204 25.299986 -42.479635
v 54.565851 25.299987 -7.726564
v 44.674610 25.299974 35.609795
v 4.625778 76.069404 57.392072
v -37.374323 76.069397 37.165891
v -47.747489 76.069402 -8.281922
v -18.682515 76.069403 -44.728251
v 27.934073 76.069404 -44.728245
v 56.999050 76.069399 -8.281925
v 46.625886 76.069396 37.165891
v -108.150757 10.672775 93.608197
v 4.625763 10.672756 147.918517
v -136.004246 10.672780 -28.425960
v -57.960451 10.672783 -126.289766
v 67.212036 10.672777 -126.289751
v 145.255802 10.672770 -28.425960
v 117.402309 10.672765 93.608182
v -35.123103 150.383002 14.884516
v -34.793197 142.696322 18.505520
v 30.882329 133.074570 -27.871571
v 31.212236 125.387893 -24.250566
v -55.720743 137.060358 -11.520195
v -55.390836 129.373680 -7.899190
v 10.284689 119.751929 -54.276280
v 10.614596 112.065247 -50.655276
v -23.571897 209.195891 -24.047709
v -26.305198 196.983584 -18.958520
v 16.368046 208.910001 -3.282809
v 13.634746 196.697692 1.806380
v 7.383170 177.272612 -84.027285
v 4.649869 165.060303 -78.938095
v 47.323114 176.986724 -63.262383
v 44.589813 164.774412 -58.173192
v -14.828211 186.547767 -29.950857
v -17.561513 174.335456 -24.861667
v 15.967625 186.327329 -13.940003
v 13.234323 174.115020 -8.850813
v 2.582275 168.592711 -63.686002
v -0.151027 156.380403 -58.596812
v 33.378110 168.372277 -47.675150
v 30.644809 156.159965 -42.585959
v -34.791011 139.973737 18.529610
v -34.461104 132.287055 22.150612
v 31.214419 122.665306 -24.226474
v 31.544328 114.978627 -20.605471
v -55.388654 126.651094 -7.875099
v -55.058744 118.964414 -4.254095
v 10.616782 109.342662 -50.631185
v 10.946689 101.655981 -47.010184
v 6.480598 56.750248 -27.922798
v 6.480601 225.146150 -27.922795
v 2.589340 56.750247 -28.086996
v 2.589337 225.146146 -28.086987
v 6.662201 56.750248 -32.226555
v 6.662201 225.146151 -32.226550
v 2.770943 56.750247 -32.390753
v 2.770943 225.146145 -32.390744
v 42.087020 150.383000 -12.997487
v 41.548832 142.696321 -16.593440
v -21.342764 133.074572 33.494014
v -21.880949 125.387895 29.898058
v 64.173154 137.060354 12.175390
v 63.634967 129.373675 8.579440
v 0.743368 119.751919 58.666886
v 0.205187 112.065250 55.070937
v 32.424192 209.195887 25.828744
v 34.859451 196.983578 20.590395
v -8.646793 208.910000 7.401770
v -6.211538 196.697691 2.163416
v 4.979712 177.272607 87.493675
v 7.414972 165.060296 82.255326
v -36.091274 176.986717 69.066695
v -33.656019 164.774409 63.828348
v 24.035512 186.547764 32.226015
v 26.470767 174.335454 26.987661
v -7.632422 186.327329 18.017826
v -5.197168 174.115019 12.779472
v 8.599531 168.592702 66.909086
v 11.034786 156.380394 61.670731
v -23.068405 168.372267 52.700895
v -20.633153 156.159958 47.462543
v 7.597465 164.391401 19.397730
v 11.061378 147.020579 11.946685
v -14.804236 154.735509 31.494448
v -11.340323 137.364687 24.043403
v 21.742378 158.122480 40.588446
v 25.206295 140.751661 33.137404
v -0.659324 148.466591 52.685167
v 2.804591 131.095770 45.234120
v 41.545252 139.973734 -16.617145
v 41.007064 132.287055 -20.213098
v -21.884531 122.665305 29.874352
v -22.422719 114.978626 26.278400
v 63.631385 126.651087 8.555732
v 63.093202 118.964409 4.959780
v 0.201600 109.342657 55.047227
v -0.336580 101.655981 51.451279
v 2.645190 56.750239 31.430038
v 2.645192 225.146139 31.430044
v 6.539442 56.750247 31.369546
v 6.539440 225.146142 31.369561
v 2.712093 56.750250 35.737100
v 2.712092 225.146142 35.737111
v 6.606344 56.750247 35.676613
v 6.606340 225.146145 35.676620
# 124 vertices

vn -0.491629 -0.238927 -0.837386
vn -0.846975 0.354622 0.396077
vn 0.491629 0.238927 0.837386
vn 0.846975 -0.354622 -0.396077
vn -0.202321 -0.903968 0.376707
vn 0.202321 0.903968 -0.376707
vn -0.000000 1.000000 0.000000
vn 0.000000 1.000000 0.000000
vn 0.000000 1.000000 0.000000
vn 0.000000 1.000000 0.000000
vn -0.000000 1.000000 0.000000
vn 0.000000 1.000000 0.000000
vn 0.000000 1.000000 0.000000
vn -0.781066 -0.044247 -0.622879
vn -0.433459 -0.044247 0.900087
vn 0.973973 -0.044247 0.222303
vn 0.000000 -0.044247 -0.999021
vn -0.973973 -0.044247 0.222303
vn 0.433459 -0.044247 0.900087
vn 0.781066 -0.044247 -0.622879
vn -0.000000 1.000000 0.000000
vn -0.000000 1.000000 0.000000
vn -0.000000 1.000000 0.000000
vn 0.000000 1.000000 0.000000
vn 0.000000 1.000000 0.000000
vn 0.000000 1.000000 0.000000
vn 0.000000 1.000000 0.000000
vn 0.901171 0.381555 0.205686
vn 0.000000 0.381555 -0.924346
vn -0.901171 0.381555 0.205686
vn 0.401059 0.381555 0.832807
vn 0.722683 0.381555 -0.576320
vn -0.722683 0.381555 -0.576321
vn -0.401059 0.381555 0.832807
vn -0.571503 -0.369651 -0.732627
vn -0.819682 0.214943 0.530962
vn 0.571504 0.369650 0.732627
vn 0.819682 -0.214943 -0.530962
vn 0.038798 -0.903968 0.425837
vn -0.038798 0.903968 -0.425837
vn 0.414586 -0.427553 -0.803316
vn -0.887234 0.006351 -0.461276
vn -0.414586 0.427553 0.803316
vn 0.887234 -0.006351 0.461276
vn -0.202322 -0.903968 0.376707
vn 0.202322 0.903968 -0.376707
vn 0.414586 -0.427553 -0.803316
vn -0.887234 0.006351 -0.461276
vn -0.414586 0.427553 0.803316
vn 0.887234 -0.006351 0.461276
vn -0.202322 -0.903968 0.376707
vn 0.202322 0.903968 -0.376707
vn -0.571503 -0.369651 -0.732627
vn -0.819682 0.214943 0.530962
vn 0.571503 0.369651 0.732627
vn 0.819682 -0.214943 -0.530962
vn 0.038798 -0.903968 0.425837
vn -0.038798 0.903968 -0.425837
vn 0.042158 0.000000 -0.999111
vn 0.999111 0.000000 0.042159
vn -0.042158 -0.000000 0.999111
vn -0.999111 0.000000 -0.042159
vn 0.000000 -1.000000 0.000000
vn 0.612803 -0.369652 0.698448
vn 0.787697 0.214943 -0.577350
vn -0.612803 0.369651 -0.698449
vn -0.787697 -0.214943 0.577350
vn -0.063292 -0.903968 -0.422891
vn 0.063292 0.903968 0.422891
vn -0.367568 -0.427554 0.825888
vn 0.912359 0.006351 0.409341
vn 0.367568 0.427554 -0.825888
vn -0.912359 -0.006351 -0.409341
vn 0.180260 -0.903968 -0.387748
vn -0.180260 0.903968 0.387748
vn -0.367568 -0.427554 0.825888
vn 0.912360 0.006351 0.409341
vn 0.367568 0.427554 -0.825888
vn -0.912360 -0.006351 -0.409341
vn 0.180260 -0.903968 -0.387748
vn -0.180260 0.903968 0.387748
vn 0.539104 -0.238927 0.807639
vn 0.822723 0.354622 -0.444263
vn -0.539104 0.238926 -0.807640
vn -0.822723 -0.354622 0.444263
vn 0.180260 -0.903968 -0.387748
vn -0.180260 0.903968 0.387748
vn 0.612803 -0.369651 0.698448
vn 0.787697 0.214943 -0.577350
vn -0.612803 0.369651 -0.698449
vn -0.787697 -0.214943 0.577350
vn -0.063292 -0.903968 -0.422891
vn 0.063291 0.903968 0.422891
vn 0.015531 -0.000000 0.999879
vn -0.999879 -0.000000 0.015531
vn -0.015531 0.000000 -0.999879
vn 0.999879 -0.000000 -0.015531
vn 0.000001 -1.000000 0.000001
# 98 normals

vt 0.724163 0.846858 0.000000
vt 0.724163 0.811492 0.000000
vt 0.674050 0.811492 0.000000
vt 0.674050 0.846858 0.000000
vt 0.724163 0.895147 0.000000
vt 0.759529 0.895147 0.000000
vt 0.759529 0.846858 0.000000
vt 0.674050 0.895147 0.000000
vt 0.674050 0.930513 0.000000
vt 0.724163 0.930513 0.000000
vt 0.638684 0.846858 0.000000
vt 0.638684 0.895147 0.000000
vt 0.809642 0.895147 0.000000
vt 0.809642 0.846858 0.000000
vt 0.256623 0.315564 0.000000
vt 0.183838 0.298951 0.000000
vt 0.093445 0.412300 0.000000
vt 0.288884 0.456908 0.000000
vt 0.314993 0.194359 0.000000
vt 0.314993 0.269016 0.000000
vt 0.445614 0.331920 0.000000
vt 0.445614 0.131455 0.000000
vt 0.183838 0.164424 0.000000
vt 0.256623 0.147811 0.000000
vt 0.288884 0.006467 0.000000
vt 0.093445 0.051074 0.000000
vt 0.151446 0.231687 0.000000
vt 0.006467 0.231687 0.000000
vt 0.194773 0.469841 0.000000
vt 0.064862 0.503408 0.000000
vt 0.136091 0.581967 0.000000
vt 0.180089 0.574117 0.000000
vt 0.302697 0.685977 0.000000
vt 0.302697 0.550646 0.000000
vt 0.211501 0.602503 0.000000
vt 0.205209 0.644984 0.000000
vt 0.067116 0.746364 0.000000
vt 0.198811 0.770981 0.000000
vt 0.167294 0.670143 0.000000
vt 0.125621 0.659340 0.000000
vt 0.006467 0.625223 0.000000
vt 0.111765 0.619371 0.000000
vt 0.810199 0.671448 0.000000
vt 0.748986 0.798558 0.000000
vt 0.810199 0.749742 0.000000
vt 0.000000 1.000000 0.000000
vt 0.638684 0.710595 0.000000
vt 0.672655 0.781136 0.000000
vt 0.672655 0.640054 0.000000
vt 0.748986 0.622632 0.000000
vt 0.458548 0.392996 0.000000
vt 0.496541 0.599767 0.000000
vt 0.521799 0.590161 0.000000
vt 0.485570 0.392996 0.000000
vt 0.713420 0.006467 0.000000
vt 0.638684 0.202966 0.000000
vt 0.665262 0.207850 0.000000
vt 0.736526 0.020479 0.000000
vt 0.638684 0.413198 0.000000
vt 0.713420 0.609699 0.000000
vt 0.736526 0.595686 0.000000
vt 0.665262 0.408315 0.000000
vt 0.496541 0.186225 0.000000
vt 0.521799 0.195831 0.000000
vt 0.605558 0.779524 0.000000
vt 0.625751 0.761566 0.000000
vt 0.605558 0.006467 0.000000
vt 0.625751 0.024424 0.000000
vt 0.831440 0.362754 0.000000
vt 0.847090 0.362754 0.000000
vt 0.847090 0.214552 0.000000
vt 0.831440 0.214552 0.000000
vt 0.765109 0.362754 0.000000
vt 0.765109 0.378404 0.000000
vt 0.831440 0.378404 0.000000
vt 0.765109 0.214552 0.000000
vt 0.749459 0.214552 0.000000
vt 0.749459 0.362754 0.000000
vt 0.831440 0.198902 0.000000
vt 0.765109 0.198902 0.000000
vt 0.913421 0.214552 0.000000
vt 0.913421 0.362754 0.000000
vt 0.541301 0.919688 0.000000
vt 0.541301 0.939182 0.000000
vt 0.606257 0.939182 0.000000
vt 0.606257 0.919688 0.000000
vt 0.541301 0.811951 0.000000
vt 0.521808 0.811951 0.000000
vt 0.521808 0.919688 0.000000
vt 0.606257 0.811951 0.000000
vt 0.606257 0.792457 0.000000
vt 0.541301 0.792457 0.000000
vt 0.625751 0.919688 0.000000
vt 0.625751 0.811951 0.000000
vt 0.456852 0.811951 0.000000
vt 0.456852 0.919688 0.000000
vt 0.378219 0.541886 0.000000
vt 0.378219 0.559421 0.000000
vt 0.423272 0.559421 0.000000
vt 0.423272 0.541886 0.000000
vt 0.378219 0.487377 0.000000
vt 0.360684 0.487377 0.000000
vt 0.360684 0.541886 0.000000
vt 0.423272 0.487377 0.000000
vt 0.423272 0.469841 0.000000
vt 0.378219 0.469841 0.000000
vt 0.440808 0.541886 0.000000
vt 0.440808 0.487377 0.000000
vt 0.315630 0.487377 0.000000
vt 0.315630 0.541886 0.000000
vt 0.831440 0.170319 0.000000
vt 0.847090 0.170319 0.000000
vt 0.847090 0.022116 0.000000
vt 0.831440 0.022116 0.000000
vt 0.765109 0.170319 0.000000
vt 0.765109 0.185969 0.000000
vt 0.831440 0.185969 0.000000
vt 0.765109 0.022116 0.000000
vt 0.749459 0.022116 0.000000
vt 0.749459 0.170319 0.000000
vt 0.831440 0.006467 0.000000
vt 0.765109 0.006467 0.000000
vt 0.913421 0.022116 0.000000
vt 0.913421 0.170319 0.000000
vt 0.315828 0.959284 0.000000
vt 0.625751 0.959283 0.000000
vt 0.625751 0.952115 0.000000
vt 0.315828 0.952116 0.000000
vt 0.315829 0.967211 0.000000
vt 0.625751 0.967211 0.000000
vt 0.315829 0.974380 0.000000
vt 0.625751 0.974379 0.000000
vt 0.315829 0.982307 0.000000
vt 0.625751 0.982307 0.000000
vt 0.323558 0.572355 0.000000
vt 0.315630 0.572355 0.000000
vt 0.315630 0.579523 0.000000
vt 0.323558 0.579523 0.000000
vt 0.088448 0.947766 0.000000
vt 0.104098 0.947766 0.000000
vt 0.104098 0.799564 0.000000
vt 0.088448 0.799564 0.000000
vt 0.022116 0.947766 0.000000
vt 0.022116 0.963416 0.000000
vt 0.088448 0.963416 0.000000
vt 0.022116 0.799564 0.000000
vt 0.006467 0.799564 0.000000
vt 0.006467 0.947766 0.000000
vt 0.088448 0.783914 0.000000
vt 0.022117 0.783914 0.000000
vt 0.170429 0.799564 0.000000
vt 0.170429 0.947766 0.000000
vt 0.203846 0.917604 0.000000
vt 0.203846 0.938087 0.000000
vt 0.272099 0.938087 0.000000
vt 0.272099 0.917604 0.000000
vt 0.203846 0.804397 0.000000
vt 0.183362 0.804397 0.000000
vt 0.183363 0.917604 0.000000
vt 0.272099 0.804397 0.000000
vt 0.272099 0.783914 0.000000
vt 0.203846 0.783914 0.000000
vt 0.292583 0.917604 0.000000
vt 0.292583 0.804397 0.000000
vt 0.360836 0.917604 0.000000
vt 0.360836 0.804397 0.000000
vt 0.841557 0.698328 0.000000
vt 0.841557 0.716752 0.000000
vt 0.888894 0.716752 0.000000
vt 0.888894 0.698328 0.000000
vt 0.841557 0.641056 0.000000
vt 0.823133 0.641056 0.000000
vt 0.823133 0.698328 0.000000
vt 0.888894 0.641056 0.000000
vt 0.888894 0.622632 0.000000
vt 0.841557 0.622632 0.000000
vt 0.907318 0.698328 0.000000
vt 0.907318 0.641056 0.000000
vt 0.954655 0.698328 0.000000
vt 0.954655 0.641056 0.000000
vt 0.908054 0.846858 0.000000
vt 0.908054 0.811492 0.000000
vt 0.857942 0.811492 0.000000
vt 0.857942 0.846858 0.000000
vt 0.908054 0.895147 0.000000
vt 0.943421 0.895147 0.000000
vt 0.943421 0.846858 0.000000
vt 0.857942 0.895147 0.000000
vt 0.857942 0.930513 0.000000
vt 0.908054 0.930513 0.000000
vt 0.822575 0.846858 0.000000
vt 0.822575 0.895147 0.000000
vt 0.993533 0.895147 0.000000
vt 0.993533 0.846858 0.000000
vt 0.831440 0.555189 0.000000
vt 0.847090 0.555189 0.000000
vt 0.847090 0.406987 0.000000
vt 0.831440 0.406987 0.000000
vt 0.765109 0.555189 0.000000
vt 0.765109 0.570839 0.000000
vt 0.831440 0.570839 0.000000
vt 0.765109 0.406987 0.000000
vt 0.749459 0.406987 0.000000
vt 0.749459 0.555189 0.000000
vt 0.831440 0.391337 0.000000
vt 0.765109 0.391337 0.000000
vt 0.913421 0.406987 0.000000
vt 0.913421 0.555189 0.000000
vt 0.956534 0.958542 0.000000
vt 0.646612 0.958542 0.000000
vt 0.646612 0.965710 0.000000
vt 0.956534 0.965710 0.000000
vt 0.956534 0.950615 0.000000
vt 0.646612 0.950614 0.000000
vt 0.956534 0.943447 0.000000
vt 0.646612 0.943446 0.000000
vt 0.646612 0.973638 0.000000
vt 0.956534 0.973637 0.000000
vt 0.638684 0.943446 0.000000
vt 0.638684 0.950614 0.000000
# 220 texture coordinates

o rzezba
usemtl Material.008
f 3/1/1 4/2/1 2/3/1 1/4/1
f 7/5/2 8/6/2 4/7/2 3/1/2
f 5/8/3 6/9/3 8/10/3 7/5/3
f 1/4/4 2/11/4 6/12/4 5/8/4
f 1/4/5 5/8/5 7/5/5 3/1/5
f 6/13/6 2/14/6 4/7/6 8/6/6
f 21/15/7 22/16/8 15/17/8 14/18/7
f 19/19/9 20/20/10 13/21/10 12/22/9
f 17/23/11 18/24/12 11/25/12 10/26/11
f 22/16/8 16/27/13 9/28/13 15/17/8
f 20/20/10 21/15/7 14/18/7 13/21/10
f 18/24/12 19/19/9 12/22/9 11/25/12
f 16/27/13 17/23/11 10/26/11 9/28/13
f 25/29/14 26/30/14 19/31/14 18/32/14
f 23/33/15 24/34/15 17/35/15 16/36/15
f 28/37/16 29/38/16 22/39/16 21/40/16
f 26/30/17 27/41/17 20/42/17 19/31/17
f 24/34/18 25/29/18 18/32/18 17/35/18
f 29/38/19 23/33/19 16/36/19 22/39/19
f 27/41/20 28/37/20 21/40/20 20/42/20
f 23/43/21 29/50/27 28/49/26 27/47/24 26/48/25 25/44/22 24/46/0
f 36/51/28 35/52/28 14/53/28 15/54/28
f 34/55/29 33/56/29 12/57/29 13/58/29
f 32/59/30 30/60/30 10/61/30 11/62/30
f 31/63/31 36/51/31 15/54/31 9/64/31
f 35/52/32 34/65/32 13/66/32 14/53/32
f 33/56/33 32/59/33 11/62/33 12/57/33
f 30/67/34 31/63/34 9/64/34 10/68/34
f 39/69/35 40/70/35 38/71/35 37/72/35
f 43/73/36 44/74/36 40/75/36 39/69/36
f 41/76/37 42/77/37 44/78/37 43/73/37
f 37/72/38 38/79/38 42/80/38 41/76/38
f 37/72/39 41/76/39 43/73/39 39/69/39
f 42/81/40 38/71/40 40/70/40 44/82/40
f 47/83/41 48/84/41 46/85/41 45/86/41
f 51/87/42 52/88/42 48/89/42 47/83/42
f 49/90/43 50/91/43 52/92/43 51/87/43
f 45/86/44 46/93/44 50/94/44 49/90/44
f 45/86/45 49/90/45 51/87/45 47/83/45
f 50/95/46 46/96/46 48/89/46 52/88/46
f 55/97/47 56/98/47 54/99/47 53/100/47
f 59/101/48 60/102/48 56/103/48 55/97/48
f 57/104/49 58/105/49 60/106/49 59/101/49
f 53/100/50 54/107/50 58/108/50 57/104/50
f 53/100/51 57/104/51 59/101/51 55/97/51
f 58/109/52 54/110/52 56/103/52 60/102/52
f 63/111/53 64/112/53 62/113/53 61/114/53
f 67/115/54 68/116/54 64/117/54 63/111/54
f 65/118/55 66/119/55 68/120/55 67/115/55
f 61/114/56 62/121/56 66/122/56 65/118/56
f 61/114/57 65/118/57 67/115/57 63/111/57
f 66/123/58 62/113/58 64/112/58 68/124/58
f 71/125/59 72/126/59 70/127/59 69/128/59
f 75/129/60 76/130/60 72/126/60 71/125/60
f 73/131/61 74/132/61 76/130/61 75/129/61
f 69/133/62 70/134/62 74/132/62 73/131/62
f 74/135/63 70/136/63 72/137/63 76/138/63
f 79/139/64 80/140/64 78/141/64 77/142/64
f 83/143/65 84/144/65 80/145/65 79/139/65
f 81/146/66 82/147/66 84/148/66 83/143/66
f 77/142/67 78/149/67 82/150/67 81/146/67
f 77/142/68 81/146/68 83/143/68 79/139/68
f 82/151/69 78/141/69 80/140/69 84/152/69
f 87/153/70 88/154/70 86/155/70 85/156/70
f 91/157/71 92/158/71 88/159/71 87/153/71
f 89/160/72 90/161/72 92/162/72 91/157/72
f 85/156/73 86/163/73 90/164/73 89/160/73
f 85/156/74 89/160/74 91/157/74 87/153/74
f 90/164/75 86/163/75 88/165/75 92/166/75
f 95/167/76 96/168/76 94/169/76 93/170/76
f 99/171/77 100/172/77 96/173/77 95/167/77
f 97/174/78 98/175/78 100/176/78 99/171/78
f 93/170/79 94/177/79 98/178/79 97/174/79
f 93/170/80 97/174/80 99/171/80 95/167/80
f 98/178/81 94/177/81 96/179/81 100/180/81
f 103/181/82 104/182/82 102/183/82 101/184/82
f 107/185/83 108/186/83 104/187/83 103/181/83
f 105/188/84 106/189/84 108/190/84 107/185/84
f 101/184/85 102/191/85 106/192/85 105/188/85
f 101/184/86 105/188/86 107/185/86 103/181/86
f 106/193/87 102/194/87 104/187/87 108/186/87
f 111/195/88 112/196/88 110/197/88 109/198/88
f 115/199/89 116/200/89 112/201/89 111/195/89
f 113/202/90 114/203/90 116/204/90 115/199/90
f 109/198/91 110/205/91 114/206/91 113/202/91
f 109/198/92 113/202/92 115/199/92 111/195/92
f 114/207/93 110/197/93 112/196/93 116/208/93
f 119/209/94 120/210/94 118/211/94 117/212/94
f 123/213/95 124/214/95 120/210/95 119/209/95
f 121/215/96 122/216/96 124/214/96 123/213/96
f 117/212/97 118/211/97 122/217/97 121/218/97
f 122/216/98 118/219/98 120/220/98 124/214/98

