# Blender v2.82 (sub 7) OBJ File: ''
# www.blender.org
mtllib okno_b.male.mtl
o Plane_001_Mesh.002
v -4.834215 2.421754 -0.587968
v -5.638892 2.421754 -0.587968
v -4.834215 2.421754 -0.296367
v -5.638892 2.421754 -0.296367
v -4.834215 2.339815 -0.296367
v -4.834215 2.339815 -0.587968
v -5.638892 2.339815 -0.587968
v -5.638892 2.339816 -0.296367
v -4.238588 1.465660 -0.463278
v -6.238588 1.465660 -0.463278
v -4.238588 3.465660 -0.463278
v -6.238588 3.465660 -0.463278
v -4.871344 1.465660 -0.463278
v -5.600638 1.465660 -0.463278
v -5.600637 3.465660 -0.463278
v -4.871343 3.465660 -0.463278
v -4.238588 3.268156 -0.463278
v -4.238588 2.388854 -0.463278
v -6.238588 2.388854 -0.463278
v -6.238588 3.268156 -0.463278
v -4.871344 2.388854 -0.463278
v -4.871343 3.268156 -0.463278
v -5.600637 2.388854 -0.463278
v -5.600637 3.268156 -0.463278
v -4.871342 2.388854 -0.463278
v -4.871341 3.268156 -0.463278
v -5.600636 2.388854 -0.463278
v -5.600636 3.268156 -0.463278
v -4.871342 2.388854 -0.296675
v -4.871341 3.268156 -0.296675
v -5.600636 2.388854 -0.296675
v -5.600636 3.268156 -0.296675
vt 0.000000 0.000000
vt 1.000000 0.000000
vt 1.000000 1.000000
vt 0.000000 1.000000
vt 0.000000 0.000000
vt 0.000000 1.000000
vt 1.000000 1.000000
vt 1.000000 0.000000
vt 0.248469 0.261026
vt 0.248469 0.000000
vt 0.751531 0.000000
vt 0.751531 0.261026
vt 0.000000 0.261026
vt 0.000000 0.000000
vt 0.248469 0.738975
vt 0.000000 0.738975
vt 1.000000 0.000000
vt 1.000000 0.261026
vt 0.248469 1.000000
vt 0.000000 1.000000
vt 0.751531 0.738975
vt 0.751531 1.000000
vt 1.000000 0.738975
vt 1.000000 1.000000
vt 0.751531 0.261026
vt 0.751531 0.738975
vt 0.751531 0.738975
vt 0.751531 0.261026
vt 0.248469 0.261026
vt 0.248469 0.738975
vt 0.248469 0.738975
vt 0.248469 0.261026
vn 0.0000 1.0000 -0.0000
vn -0.0000 -1.0000 0.0000
vn -1.0000 0.0000 0.0000
vn 1.0000 0.0000 0.0000
vn -0.0000 0.0000 -1.0000
usemtl None
s 1
f 1/1/1 2/2/1 4/3/1 3/4/1
f 6/5/2 5/6/2 8/7/2 7/8/2
f 2/2/3 7/8/3 8/7/3 4/3/3
f 3/4/4 5/6/4 6/5/4 1/1/4
f 1/1/5 6/5/5 7/8/5 2/2/5
f 21/9/5 13/10/5 14/11/5 23/12/5
f 21/9/5 18/13/5 9/14/5 13/10/5
f 22/15/5 17/16/5 18/13/5 21/9/5
f 23/12/5 14/11/5 10/17/5 19/18/5
f 22/15/5 16/19/5 11/20/5 17/16/5
f 22/15/5 24/21/5 15/22/5 16/19/5
f 24/21/5 20/23/5 12/24/5 15/22/5
f 24/21/5 23/12/5 19/18/5 20/23/5
f 27/25/4 28/26/4 32/27/4 31/28/4
f 29/29/5 31/28/5 32/27/5 30/30/5
f 26/31/3 25/32/3 29/29/3 30/30/3
f 25/32/1 27/25/1 31/28/1 29/29/1
f 28/26/2 26/31/2 30/30/2 32/27/2
