# Blender v2.82 (sub 7) OBJ File: ''
# www.blender.org
mtllib okno_lewe.mtl
o Plane_400_Mesh.010
v -2.413277 1.579714 -0.463278
v -2.413277 3.368879 -0.463278
v -3.154625 1.579714 -0.463278
v -3.154624 3.368879 -0.463278
v -2.413277 1.579714 -0.296675
v -2.413277 3.368879 -0.296675
v -3.154625 1.579714 -0.296675
v -3.154624 3.368879 -0.296675
v 2.300799 1.465660 -0.463278
v 4.300799 1.465660 -0.463279
v 2.300799 3.465660 -0.463278
v 4.300799 3.465660 -0.463278
v 3.010775 1.465660 -0.463278
v 3.010775 3.465660 -0.463278
v 2.300799 3.251369 -0.463278
v 2.300799 2.247842 -0.463278
v 4.300799 2.247841 -0.463278
v 4.300799 3.251369 -0.463278
v 3.010775 2.247842 -0.463278
v 3.010775 3.251369 -0.463278
v 4.299837 2.295475 -0.587968
v 2.982057 2.295475 -0.587968
v 4.299837 2.295475 -0.296367
v 2.982057 2.295475 -0.296367
v 4.299837 2.213537 -0.296367
v 4.299837 2.213537 -0.587968
v 2.982057 2.213537 -0.587968
v 2.982057 2.213537 -0.296367
v 4.300800 2.247841 -0.463282
v 4.300800 3.251368 -0.463282
v 3.010777 2.247841 -0.463282
v 3.010777 3.251369 -0.463282
v 4.300800 2.247841 -0.296465
v 4.300800 3.251368 -0.296465
v 3.010777 2.247841 -0.296465
v 3.010777 3.251369 -0.296465
v -1.794940 1.465660 -0.463278
v -3.794940 1.465660 -0.463278
v -1.794940 3.465660 -0.463278
v -3.794940 3.465660 -0.463278
v -2.413275 1.465660 -0.463278
v -3.154622 1.465660 -0.463278
v -3.154622 3.465660 -0.463278
v -2.413274 3.465660 -0.463278
v -1.794940 3.368879 -0.463278
v -1.794940 1.579714 -0.463278
v -3.794940 1.579714 -0.463278
v -3.794940 3.368879 -0.463278
v -2.413275 1.579714 -0.463278
v -2.413274 3.368879 -0.463278
v -3.154622 1.579714 -0.463278
v -3.154622 3.368879 -0.463278
vt 0.000000 0.000000
vt 0.000000 0.261026
vt 0.000000 0.738975
vt 0.000000 1.000000
vt 0.248469 1.000000
vt 1.000000 1.000000
vt 1.000000 0.738975
vt 0.248469 0.738975
vt 0.248469 0.261026
vt 1.000000 0.261026
vt 1.000000 0.000000
vt 0.248469 0.000000
vt 0.751531 0.261026
vt 0.751531 0.738975
vt 0.751531 0.738975
vt 0.751531 0.261026
vt 0.248469 0.261026
vt 0.248469 0.738975
vt 0.248469 0.738975
vt 0.248469 0.261026
vt 0.000000 0.000000
vt 1.000000 0.000000
vt 1.000000 1.000000
vt 0.000000 1.000000
vt 0.000000 0.000000
vt 0.000000 1.000000
vt 1.000000 1.000000
vt 1.000000 0.000000
vt 0.248469 0.261026
vt 1.000000 0.261026
vt 1.000000 0.261026
vt 0.248469 0.261026
vt 0.248469 0.738975
vt 1.000000 0.738975
vt 1.000000 0.738975
vt 0.248469 0.738975
vt 0.000000 0.000000
vt 0.000000 0.000000
vt 0.000000 0.000000
vt 0.000000 0.000000
vt 0.751531 0.261026
vt 0.248469 0.261026
vt 0.248469 0.000000
vt 0.751531 0.000000
vt 0.000000 0.261026
vt 0.000000 0.000000
vt 0.248469 0.738975
vt 0.000000 0.738975
vt 1.000000 0.261026
vt 1.000000 0.000000
vt 0.248469 1.000000
vt 0.000000 1.000000
vt 0.751531 0.738975
vt 0.751531 1.000000
vt 1.000000 0.738975
vt 1.000000 1.000000
vn -0.0000 0.0000 -1.0000
vn 1.0000 -0.0000 0.0000
vn -1.0000 0.0000 0.0000
vn 0.0000 1.0000 0.0000
vn 0.0000 -1.0000 0.0000
usemtl None
s 1
f 9/1/1 16/2/1 15/3/1 11/4/1 14/5/1 12/6/1 18/7/1 20/8/1 19/9/1 17/10/1 10/11/1 13/12/1
f 3/13/2 4/14/2 8/15/2 7/16/2
f 5/17/1 7/16/1 8/15/1 6/18/1
f 2/19/3 1/20/3 5/17/3 6/18/3
f 1/20/4 3/13/4 7/16/4 5/17/4
f 4/14/5 2/19/5 6/18/5 8/15/5
f 21/21/4 22/22/4 24/23/4 23/24/4
f 26/25/5 25/26/5 28/27/5 27/28/5
f 22/22/3 27/28/3 28/27/3 24/23/3
f 23/24/2 25/26/2 26/25/2 21/21/2
f 21/21/1 26/25/1 27/28/1 22/22/1
f 31/29/5 29/30/5 33/31/5 35/32/5
f 33/31/1 35/32/1 36/33/1 34/34/1
f 30/35/4 32/36/4 36/33/4 34/34/4
f 35/32/2 31/29/2 32/36/2 36/33/2
f 34/37/3 30/38/3 29/39/3 33/40/3
f 51/41/1 49/42/1 41/43/1 42/44/1
f 46/45/1 37/46/1 41/43/1 49/42/1
f 50/47/1 45/48/1 46/45/1 49/42/1
f 47/49/1 51/41/1 42/44/1 38/50/1
f 50/47/1 44/51/1 39/52/1 45/48/1
f 50/47/1 52/53/1 43/54/1 44/51/1
f 52/53/1 48/55/1 40/56/1 43/54/1
f 51/41/1 47/49/1 48/55/1 52/53/1
