{
	"asset":{
		"version":"2.0",
		"generator":"Created using the official Cinema 4D glTF Exporter 1.000x284978"
	},
	"scenes":[{
		"nodes":[0]
	}],
	"meshes":[{
		"name":"Plane_004_Mesh.003",
		"primitives":[{
			"attributes":{
				"POSITION":1,
				"NORMAL":2,
				"TEXCOORD_0":3
			},
			"indices":0,
			"material":0
		}]
	}],
	"nodes":[{
		"name":"Plane_004_Mesh.003",
		"mesh":0
	}],
	"accessors":[{
		"bufferView":0,
		"type":"SCALAR",
		"componentType":5123,
		"count":108,
		"byteOffset":0,
		"min":[0],
		"max":[55]
	},
	{
		"bufferView":1,
		"type":"VEC3",
		"componentType":5126,
		"count":56,
		"byteOffset":0,
		"min":[12.093884468078614,
		1.4656599760055543,
		-0.5886819958686829],
		"max":[14.093884468078614,
		3.4656600952148439,
		-0.2966749966144562]
	},
	{
		"bufferView":1,
		"type":"VEC3",
		"componentType":5126,
		"count":56,
		"byteOffset":12,
		"min":[-1.0,
		-1.0,
		-1.0],
		"max":[1.0,
		1.0,
		0.0]
	},
	{
		"bufferView":1,
		"type":"VEC2",
		"componentType":5126,
		"count":56,
		"byteOffset":24,
		"min":[0.0,
		0.0],
		"max":[1.0,
		1.0]
	}],
	"bufferViews":[{
		"buffer":0,
		"byteOffset":0,
		"byteLength":216,
		"target":34963
	},
	{
		"buffer":0,
		"byteOffset":216,
		"byteLength":1792,
		"target":34962,
		"byteStride":32
	}],
	"buffers":[{
		"uri":"data:application/octet-stream;base64,",
		"byteLength":2008
	}],
	"materials":[{
		"alphaMode":"OPAQUE",
		"pbrMetallicRoughness":{
			"baseColorFactor":[1.0,
			1.0,
			1.0,
			1.0],
			"metallicFactor":0.0,
			"roughnessFactor":0.5
		},
		"emissiveFactor":[0.0,
		0.0,
		0.0],
		"doubleSided":false,
		"name":"None"
	}]
}