# WaveFront *.obj file (generated by Cinema 4D)

mtllib ./zywoplot.mtl

v -19.398446 -9.076604 584.500093
v -20.563180 -9.076604 741.855978
v -18.271461 -9.076604 871.655293
v -20.563180 -9.076604 774.845040
v 21.978936 -9.076604 584.888332
v -20.563180 -9.076604 807.834093
v 22.949546 -9.076604 873.812209
v -20.563180 -9.076604 840.823156
v -19.448019 51.463596 590.607728
v -23.388834 47.838393 580.403790
v -14.733402 51.463596 862.929946
v -17.139179 47.838393 870.172416
v 21.654801 51.463596 590.995967
v 23.582958 47.838393 582.540230
v 19.120427 51.463596 865.086862
v 21.183388 47.838393 871.520488
v -20.563180 -9.076604 708.866920
v -20.563180 -9.076604 675.877861
v -20.563180 -9.076604 642.888807
v -20.563180 -9.076604 609.899745
v 22.949546 -9.076604 609.899745
v 22.949546 -9.076604 642.888807
v 22.949546 -9.076604 675.877861
v 22.949546 -9.076604 708.866922
v 22.949546 -9.076604 741.855980
v 22.949546 -9.076604 774.845040
v 22.949546 -9.076604 807.834093
v 22.949546 -9.076604 840.823156
v -20.612750 51.463596 616.476426
v -20.612750 51.463596 647.586440
v -19.501360 48.559936 682.015993
v -19.501360 48.559936 707.157790
v -22.625411 51.463596 740.916459
v -22.625411 52.469924 772.026463
v -22.625411 52.469924 803.136469
v -18.912419 52.469924 834.246475
v -24.553567 48.844723 840.823156
v -24.553567 48.844723 807.834093
v -24.553567 48.844723 774.845040
v -24.553567 47.838393 741.855978
v -24.553567 44.819404 709.202363
v -24.553567 44.819404 676.213303
v -24.553567 47.838393 642.888807
v -24.553567 47.838393 609.899745
v 18.264649 52.469924 834.246475
v 15.245659 52.469924 803.136460
v 19.606420 52.469924 772.026454
v 19.606420 51.463596 740.916447
v 20.853072 48.444608 710.141885
v 20.853072 48.444608 679.031879
v 22.625411 51.463596 647.586431
v 22.625411 51.463596 616.476426
v 26.112824 47.838393 609.899745
v 26.112824 47.838393 642.888807
v 22.781229 44.819404 676.213303
v 22.781229 44.819404 709.202365
v 24.553567 47.838393 741.855980
v 24.553567 48.844723 774.845040
v 26.303398 48.844723 807.834093
v 26.303398 48.844723 840.823156
v 21.978936 9.895062 582.540230
v 23.582958 28.866728 582.540230
v -23.388834 28.866726 580.403790
v -19.398446 9.895061 582.152000
v -17.813214 28.866726 873.093667
v -18.271461 9.895061 874.980966
v 24.553567 28.866726 873.812209
v 22.949546 9.895061 873.812209
v -24.553567 28.866726 609.899745
v -20.563180 9.895061 609.899745
v -24.553567 28.866726 642.888807
v -20.563180 9.895061 642.888807
v -24.553567 28.866726 675.877861
v -20.563180 9.895061 675.877861
v -24.553567 28.866726 708.866920
v -20.563180 9.895061 708.866920
v -24.553567 28.866726 741.855978
v -20.563180 9.895061 741.855978
v -24.553567 28.866726 774.845040
v -20.563180 9.895061 774.845040
v -24.553567 28.866726 807.834093
v -20.563180 9.895061 807.834093
v -24.553567 28.866726 840.823156
v -20.563180 9.895061 840.823156
v 26.303398 28.866726 840.823156
v 22.949546 9.895061 840.823156
v 26.303398 28.866726 807.834093
v 22.949546 9.895061 807.834093
v 24.553567 28.866726 774.845040
v 22.949546 9.895061 774.845040
v 24.553567 28.866726 741.855980
v 22.949546 9.895061 741.855980
v 24.553567 28.866726 708.866922
v 22.949546 9.895061 708.866922
v 24.553567 28.866726 675.877861
v 22.949546 9.895061 675.877861
v 26.112824 28.866726 642.888807
v 22.949546 9.895061 642.888807
v 26.112824 28.866726 609.899745
v 22.949546 9.895061 609.899745
v 8.858557 -9.076604 875.969126
v -7.510487 -9.076604 875.969126
v -8.184522 -9.076604 579.258794
v 8.184522 -9.076604 579.258794
v -3.828811 51.463596 865.356480
v 7.541804 51.463596 865.356480
v 8.858557 47.838393 879.294799
v -7.510487 47.838393 879.294799
v 7.541803 51.463596 585.366420
v -5.529145 51.463596 585.366420
v -8.184522 47.838393 575.162482
v 8.184522 47.838393 575.162482
v -3.828811 54.543365 834.246475
v 3.181043 54.543365 834.246475
v -7.541803 54.543365 803.136469
v 4.522816 54.543365 803.136460
v -6.654519 51.542629 770.196433
v 3.635532 51.542629 770.196433
v -6.654519 52.728140 742.746480
v 3.635532 52.728140 742.746476
v -7.311424 50.074514 707.157786
v 7.541804 50.318718 710.141889
v -7.311424 48.988690 682.015988
v 7.541804 48.975138 679.031884
v -5.529145 54.531694 647.586440
v 7.541804 54.531694 647.586440
v -5.529145 54.531694 616.476426
v 7.541804 54.531694 616.476426
v 8.184522 9.895061 576.910691
v -8.184522 9.895061 576.910691
v 8.184522 28.866727 575.162482
v -8.184522 28.866726 575.162482
v -7.510487 9.895061 879.294799
v 8.858557 9.895061 879.294799
v -7.510487 28.866726 879.294799
v 8.858557 28.866726 879.294799
# 136 vertices

vn -0.099816 0.993828 -0.048395
vn 0.995752 0.000000 -0.092075
vn 0.653225 0.755954 0.042781
vn -0.973515 0.036187 0.225741
vn 0.431384 0.097695 0.896863
vn -0.537213 0.831728 0.140108
vn 0.133865 0.932773 0.334686
vn 0.749919 0.659611 -0.050357
vn -0.108875 0.947163 -0.301709
vn -0.325905 0.000000 -0.945402
vn 0.376510 0.926166 -0.021382
vn 0.456099 0.889916 0.004794
vn 0.597179 0.801713 -0.025193
vn 0.749482 0.657776 -0.074879
vn 0.882887 0.469586 0.000000
vn 0.855798 0.504922 0.112532
vn 0.720670 0.693278 0.000000
vn -0.644414 0.764192 -0.027206
vn -0.677021 0.735964 0.000000
vn -0.685640 0.724049 0.075179
vn -0.595038 0.803697 0.000000
vn -0.771466 0.630541 -0.085197
vn -0.885851 0.463741 -0.014576
vn -0.882887 0.469586 0.000000
vn -0.695040 0.717230 0.050004
vn -0.999221 0.000000 -0.039457
vn -1.000000 0.000000 0.000000
vn 0.989885 0.090899 0.108926
vn 1.000000 0.000000 0.000000
vn 0.998596 0.000000 -0.052968
vn 0.997920 0.055879 -0.032135
vn 0.993885 0.110420 0.000000
vn 0.995802 0.054763 0.073339
vn -0.079097 0.993916 0.076647
vn -0.136165 0.990553 0.016251
vn -0.039038 0.998131 -0.047026
vn -0.006215 0.999966 0.005429
vn -0.096613 0.991717 -0.084633
vn -0.079265 0.996623 -0.021436
vn -0.117090 0.985425 0.123403
vn -0.199324 0.979934 0.000000
vn 0.986383 -0.164467 0.000000
vn 0.991958 -0.124403 0.023311
vn 0.996445 -0.084248 0.000000
vn 0.991255 -0.129284 -0.026427
vn 0.984731 -0.174083 0.000000
vn 0.991272 -0.129223 0.026117
vn -0.978588 -0.205830 0.000000
vn -0.999033 -0.002835 -0.043873
vn -0.977430 -0.207476 -0.039812
vn -0.420788 -0.111428 -0.900289
vn -0.372736 -0.118739 -0.920309
vn 0.258329 -0.086196 0.962204
vn 0.346215 -0.013939 0.938052
vn -0.997492 -0.005867 0.070532
vn -0.987307 -0.081558 0.136282
vn 0.999309 -0.002194 -0.037116
vn 0.990217 -0.124281 -0.063438
vn -0.444936 0.050630 0.894130
vn 0.000000 0.000000 1.000000
vn -0.367264 -0.160598 0.916147
vn 0.000000 -0.172665 0.984981
vn 0.404438 -0.057418 -0.912761
vn 0.000000 -0.091761 -0.995781
vn 0.375391 -0.113848 -0.919848
vn 0.000000 -0.122831 -0.992428
vn 0.199324 0.979934 0.000000
vn 0.000000 1.000000 0.000000
vn 0.118474 0.983781 0.134681
vn 0.017921 0.985886 0.166454
vn 0.089735 0.995732 -0.021589
vn -0.007757 0.999039 -0.043147
vn 0.103577 0.991744 -0.075597
vn -0.000731 0.997257 -0.074014
vn 0.014799 0.999876 0.005373
vn 0.000000 0.999069 0.043148
vn 0.071759 0.996920 -0.031651
vn 0.000000 0.995876 -0.090721
vn 0.163077 0.986610 -0.002514
vn 0.068435 0.996093 0.055809
vn 0.000000 0.995136 0.098514
vn 0.432088 0.000000 -0.901831
vn 0.000000 0.000000 -1.000000
vn 0.149386 0.927713 -0.342099
vn 0.000000 0.942298 -0.334775
vn -0.142628 0.939083 0.312699
vn 0.000000 0.967801 0.251715
vn -0.604050 0.074934 0.793416
vn 0.119730 0.991388 -0.053057
vn 0.000000 0.995172 -0.098145
# 90 normals

vt 0.505081 0.825150 0.000000
vt 0.539154 0.815535 0.000000
vt 0.542634 0.752125 0.000000
vt 0.505934 0.751906 0.000000
vt 0.382463 0.835788 0.000000
vt 0.429522 0.834804 0.000000
vt 0.427213 0.767977 0.000000
vt 0.381573 0.768435 0.000000
vt 0.439731 0.139843 0.000000
vt 0.432722 0.211126 0.000000
vt 0.451162 0.226391 0.000000
vt 0.450756 0.155660 0.000000
vt 0.582383 0.132971 0.000000
vt 0.538335 0.144964 0.000000
vt 0.546450 0.213375 0.000000
vt 0.590840 0.209099 0.000000
vt 0.444283 0.097610 0.000000
vt 0.451139 0.137574 0.000000
vt 0.478194 0.131483 0.000000
vt 0.477914 0.097309 0.000000
vt 0.525807 0.162217 0.000000
vt 0.533064 0.228044 0.000000
vt 0.476464 0.157911 0.000000
vt 0.441043 0.814068 0.000000
vt 0.438710 0.752266 0.000000
vt 0.508952 0.848459 0.000000
vt 0.545056 0.844694 0.000000
vt 0.545632 0.890459 0.000000
vt 0.508212 0.889671 0.000000
vt 0.429381 0.285063 0.000000
vt 0.455382 0.296693 0.000000
vt 0.429647 0.361692 0.000000
vt 0.444023 0.368672 0.000000
vt 0.428680 0.440293 0.000000
vt 0.442995 0.442502 0.000000
vt 0.425669 0.521713 0.000000
vt 0.436653 0.519143 0.000000
vt 0.425514 0.607043 0.000000
vt 0.437153 0.600086 0.000000
vt 0.427132 0.689849 0.000000
vt 0.438047 0.678584 0.000000
vt 0.553435 0.840858 0.000000
vt 0.555120 0.768126 0.000000
vt 0.554917 0.688354 0.000000
vt 0.542371 0.677211 0.000000
vt 0.558281 0.605451 0.000000
vt 0.541374 0.591113 0.000000
vt 0.557479 0.520847 0.000000
vt 0.540877 0.525980 0.000000
vt 0.553602 0.439933 0.000000
vt 0.544154 0.441897 0.000000
vt 0.552042 0.362188 0.000000
vt 0.542533 0.368764 0.000000
vt 0.550689 0.286431 0.000000
vt 0.541840 0.297398 0.000000
vt 0.601498 0.768362 0.000000
vt 0.600834 0.841515 0.000000
vt 0.601092 0.687309 0.000000
vt 0.598746 0.605300 0.000000
vt 0.597951 0.522091 0.000000
vt 0.599200 0.440678 0.000000
vt 0.598855 0.361667 0.000000
vt 0.596331 0.284447 0.000000
vt 0.387439 0.207506 0.000000
vt 0.394441 0.130193 0.000000
vt 0.383478 0.283871 0.000000
vt 0.382221 0.361852 0.000000
vt 0.382841 0.441527 0.000000
vt 0.384815 0.523279 0.000000
vt 0.384473 0.606882 0.000000
vt 0.381797 0.688546 0.000000
vt 0.499697 0.227613 0.000000
vt 0.501166 0.158411 0.000000
vt 0.507431 0.297413 0.000000
vt 0.505405 0.373545 0.000000
vt 0.505845 0.438328 0.000000
vt 0.509224 0.526438 0.000000
vt 0.509829 0.591198 0.000000
vt 0.505476 0.677673 0.000000
vt 0.287754 0.768963 0.000000
vt 0.334599 0.768869 0.000000
vt 0.334860 0.687780 0.000000
vt 0.288032 0.687285 0.000000
vt 0.336633 0.606051 0.000000
vt 0.289401 0.605480 0.000000
vt 0.337085 0.523543 0.000000
vt 0.289922 0.523514 0.000000
vt 0.336334 0.441917 0.000000
vt 0.289701 0.441890 0.000000
vt 0.336461 0.361548 0.000000
vt 0.290346 0.360838 0.000000
vt 0.338149 0.282409 0.000000
vt 0.292625 0.280577 0.000000
vt 0.342402 0.204283 0.000000
vt 0.297219 0.201187 0.000000
vt 0.349048 0.126085 0.000000
vt 0.303710 0.122351 0.000000
vt 0.680436 0.200064 0.000000
vt 0.635506 0.204207 0.000000
vt 0.641663 0.281866 0.000000
vt 0.686946 0.279006 0.000000
vt 0.645059 0.360530 0.000000
vt 0.690973 0.358972 0.000000
vt 0.646358 0.440527 0.000000
vt 0.692909 0.439887 0.000000
vt 0.646448 0.521994 0.000000
vt 0.693633 0.521561 0.000000
vt 0.647365 0.604474 0.000000
vt 0.694724 0.603771 0.000000
vt 0.648944 0.686641 0.000000
vt 0.696136 0.686078 0.000000
vt 0.649424 0.768535 0.000000
vt 0.696685 0.768388 0.000000
vt 0.649297 0.837754 0.000000
vt 0.696685 0.831909 0.000000
vt 0.532726 0.981777 0.000000
vt 0.535405 0.935911 0.000000
vt 0.506060 0.933261 0.000000
vt 0.503157 0.978500 0.000000
vt 0.451033 0.018223 0.000000
vt 0.448465 0.057903 0.000000
vt 0.479465 0.059590 0.000000
vt 0.480848 0.020153 0.000000
vt 0.672685 0.126633 0.000000
vt 0.626840 0.123553 0.000000
vt 0.288187 0.831029 0.000000
vt 0.335257 0.836496 0.000000
vt 0.512386 0.061523 0.000000
vt 0.509641 0.099198 0.000000
vt 0.533747 0.102916 0.000000
vt 0.536271 0.062713 0.000000
vt 0.515020 0.021964 0.000000
vt 0.539421 0.022293 0.000000
vt 0.467825 0.930573 0.000000
vt 0.471606 0.887301 0.000000
vt 0.432490 0.883178 0.000000
vt 0.432672 0.928496 0.000000
vt 0.464118 0.975631 0.000000
vt 0.428510 0.974038 0.000000
vt 0.475022 0.751944 0.000000
vt 0.474471 0.678014 0.000000
vt 0.471740 0.599106 0.000000
vt 0.471235 0.519197 0.000000
vt 0.481406 0.438513 0.000000
vt 0.481419 0.373530 0.000000
vt 0.480150 0.297150 0.000000
vt 0.484602 0.227364 0.000000
vt 0.475604 0.847114 0.000000
vt 0.438811 0.838454 0.000000
vt 0.475307 0.824833 0.000000
vt 0.527444 0.142392 0.000000
vt 0.505355 0.132241 0.000000
# 152 texture coordinates

o zywoplot
usemtl Material.010
f 110/1/1 9/2/1 29/3/1 127/4/1
f 62/5/2 14/6/2 53/7/2 99/8/2
f 16/9/3 60/10/3 45/11/3 15/12/3
f 65/13/4 12/14/4 37/15/4 83/16/4
f 67/17/5 16/18/5 107/19/5 136/20/5
f 37/15/6 12/14/6 11/21/6 36/22/6
f 107/19/7 16/18/7 15/12/7 106/23/7
f 53/7/8 14/6/8 13/24/8 52/25/8
f 111/26/9 10/27/9 9/2/9 110/1/9
f 63/28/10 10/27/10 111/26/10 132/29/10
f 60/10/11 59/30/11 46/31/11 45/11/11
f 59/30/12 58/32/12 47/33/12 46/31/12
f 58/32/13 57/34/13 48/35/13 47/33/13
f 57/34/14 56/36/14 49/37/14 48/35/14
f 56/36/15 55/38/15 50/39/15 49/37/15
f 55/38/16 54/40/16 51/41/16 50/39/16
f 54/40/17 53/7/17 52/25/17 51/41/17
f 10/42/18 44/43/18 29/3/18 9/2/18
f 44/43/19 43/44/19 30/45/19 29/3/19
f 43/44/20 42/46/20 31/47/20 30/45/20
f 42/46/21 41/48/21 32/49/21 31/47/21
f 41/48/22 40/50/22 33/51/22 32/49/22
f 40/50/23 39/52/23 34/53/23 33/51/23
f 39/52/24 38/54/24 35/55/24 34/53/24
f 38/54/25 37/15/25 36/22/25 35/55/25
f 69/56/26 44/43/26 10/42/26 63/57/26
f 71/58/27 43/44/27 44/43/27 69/56/27
f 73/59/27 42/46/27 43/44/27 71/58/27
f 75/60/27 41/48/27 42/46/27 73/59/27
f 77/61/27 40/50/27 41/48/27 75/60/27
f 79/62/27 39/52/27 40/50/27 77/61/27
f 81/63/27 38/54/27 39/52/27 79/62/27
f 83/16/27 37/15/27 38/54/27 81/63/27
f 85/64/28 60/10/28 16/9/28 67/65/28
f 87/66/29 59/30/29 60/10/29 85/64/29
f 89/67/30 58/32/30 59/30/30 87/66/30
f 91/68/29 57/34/29 58/32/29 89/67/29
f 93/69/31 56/36/31 57/34/31 91/68/31
f 95/70/32 55/38/32 56/36/32 93/69/32
f 97/71/33 54/40/33 55/38/33 95/70/33
f 99/8/29 53/7/29 54/40/29 97/71/29
f 113/72/34 36/22/34 11/21/34 105/73/34
f 115/74/35 35/55/35 36/22/35 113/72/35
f 117/75/36 34/53/36 35/55/36 115/74/36
f 119/76/37 33/51/37 34/53/37 117/75/37
f 121/77/38 32/49/38 33/51/38 119/76/38
f 123/78/39 31/47/39 32/49/39 121/77/39
f 125/79/40 30/45/40 31/47/40 123/78/40
f 127/4/41 29/3/41 30/45/41 125/79/41
f 21/80/29 100/81/29 98/82/29 22/83/29
f 100/81/42 99/8/42 97/71/42 98/82/42
f 22/83/29 98/82/29 96/84/29 23/85/29
f 98/82/43 97/71/43 95/70/43 96/84/43
f 23/85/29 96/84/29 94/86/29 24/87/29
f 96/84/44 95/70/44 93/69/44 94/86/44
f 24/87/29 94/86/29 92/88/29 25/89/29
f 94/86/44 93/69/44 91/68/44 92/88/44
f 25/89/29 92/88/29 90/90/29 26/91/29
f 92/88/44 91/68/44 89/67/44 90/90/44
f 26/91/29 90/90/29 88/92/29 27/93/29
f 90/90/45 89/67/45 87/66/45 88/92/45
f 27/93/29 88/92/29 86/94/29 28/95/29
f 88/92/46 87/66/46 85/64/46 86/94/46
f 28/95/29 86/94/29 68/96/29 7/97/29
f 86/94/47 85/64/47 67/65/47 68/96/47
f 8/98/27 84/99/27 82/100/27 6/101/27
f 84/99/48 83/16/48 81/63/48 82/100/48
f 6/101/27 82/100/27 80/102/27 4/103/27
f 82/100/48 81/63/48 79/62/48 80/102/48
f 4/103/27 80/102/27 78/104/27 2/105/27
f 80/102/48 79/62/48 77/61/48 78/104/48
f 2/105/27 78/104/27 76/106/27 17/107/27
f 78/104/48 77/61/48 75/60/48 76/106/48
f 17/107/27 76/106/27 74/108/27 18/109/27
f 76/106/48 75/60/48 73/59/48 74/108/48
f 18/109/27 74/108/27 72/110/27 19/111/27
f 74/108/48 73/59/48 71/58/48 72/110/48
f 19/111/27 72/110/27 70/112/27 20/113/27
f 72/110/48 71/58/48 69/56/48 70/112/48
f 20/113/49 70/112/49 64/114/49 1/115/49
f 70/112/50 69/56/50 63/57/50 64/114/50
f 1/116/51 64/117/51 130/118/51 103/119/51
f 64/117/52 63/28/52 132/29/52 130/118/52
f 7/120/53 68/121/53 134/122/53 101/123/53
f 68/121/54 67/17/54 136/20/54 134/122/54
f 3/124/55 66/125/55 84/99/55 8/98/55
f 66/125/56 65/13/56 83/16/56 84/99/56
f 5/126/57 61/127/57 100/81/57 21/80/57
f 61/127/58 62/5/58 99/8/58 100/81/58
f 133/128/59 135/129/59 65/130/59 66/131/59
f 134/122/60 136/20/60 135/129/60 133/128/60
f 102/132/61 133/128/61 66/131/61 3/133/61
f 101/123/62 134/122/62 133/128/62 102/132/62
f 129/134/63 131/135/63 62/136/63 61/137/63
f 130/118/64 132/29/64 131/135/64 129/134/64
f 104/138/65 129/134/65 61/137/65 5/139/65
f 103/119/66 130/118/66 129/134/66 104/138/66
f 52/25/67 128/140/67 126/141/67 51/41/67
f 128/140/68 127/4/68 125/79/68 126/141/68
f 51/41/69 126/141/69 124/142/69 50/39/69
f 126/141/70 125/79/70 123/78/70 124/142/70
f 50/39/71 124/142/71 122/143/71 49/37/71
f 124/142/72 123/78/72 121/77/72 122/143/72
f 49/37/73 122/143/73 120/144/73 48/35/73
f 122/143/74 121/77/74 119/76/74 120/144/74
f 48/35/75 120/144/75 118/145/75 47/33/75
f 120/144/76 119/76/76 117/75/76 118/145/76
f 47/33/77 118/145/77 116/146/77 46/31/77
f 118/145/78 117/75/78 115/74/78 116/146/78
f 46/31/79 116/146/79 114/147/79 45/11/79
f 116/146/68 115/74/68 113/72/68 114/147/68
f 45/11/80 114/147/80 106/23/80 15/12/80
f 114/147/81 113/72/81 105/73/81 106/23/81
f 131/135/82 112/148/82 14/149/82 62/136/82
f 132/29/83 111/26/83 112/148/83 131/135/83
f 14/149/84 112/148/84 109/150/84 13/24/84
f 112/148/85 111/26/85 110/1/85 109/150/85
f 12/151/86 108/152/86 105/73/86 11/21/86
f 108/152/87 107/19/87 106/23/87 105/73/87
f 135/129/88 108/152/88 12/151/88 65/130/88
f 136/20/60 107/19/60 108/152/60 135/129/60
f 13/24/89 109/150/89 128/140/89 52/25/89
f 109/150/90 110/1/90 127/4/90 128/140/90

