# WaveFront *.obj file (generated by Cinema 4D)

mtllib ./fotowoltaika.mtl

v 96.158056 23.384402 178.049848
v 90.355158 16.479704 178.049847
v 96.158085 23.384453 -178.049853
v 90.355187 16.479755 -178.049854
v -56.950669 152.061200 178.049854
v -62.753567 145.156502 178.049853
v -56.950639 152.061251 -178.049847
v -62.753538 145.156553 -178.049848
v -54.063658 24.848054 156.387887
v -54.063643 141.005799 156.387904
v -54.063658 24.848053 163.603911
v -54.063644 141.005798 163.603928
v -48.450945 24.848054 156.387887
v -48.450937 141.005804 156.387904
v -48.450945 24.848053 163.603912
v -48.450938 141.005803 163.603928
v -54.063660 17.525589 156.387886
v -54.063660 17.525588 163.603910
v -48.450947 17.525589 156.387886
v -48.450947 17.525588 163.603911
v 88.113047 24.848041 156.387899
v 88.113046 24.848040 163.603923
v 88.113038 17.525574 156.387898
v 88.113037 17.525573 163.603922
v -54.063631 24.848100 -161.041071
v -54.063617 141.005844 -161.041055
v -54.063632 24.848099 -153.825047
v -54.063617 141.005843 -153.825030
v -48.450919 24.848100 -161.041071
v -48.450911 141.005850 -161.041054
v -48.450919 24.848099 -153.825047
v -48.450911 141.005849 -153.825030
v -54.063633 17.525635 -161.041073
v -54.063634 17.525634 -153.825048
v -48.450920 17.525634 -161.041072
v -48.450921 17.525633 -153.825048
v 88.113073 24.848086 -161.041060
v 88.113073 24.848085 -153.825035
v 88.113064 17.525619 -161.041061
v 88.113064 17.525618 -153.825036
# 40 vertices

vn 0.643384 0.765544 0.000000
vn 0.000000 0.000000 -1.000000
vn -0.765543 0.643384 0.000000
vn -0.643384 -0.765544 -0.000000
vn 0.765543 -0.643384 -0.000000
vn 0.000000 0.000000 1.000000
vn -1.000000 0.000000 -0.000000
vn -1.000000 0.000000 -0.000000
vn -0.000000 -0.000000 1.000000
vn 0.000000 -0.000000 1.000000
vn 0.000000 -0.000000 1.000000
vn 1.000000 -0.000000 0.000001
vn 0.000001 0.000001 -1.000000
vn 0.000000 0.000000 -1.000000
vn 0.000000 0.000000 -1.000000
vn 0.000000 1.000000 0.000000
vn 0.000001 0.000001 -1.000000
vn 0.000001 0.000001 -1.000000
vn -0.000000 -0.000000 1.000000
vn -1.000000 0.000000 -0.000000
vn -1.000000 0.000000 0.000000
vn -1.000000 0.000000 0.000000
vn 1.000000 -0.000000 -0.000000
vn 0.000000 0.000000 -1.000000
vn 0.000000 0.000000 -1.000000
vn 0.000000 -0.000000 -1.000000
vn -1.000000 0.000000 0.000000
vn 0.000000 -0.000000 -1.000000
vn -0.000000 -0.000000 1.000000
# 29 normals

vt 0.000135 0.858552 0.000000
vt 0.470347 0.858552 0.000000
vt 0.470347 0.021339 0.000000
vt 0.000134 0.021340 0.000000
vt 0.491552 0.858552 0.000000
vt 0.491552 0.879758 0.000000
vt 0.961765 0.879758 0.000000
vt 0.961765 0.858553 0.000000
vt 0.491554 0.021339 0.000000
vt 0.961767 0.021341 0.000000
vt 0.982972 0.858553 0.000000
vt 0.982972 0.021341 0.000000
vt 0.961767 0.000135 0.000000
vt 0.491554 0.000134 0.000000
vt 0.253884 0.940081 0.000000
vt 0.000134 0.940081 0.000000
vt 0.000134 0.955845 0.000000
vt 0.253884 0.955844 0.000000
vt 0.253884 0.983869 0.000000
vt 0.000134 0.983870 0.000000
vt 0.000134 0.996131 0.000000
vt 0.253884 0.996131 0.000000
vt 0.253884 0.968106 0.000000
vt 0.000134 0.968106 0.000000
vt 0.552211 0.983869 0.000000
vt 0.552211 0.968106 0.000000
vt 0.568477 0.949379 0.000000
vt 0.568477 0.937118 0.000000
vt 0.552480 0.937118 0.000000
vt 0.552480 0.949379 0.000000
vt 0.568477 0.921354 0.000000
vt 0.568477 0.909093 0.000000
vt 0.552480 0.909093 0.000000
vt 0.552480 0.921354 0.000000
vt 0.552211 0.952110 0.000000
vt 0.253884 0.952110 0.000000
vt 0.253884 0.880027 0.000000
vt 0.000134 0.880028 0.000000
vt 0.000134 0.895791 0.000000
vt 0.253884 0.895791 0.000000
vt 0.253884 0.923816 0.000000
vt 0.000134 0.923816 0.000000
vt 0.000135 0.936077 0.000000
vt 0.253884 0.936077 0.000000
vt 0.253884 0.908052 0.000000
vt 0.000134 0.908052 0.000000
vt 0.552212 0.923816 0.000000
vt 0.552212 0.908052 0.000000
vt 0.568745 0.909093 0.000000
vt 0.568745 0.921354 0.000000
vt 0.584741 0.921354 0.000000
vt 0.584741 0.909093 0.000000
vt 0.568745 0.937118 0.000000
vt 0.568745 0.949379 0.000000
vt 0.584741 0.949379 0.000000
vt 0.584741 0.937118 0.000000
vt 0.552212 0.892056 0.000000
vt 0.253884 0.892056 0.000000
vt 0.552212 0.939812 0.000000
vt 0.253884 0.939812 0.000000
vt 0.253884 0.999866 0.000000
vt 0.552211 0.999865 0.000000
# 62 texture coordinates

o fotowoltaika
usemtl Material.002
f 3/1/1 7/2/1 5/3/1 1/4/1
f 8/5/2 7/6/2 3/7/2 4/8/2
f 6/9/3 5/3/3 7/2/3 8/5/3
f 8/5/4 4/8/4 2/10/4 6/9/4
f 4/8/5 3/11/5 1/12/5 2/10/5
f 2/10/6 1/13/6 5/14/6 6/9/6
f 11/15/7 12/16/8 10/17/8 9/18/7
f 15/19/9 16/20/10 12/21/10 11/22/11
f 13/23/12 14/24/12 16/20/12 15/19/12
f 9/18/13 10/17/14 14/24/14 13/23/15
f 22/25/16 21/26/16 13/23/16 15/19/16
f 19/27/17 17/28/18 9/29/13 13/30/15
f 18/31/6 20/32/19 15/33/9 11/34/11
f 17/28/20 18/31/20 11/34/7 9/29/7
f 21/26/2 23/35/2 19/36/17 13/23/15
f 27/37/21 28/38/22 26/39/22 25/40/21
f 31/41/9 32/42/10 28/43/10 27/44/11
f 29/45/23 30/46/23 32/42/23 31/41/23
f 25/40/24 26/39/14 30/46/14 29/45/25
f 38/47/16 37/48/16 29/45/16 31/41/16
f 35/49/26 33/50/2 25/51/24 29/52/25
f 34/53/6 36/54/19 31/55/9 27/56/11
f 33/50/27 34/53/27 27/56/21 25/51/21
f 37/48/28 39/57/28 35/58/26 29/45/25
f 40/59/29 38/47/29 31/41/9 36/60/19
f 22/25/29 15/19/9 20/61/19 24/62/29

